<?xml version="1.0" standalone="no"?>
<!DOCTYPE svg PUBLIC "-//W3C//DTD SVG 1.1//EN" "http://www.w3.org/Graphics/SVG/1.1/DTD/svg11.dtd" >
<svg xmlns="http://www.w3.org/2000/svg">
<metadata>
This is a custom SVG webfont generated by Font Squirrel.
Copyright   : Drawn by Johan Mattsson
</metadata>
<defs>
<font id="BetecknaLowerCaseMedium" horiz-adv-x="423" >
<font-face units-per-em="2048" ascent="1638" descent="-410" />
<missing-glyph horiz-adv-x="718" />
<glyph unicode=" "  horiz-adv-x="718" />
<glyph unicode="&#x09;" horiz-adv-x="718" />
<glyph unicode="&#xa0;" horiz-adv-x="718" />
<glyph unicode="!" horiz-adv-x="487" d="M111 123q0 55 36.5 87t81.5 33h3q43 0 79 -30q37 -31 37 -86q0 -59 -37 -93t-82 -34t-81.5 33t-36.5 90zM139 516l13 903h184l-10 -903h-187z" />
<glyph unicode="&#x22;" horiz-adv-x="696" d="M53 1432q0 53 36 83.5t80 31.5h3q42 0 78 -30q37 -32 37 -92q-8 -49 -26.5 -96t-32 -70.5t-42 -64.5t-34.5 -51q-6 27 -53.5 141.5t-45.5 147.5zM410 1432q0 53 35.5 83.5t79.5 31.5h3q42 0 78 -30q37 -32 37 -92q-8 -49 -26.5 -96t-32 -70.5t-42 -64.5t-34.5 -51 q-6 27 -53 141.5t-45 147.5z" />
<glyph unicode="#" horiz-adv-x="931" d="M96 451v176h119v172h-119v186l119 -2v287h158v-287h184v287h160v-287h119v-186h-119v-170h119v-178h-119v-306h-160v306h-184v-306h-158v306zM373 627h184v170l-184 2v-172z" />
<glyph unicode="$" horiz-adv-x="1501" d="M348 227l82 142q49 -47 83 -73t92.5 -50.5t123.5 -24.5q94 0 133 21q45 27 99 112q32 52 31 103q0 38 -17 75q-35 84 -137 125q-137 57 -146 60q-121 41 -184 96q-72 63 -99 136q-23 59 -23 123q0 14 1 28q6 78 45 141.5t110.5 106.5t164.5 49l-27 139h154l-25 -139 q137 -8 233 -86l-84 -127q-77 69 -187 69q-24 0 -50 -4q-66 -8 -110 -53t-51 -101q-1 -8 -1 -16q0 -49 39 -102q49 -68 141 -98l150 -52q57 -20 123 -69q57 -47 103 -117t52 -156q0 -8 1 -16q0 -86 -40 -176q-86 -197 -301 -230l17 -124h-154l15 118h-9q-72 2 -152.5 40 t-120.5 68.5t-75 61.5z" />
<glyph unicode="%" horiz-adv-x="1146" d="M59 227l887 918l117 -121l-887 -918zM82 967q0 70 32.5 119t83.5 68q45 18 97 18q5 0 11 -1q58 -2 108.5 -26.5t83 -73.5t32.5 -110q0 -66 -32.5 -117t-82.5 -75t-109 -25h-5q-55 0 -103 22q-50 23 -83 75t-33 126zM219 969q0 -55 43 -79q22 -12 43 -12t42 12 q42 24 42 81q0 41 -26.5 62.5t-58.5 21.5t-58.5 -23.5t-26.5 -62.5zM623 328q0 72 33.5 121t82.5 68q42 17 92 17h16q58 -3 108.5 -28t84 -73t33.5 -111q0 -66 -33.5 -116t-84 -75t-108.5 -26h-5q-55 0 -103 22q-49 23 -82.5 75t-33.5 126zM760 330q0 -55 43 -78 q21 -11 42 -11q22 0 43 12q42 24 42 79q0 53 -42 75q-21 11 -41 10q-22 0 -44 -11q-43 -23 -43 -76z" />
<glyph unicode="&#x26;" horiz-adv-x="1544" d="M125 435.5q0 58.5 20.5 115.5t46 101t62.5 86t68.5 71t64.5 53q-43 84 -49 163q-1 16 -1 31q0 60 19 107q25 59 55.5 99.5t65.5 68.5q72 55 186 67q28 3 55 3q82 0 156 -26q98 -34 130 -97l-113 -107q-45 66 -159 73q-11 1 -21 1q-98 0 -156 -61q-49 -59 -49 -126 q0 -101 115 -218l434 -455q69 143 68 286q0 19 -1 38h170q-6 -270 -114 -453l241 -256h-241l-113 117q-150 -137 -395 -162q-20 -2 -40 -2q-87 0 -175 30q-109 36 -197 121.5t-121 202.5q-12 70 -12 128.5zM317 348q27 -80 102 -138t149 -81q59 -18 105 -18q12 0 23 2 q147 14 256 125l-469 489q-96 -80 -147 -180q-31 -61 -31 -122q-1 -39 12 -77z" />
<glyph unicode="'" horiz-adv-x="315" d="M41 1432q0 53 36 84.5t79 33.5h5q40 0 73 -28q36 -31 36 -90q0 -70 -38.5 -152t-79.5 -137q-111 166 -111 289z" />
<glyph unicode="(" horiz-adv-x="548" d="M80 669q0 343 2 359q14 203 118.5 345.5t268.5 213.5v-211q-170 -121 -195 -342q-2 -16 -2 -362t2 -369q29 -225 193 -352v-230q-160 78 -263.5 225.5t-121.5 356.5q-2 23 -2 366z" />
<glyph unicode=")" horiz-adv-x="604" d="M109 -45q164 129 192 352q2 23 2 369t-2 362q-23 221 -192 344v211q164 -74 267 -215t120 -344v-360v-367q-20 -207 -124 -355.5t-263 -225.5v229z" />
<glyph unicode="*" horiz-adv-x="434" d="M66 1430l10 36l71 -2q6 0 17.5 13.5t11.5 23.5v45l41 8l41 -8v-45q0 -12 12.5 -22.5t20.5 -10.5l65 -2l13 -36l-13 -41h-57q-25 0 0 -25l66 -66l-21 -34l-33 -25l-84 82l-8 4l-10 -4l-82 -82l-37 25l-18 34l69 66q10 8 5 17.5t-15 7.5h-55z" />
<glyph unicode="+" horiz-adv-x="1013" d="M131 643v186l293 -4l-6 299h184v-295l281 2v-184l-279 -2v-317h-184l-2 317z" />
<glyph unicode="," horiz-adv-x="315" d="M41 141q0 53 36 84t80 32h2q42 0 79 -31q37 -32 36 -91q0 -41 -18 -79t-34.5 -60.5t-54.5 -51t-46 -32.5t-41 -25q10 12 22.5 34t23.5 47.5t17.5 47t4 33.5t-16.5 8q-10 -3 -19 -3q-24 0 -44 20q-29 26 -27 67z" />
<glyph unicode="-" horiz-adv-x="962" d="M100 444v185l797 2v-187h-797z" />
<glyph unicode="." horiz-adv-x="389" d="M31 123q0 55 36.5 87t82.5 33h2q43 0 79 -30q37 -31 37 -86q0 -59 -36.5 -93t-82 -34t-82 33t-36.5 90z" />
<glyph unicode="/" horiz-adv-x="1024" d="M129 0l561 1438l205 4l-547 -1442h-219z" />
<glyph unicode="0" horiz-adv-x="1165" d="M63 739q0 293 111 465q86 135 224 194q92 39 185 38q48 0 96 -10q142 -30 247 -138q176 -182 176 -555v-30q0 -342 -133 -523q-94 -129 -238 -169q-62 -17 -124 -17l-163 30q-143 52 -241 183q-140 186 -140 532zM252 752q0 -272 90 -402q92 -131 235 -142q12 -1 23 -1 q126 0 211 110q100 133 100 420q0 291 -116 420q-66 72 -156 92q-31 7 -61 7q-59 0 -115 -26q-86 -40 -141 -134q-70 -119 -70 -344z" />
<glyph unicode="1" horiz-adv-x="802" d="M115 1475h434l2 -236l2 -1079h2v-160h-199l-2 160h-2l-2 1069h-233z" />
<glyph unicode="2" horiz-adv-x="1105" d="M74 0l622 811q89 137 90 249q0 21 -4 42q-20 127 -155 158q-22 5 -46 5q-53 0 -115 -26q-89 -37 -118 -121l-160 103q106 217 379 217h15q207 -4 309 -114q84 -90 84 -227q0 -30 -4 -63q-23 -180 -168 -381l-352 -469l561 2v-186l-733 -2v2h-205z" />
<glyph unicode="3" horiz-adv-x="1044" d="M59 90l119 139q74 -35 135.5 -51t102.5 -16t90 2q88 0 154.5 44t92.5 111q24 63 23 130v11q-2 73 -49 135t-127 89h-186l-6 160l174 4q90 14 136 119q23 53 23 102t-22 94q-41 82 -152 107q-31 6 -64 6q-47 0 -99 -12q-87 -20 -128 -93l-155 99q123 168 398 168h20 q133 -2 230 -65.5t137 -157.5q26 -61 26 -129q0 -37 -7 -76q-22 -113 -110 -209q86 -90 129 -190q41 -95 41 -180q0 -92 -39 -179q-37 -82 -102.5 -140.5t-155.5 -93t-190 -34.5q-15 -1 -30 -1q-208 0 -409 107z" />
<glyph unicode="4" horiz-adv-x="976" d="M35 332v88l727 1059h86v-979h94l-2 -174h-86v-326h-205v332h-395h-219zM287 498h366v549z" />
<glyph unicode="5" horiz-adv-x="1042" d="M61 150l99 126q104 -61 170.5 -84.5t171.5 -23.5q98 2 168.5 57.5t96.5 129.5q16 47 16 95q0 29 -6 59q-15 79 -72 126q-100 78 -240 86l-240 -8l2 721h598l4 -164h-411l-6 -406q30 1 57 1q109 0 177 -13q85 -16 171 -76q72 -47 113 -124t49 -162q2 -20 2 -40 q0 -65 -20 -131q-27 -86 -82.5 -155.5t-151.5 -112.5t-217 -43q-15 -1 -29 -1q-103 0 -209 38q-121 44 -211 105z" />
<glyph unicode="6" horiz-adv-x="1208" d="M83 785q0 73 23 169q25 100 74 193q70 131 198 211t269 80h13q166 0 251 -52l-75 -153q-18 18 -74 33q-32 8 -74 8q-30 0 -65 -4q-94 -10 -165 -61.5t-110 -127t-56.5 -156.5t-17.5 -167q4 -29 7 -35q76 84 163.5 126t156.5 47q16 1 33 1q53 0 109 -12q74 -16 108 -31.5 t64 -34.5q72 -41 122 -140t50 -220q0 -164 -86 -275q-141 -178 -376 -180q-262 0 -404 209q-35 49 -77 157.5t-46 153.5q-8 35 -11 108q-4 97 -4 153zM315 463q0 -90 45.5 -155.5t110.5 -94.5q63 -28 137 -28h5q77 1 143.5 33t110.5 99.5t44 159.5q0 100 -61.5 165 t-153.5 91q-32 5 -55 5q-15 0 -28 -2q-32 -5 -81 -19q-80 -25 -148.5 -105.5t-68.5 -148.5z" />
<glyph unicode="7" horiz-adv-x="985" d="M86 0l580 1225h-519v190l750 -2v-172l2 -6l-561 -1235h-252z" />
<glyph unicode="8" horiz-adv-x="1136" d="M72 422q0 215 194 354q-125 135 -131 258q0 96 39 183.5t102 136.5q115 88 278 89h4q160 0 269 -79q70 -49 114 -139t44 -191q-6 -92 -123 -250q203 -135 203 -360q0 -176 -80 -279q-70 -88 -180.5 -134t-233.5 -46q-133 0 -248.5 53.5t-183.5 151.5q-67 98 -67 252z M279 434q0 -90 44 -156.5t109.5 -96t141.5 -30.5q3 0 6 -1q74 0 138 29q67 30 109.5 96.5t42.5 158.5q0 100 -56 167t-146 91q-47 8 -91 9q-54 0 -104 -13q-86 -25 -140 -90.5t-54 -163.5zM322 1073q0 -90 49 -145.5t127 -71.5q25 -3 51 -3q35 0 72 5q78 18 126 73.5 t48 143.5q0 68 -35 117t-88 72q-51 22 -109 21h-5q-60 -1 -112.5 -23.5t-88 -71.5t-35.5 -117z" />
<glyph unicode="9" horiz-adv-x="1054" d="M80 1014q0 141 66.5 244.5t168 149.5t218 46t216 -46t164 -149.5t62.5 -242.5q-12 -188 -122 -479t-275 -537l-263 2l144 186q43 57 109.5 171t107.5 223q4 12 9 41.5t7 35.5q-80 -53 -205 -53q-104 0 -194 43t-151.5 138.5t-61.5 226.5zM270 1026q0 -106 57.5 -167.5 t133.5 -70.5q17 -2 34 -1q59 0 118 22q77 29 116 84q43 55 51 147q-2 78 -40 134.5t-95 79.5q-51 21 -108 21h-15q-66 -3 -122 -29.5t-93 -85t-37 -134.5z" />
<glyph unicode=":" horiz-adv-x="329" d="M43 154q0 55 37 86.5t82 32.5h3q43 0 79 -29q37 -31 37 -86q0 -59 -37 -93t-82 -34t-82 33t-37 90zM45 838q0 51 38 81.5t82 31.5h3q42 0 79 -28q38 -30 38 -83q0 -55 -38 -87t-82 -32t-82 31t-38 86z" />
<glyph unicode=";" horiz-adv-x="315" d="M35 848q0 53 37 84t82 31t81.5 -29t36.5 -82q0 -55 -36.5 -87t-81.5 -32t-82 31t-37 84zM45 188q0 51 37 83t81 33h2q42 0 78 -32q36 -33 36 -92q0 -39 -17.5 -78t-34 -60.5t-55.5 -49.5l-46 -34q-7 -5 -42 -24q10 10 22.5 33t23.5 47.5t18.5 46t4.5 33.5t-18 8 q-8 -2 -16 -2q-24 0 -46 20q-30 25 -28 68z" />
<glyph unicode="&#x3c;" horiz-adv-x="1265" d="M170 766l121 57l805 398v-205l-514 -256l503 -271l-2 -210l-757 399z" />
<glyph unicode="=" horiz-adv-x="1361" d="M225 1079l905 -2l5 -180l-906 2zM229 412l4 180l906 -2l-4 -180z" />
<glyph unicode="&#x3e;" horiz-adv-x="1265" d="M170 1016v205l805 -398l121 -57l-156 -88l-758 -399l-2 210l504 271z" />
<glyph unicode="?" horiz-adv-x="1122" d="M190 1391q66 74 148 108.5t197 34.5q182 0 289.5 -101.5t107.5 -269.5q0 -86 -37 -157.5t-121 -157.5l-86 -90q-76 -82 -89 -124t-13 -149l-4 -34l-199 -11l2 68q0 119 33 186.5t110 147.5l88 94l35 34q18 17 34.5 38.5t30 41t21.5 44t6 49.5q-6 233 -235 233 q-63 0 -108.5 -19.5t-69 -47t-54.5 -60.5zM365 123q0 55 36.5 87t81.5 33h3q43 0 79 -30q37 -31 37 -86q0 -59 -37 -93t-82 -34t-81.5 33t-36.5 90z" />
<glyph unicode="@" horiz-adv-x="1853" d="M201 717q0 285 172 491q92 111 253.5 178.5t323.5 67.5q150 0 289 -43t225 -117q111 -98 164 -237t53 -297q0 -117 -26.5 -185.5t-110.5 -144.5q-70 -59 -164 -74q-31 -5 -59 -4q-60 0 -113 20q-78 30 -108 91q-74 -51 -167 -59q-17 -1 -33 -1q-75 0 -142 27 q-82 33 -138.5 116t-58.5 197v12q0 83 29 151q31 73 82 115t114 64q56 20 116 20h17q69 -3 128 -30q37 -18 51 -43v64h149l-10 -140q-6 -82 -9 -128q-2 -28 -2 -64q0 -24 1 -52q2 -71 12 -145q18 -55 94 -67q15 -2 29 -3q56 0 96 40q51 51 64.5 83.5t13.5 137.5 q0 258 -164 411q-68 66 -185.5 102t-234.5 36q-137 0 -270 -53.5t-203 -143.5q-121 -158 -121 -393q0 -82 37 -173t103.5 -173t172 -137.5t226.5 -57.5q22 -1 42 0q51 0 95 3q61 5 101.5 16.5t75 26t59.5 30.5l53 35l100 -103q-61 -39 -97 -58.5t-100.5 -44t-143 -34.5 t-185.5 -10q-133 0 -250 42t-196.5 110.5t-138 156.5t-85 182.5t-26.5 188.5zM711 750q0 -68 33.5 -120t84.5 -72q46 -18 95 -18q5 0 10 1q53 2 98 35.5t62 93.5q3 18 3 61v24q-1 62 -3 83q-18 61 -62.5 98t-97.5 38h-5q-51 0 -100 -21q-51 -22 -84.5 -75.5t-33.5 -127.5z " />
<glyph unicode="A" horiz-adv-x="1380" d="M43 2l569 1341l62 154l84 -188l579 -1307h-194l-176 373h-564l-165 -373h-195zM477 545h412l-213 508z" />
<glyph unicode="B" horiz-adv-x="1058" d="M90 0v1409h410l6 -4h10q86 0 156 -34q74 -36 115.5 -93t59.5 -130q11 -44 10 -86q0 -27 -4 -54q-11 -68 -55 -127.5t-116 -89.5q-2 0 -2 -3.5t2 -3.5q94 -4 162.5 -64.5t98.5 -148.5q24 -71 24 -150q0 -19 -1 -39q-7 -101 -51.5 -187t-138.5 -142q-88 -51 -204 -51h-17 l-20 -2h-345v2zM268 195h314q80 2 131 51t59 121q3 23 3 45q0 49 -12 97q-17 71 -72.5 121t-131.5 52v2h-291v-489zM268 834h230q74 10 121 56t55 106q3 20 3 41q0 40 -11 79q-16 59 -69.5 100t-129.5 44v2h-199v-428z" />
<glyph unicode="C" horiz-adv-x="1421" d="M113 441q-39 108 -39 221q0 161 80 331q100 215 299 335q183 110 392 111q18 0 36 -1q180 -6 305 -64q47 -23 66.5 -36t62.5 -50l-146 -129q-29 37 -125 69t-165 34h-20q-156 0 -303 -92q-157 -97 -230 -255q-55 -118 -56 -234q0 -91 34 -179q77 -203 290 -301 q104 -49 219 -51q6 0 12 -1q108 0 204 35q101 37 196 107l123 -137q-90 -82 -215 -128t-244 -54q-38 -2 -74 -2q-78 0 -150 11q-105 15 -173 50q-285 147 -379 410z" />
<glyph unicode="D" horiz-adv-x="1251" d="M80 0v1415h217q26 3 69 3q21 0 47 -1q77 -2 109 -2q119 -2 220.5 -35.5t169 -89t108.5 -106.5t67 -107q68 -145 80 -306q3 -36 3 -72q0 -121 -32 -233q-42 -144 -147.5 -262t-259.5 -171q-43 -14 -147 -33q-33 0 -92.5 -1t-94.5 -1t-114 2h-203zM268 1260l6 -1090 q74 0 141 -2h21q58 0 128 9q83 11 151 40q102 41 164.5 143.5t77.5 218.5q10 75 10 147q0 38 -2 75q-8 106 -35 174q-53 131 -163 208t-263 77q-10 0 -88 1h-51q-51 0 -97 -1z" />
<glyph unicode="E" horiz-adv-x="989" d="M111 0v1419h749v-174h-561v-401h401v-170h-401v-506h580v-168h-768z" />
<glyph unicode="F" horiz-adv-x="960" d="M119 0v1415h723v-168h-533v-403h400v-170h-400v-674h-190z" />
<glyph unicode="G" horiz-adv-x="1441" d="M67 608q-4 36 -4 73q0 122 39 245q51 160 157 283.5t266 197.5q148 68 315 68h28q180 -6 306 -66q47 -23 66.5 -36t62.5 -50l-146 -131q-27 39 -124 69.5t-167 34.5q-10 0 -19 1q-156 0 -303 -93q-157 -98 -231 -256q-55 -121 -55 -238q0 -92 34 -181q77 -204 290 -306 q100 -47 210 -49h12q103 0 195 33q98 35 191 98l8 289h-283l3 151l460 3l-2 -510q0 -33 -37 -52q-90 -84 -215 -131t-245 -56q-47 -4 -93 -4q-70 0 -134 9q-105 14 -173 49q-186 98 -291.5 247.5t-120.5 307.5z" />
<glyph unicode="H" horiz-adv-x="1290" d="M119 0v1413h188l2 -149v-457h676v614h186v-1421h-186v637l-676 2v-639h-190z" />
<glyph unicode="I" d="M119 1425h184l2 -1423h-184z" />
<glyph unicode="J" horiz-adv-x="811" d="M45 -14l84 161q74 -53 155 -57h15q72 0 130 36q65 40 106 130q39 86 39 200q0 6 -1 11l-14 967h186l19 -979v-23q0 -130 -43 -234q-47 -114 -126 -176.5t-173 -90.5q-61 -18 -123 -17q-35 0 -71 5q-99 16 -183 67z" />
<glyph unicode="K" horiz-adv-x="1302" d="M100 -4v1409h191v-666l557 666h231l-569 -664l692 -745h-235l-676 737v-737h-191z" />
<glyph unicode="L" horiz-adv-x="970" d="M100 4v1411l191 -2v-1239h579v-170h-770z" />
<glyph unicode="M" horiz-adv-x="1503" d="M92 -2l72 1483l592 -805l583 797l72 -1481h-176l-64 944l-415 -547l-424 553l-64 -944h-176z" />
<glyph unicode="N" horiz-adv-x="1323" d="M119 6v1428l911 -1016l-6 1007h180v-1482l-907 1013v-950h-178z" />
<glyph unicode="O" horiz-adv-x="1540" d="M51 721q0 137 44 267t127 232.5t217 165t300 62.5q182 0 328.5 -63.5t237 -166t138.5 -233.5q47 -128 47 -262q0 -139 -49 -271q-48 -130 -137.5 -231.5t-232.5 -164t-317 -62.5q-170 0 -307.5 62.5t-221.5 165t-129 232.5t-45 267zM242 725q2 -104 36.5 -205.5 t96 -179.5t161 -126t222.5 -48q125 0 229.5 48t169 127t98.5 180q36 104 36 213q0 102 -36 200q-37 100 -103.5 179t-176.5 126q-106 45 -238 45h-12q-119 0 -214 -48t-152.5 -127t-88.5 -179q-29 -94 -28 -192v-13z" />
<glyph unicode="P" horiz-adv-x="1036" d="M106 2v1417l424 -2h9q122 0 213 -56q94 -58 136 -147q41 -86 41 -187q0 -107 -45 -199q-44 -89 -142 -148q-94 -57 -223 -57h-9l-215 -2v-615zM295 788h221q66 0 115 34t72.5 84t26.5 110q0 8 1 15q0 51 -18 95q-20 51 -68.5 86t-116.5 35l-233 2v-461z" />
<glyph unicode="Q" horiz-adv-x="1562" d="M61 721q0 137 45.5 267t128 232.5t217 165t300.5 62.5q182 0 328.5 -63.5t235.5 -166t137 -233.5t48 -267t-49 -266t-137 -231.5t-231.5 -164t-319.5 -62.5q-170 0 -307.5 62.5t-220 165t-129 232.5t-46.5 267zM254 725q2 -104 37 -205.5t96.5 -179.5t160.5 -126t220 -48 q127 0 230.5 48t168 127t100.5 180.5t36 207t-36 205.5t-102.5 179t-178.5 126q-107 45 -237 45h-12q-119 0 -214 -48t-153.5 -127t-87.5 -179q-28 -94 -28 -192v-13zM911 412l150 120l110 -124l279 -310l-154 -127l-247 285z" />
<glyph unicode="R" horiz-adv-x="1001" d="M100 1434l424 2h10q100 0 181 -39q84 -41 131 -107.5t66 -150.5q12 -50 12 -99q0 -33 -5 -66q-13 -81 -60.5 -156t-121.5 -120l336 -696h-207l-309 641q-23 -2 -53 -2l-215 -2l8 -637h-191zM289 807h223q63 0 112.5 33.5t74 84t26.5 109.5v11q0 53 -18 100 q-20 51 -68.5 86t-116.5 35h-233v-459z" />
<glyph unicode="S" horiz-adv-x="1081" d="M74 106l37 199q168 -78 280 -106q68 -18 136.5 -18.5t137 33.5t111.5 97q35 57 36 113q0 41 -19 83q-45 97 -154 132q-104 45 -164 66q-127 37 -210 108.5t-112 152.5q-22 59 -22 120q0 23 3 47q11 86 58.5 154.5t134.5 112.5t195 44q123 0 198 -18.5t148 -75.5l-94 -138 q-86 72 -215 73q-25 0 -51 -3q-74 -8 -123 -57t-57 -111q-1 -9 -1 -17q0 -53 43 -111q50 -67 158 -105l166 -58q57 -20 111.5 -55t101.5 -89t75 -118q26 -59 26 -135v-11q-2 -83 -41 -169q-118 -255 -452 -256q-65 0 -138 10q-78 14 -133.5 31.5t-77.5 27.5t-92 47z" />
<glyph unicode="T" horiz-adv-x="1003" d="M33 1241v164h938v-164l-373 -2l-8 -1239h-189v2l7 1237z" />
<glyph unicode="U" horiz-adv-x="1212" d="M106 1399l191 4l4 -858q0 -86 25.5 -158t67.5 -116t96.5 -67.5t110.5 -23.5t110.5 24.5t97.5 68.5t69.5 117t28.5 163l4 -4l-2 848h187l8 -854v-12q0 -126 -41 -227q-43 -105 -113.5 -169.5t-162.5 -98.5q-86 -32 -175 -32h-11q-95 2 -185 38t-160 100.5t-110 168.5 q-36 95 -36 207q0 11 1 23z" />
<glyph unicode="V" horiz-adv-x="1382" d="M45 1419h193l231 -540l209 -508l233 508l234 540h192l-661 -1495l-64 156z" />
<glyph unicode="W" horiz-adv-x="1771" d="M55 1417h181l325 -952l295 682l33 78l33 -80l292 -678l324 952l178 -2l-495 -1456l-326 797l-342 -801z" />
<glyph unicode="X" horiz-adv-x="1423" d="M59 0l136 190l403 609l-258 368l-186 263h247l185 -263l129 -192l143 217l158 233l217 2l-164 -247h2l-244 -371l418 -625v-2l119 -184l-213 2l-117 172l-323 463l-293 -445l-115 -190h-244z" />
<glyph unicode="Y" horiz-adv-x="1236" d="M33 1417h217l373 -561l364 561h217l-479 -733v-678l-217 -6l14 676h2z" />
<glyph unicode="Z" horiz-adv-x="1628" d="M246 0l55 76q41 55 80 114l676 1033h-711v174h1051l-117 -185l-674 -1022h776v-186z" />
<glyph unicode="[" horiz-adv-x="712" d="M127 0v1442l192 -4h263l-2 -191h-261v-1059h267l-2 -188h-265h-192z" />
<glyph unicode="\" horiz-adv-x="1007" d="M121 1442l205 -4l561 -1438h-219z" />
<glyph unicode="]" horiz-adv-x="704" d="M123 188h266v1059h-260l-2 191h262l193 4v-1442h-193h-264z" />
<glyph unicode="^" horiz-adv-x="1239" d="M322 1083l311 420l285 -418h-179l-108 160l-121 -160z" />
<glyph unicode="_" horiz-adv-x="1144" d="M98 0h949v-168h-949v168z" />
<glyph unicode="`" horiz-adv-x="2048" d="M817 1868l127 149l287 -301l-103 -96z" />
<glyph unicode="a" horiz-adv-x="1042" d="M68 424q0 115 38.5 207t104 147.5t147.5 83.5q70 24 143 25q13 0 26 -1q87 -5 163 -40q47 -20 68 -53v81h190l-2 -874h-186v63q-76 -51 -169 -69q-44 -9 -88 -9q-48 0 -95 11q-90 20 -166 70.5t-124 143.5t-50 214zM244 430q0 -92 44 -160.5t111 -93.5q65 -24 133 -23h6 q71 1 130 47t80 122q7 25 6 82v31q-2 83 -6 110q-18 70 -63.5 113.5t-101.5 58.5q-32 8 -65 8q-26 0 -52 -5q-60 -11 -109.5 -47t-81 -99.5t-31.5 -143.5z" />
<glyph unicode="b" horiz-adv-x="1046" d="M90 1532h191v-741q16 16 53 38.5t63 30.5q61 20 129 22h8q63 0 124 -16q65 -16 122.5 -54t99.5 -91t66.5 -130t24.5 -167q-2 -121 -50.5 -214t-124 -143.5t-165.5 -70.5q-47 -11 -96 -11q-43 0 -88 9q-93 18 -168 69v-63h-187zM283 436q0 -16 -1 -30q0 -56 7 -78 q20 -76 77.5 -120t126.5 -45h5q66 0 128 23q65 25 107.5 90.5t42.5 155.5q0 92 -43 162t-107 96q-62 26 -128 26h-5q-69 -1 -126.5 -47t-77.5 -126q-4 -27 -6 -107z" />
<glyph unicode="c" horiz-adv-x="862" d="M65 314q-15 54 -16 109q0 112 64 226q70 125 197 186q103 49 216 48q27 0 54 -2q111 -12 184 -54q31 -16 26.5 -14t14.5 -12l-103 -160q-14 20 -60 38.5t-79 22.5q-16 2 -32 2q-67 0 -129 -28q-77 -35 -115 -109q-41 -73 -41 -141q0 -28 7 -55q24 -94 122 -152 q57 -33 123 -35q13 -1 24 0q81 0 146 35q27 12 39 23l92 -160q-92 -82 -280 -82h-9q-152 0 -231 49q-168 100 -214 265z" />
<glyph unicode="d" horiz-adv-x="1054" d="M88 424v12q0 97 31 179q33 87 88 140.5t128 89.5t149 39q14 1 27 0q63 0 126 -12q92 -20 139 -47v707h191l-2 -1532h-185l-2 78q-6 -4 -29.5 -25.5t-37.5 -27.5q-76 -33 -162 -38q-14 -1 -28 -1q-71 0 -138 22q-80 27 -146.5 78t-106.5 139t-42 199zM281 432 q0 -90 44 -155.5t108 -90.5q62 -24 128 -23h5q69 1 126.5 45t77.5 120q5 25 5 86v22q-1 80 -5 107q-23 80 -80 126t-125 47h-5q-65 0 -128 -26q-66 -27 -108.5 -96.5t-42.5 -161.5z" />
<glyph unicode="e" horiz-adv-x="1024" d="M112 628q38 89 120.5 157.5t193.5 91.5q55 10 115 10q55 0 102 -8q123 -25 197.5 -107t95.5 -185q10 -52 10 -106.5t-10 -111.5l-666 -2q25 -86 83.5 -131.5t183.5 -55.5q25 -4 56.5 -1t84.5 22.5t92 56.5l2 2l154 -92v-2q-57 -74 -168 -125q-59 -29 -148 -39 q-41 -4 -82 -4q-55 0 -104 8q-115 23 -197 89.5t-118 154.5q-36 86 -36 183q0 103 39 195zM274 514l490 2q-18 213 -225 213q-115 0 -185 -65.5t-80 -149.5z" />
<glyph unicode="f" horiz-adv-x="735" d="M63 709v155h111q0 125 31 218.5t81 141.5t102 69.5t106 21.5q35 0 61.5 -7.5t53 -18.5t42.5 -15l-98 -154l-35 19q-82 0 -116.5 -59.5t-34.5 -215.5h211v-159h-218l2 -705h-196v709h-103z" />
<glyph unicode="g" horiz-adv-x="974" d="M68 438q0 102 34.5 189.5t95 141.5t135.5 85q70 29 147 29h10q83 -2 159 -37q47 -20 68 -53l-2 81h192l-4 -862q0 -221 -174 -348q-98 -68 -233 -71h-14q-127 0 -228 55l-75 40q-13 7 -34 25l74 146l119 -62q49 -25 108 -28q12 -1 24 -1q47 0 90 13q54 16 99.5 57 t61.5 101l-2 61l2 121q-45 -47 -112 -70q-61 -21 -126 -20h-12q-72 2 -143.5 30.5t-129 76.5t-93 127t-37.5 173zM242 459q0 -80 42 -142.5t103.5 -89t126 -26.5t117.5 44t71 122q0 20 3 72q1 26 1 45.5t-1 31.5q0 68 -34 115t-85 65q-40 14 -86 15q-13 0 -26 -1 q-60 -5 -111.5 -33t-86 -85t-34.5 -133z" />
<glyph unicode="h" horiz-adv-x="997" d="M100 1520l191 12v-739q20 16 54 38.5t61 30.5q66 23 135 23q180 0 267 -113t87 -303v-223v-100q0 -19 -1 -56t-1 -92h-193q0 66 1 131.5t1 139.5v212q0 80 -30.5 134.5t-76.5 75.5q-39 18 -83 18h-17q-54 -4 -100.5 -32t-77 -79t-30.5 -117v-483h-185z" />
<glyph unicode="i" d="M104 1116q0 47 34 75t74 29h3q38 0 71 -26q34 -27 33 -76q0 -51 -33.5 -80.5t-73.5 -29.5t-74 28.5t-34 79.5zM121 887h188v-891h-184z" />
<glyph unicode="j" d="M104 1116q0 47 34 75t74 29h3q38 0 71 -26q34 -27 33 -76q0 -51 -33.5 -80.5t-73.5 -29.5t-74 28.5t-34 79.5zM121 -209v1090h188l-2 -1090h-186z" />
<glyph unicode="k" horiz-adv-x="1003" d="M100 0l2 1532h191l-2 -1045l112 113l271 270l241 -2l-401 -403l463 -465l-242 -2l-332 332l-112 112v-442h-191z" />
<glyph unicode="l" horiz-adv-x="430" d="M119 0v1602h192l-2 -1115v-487h-190z" />
<glyph unicode="m" horiz-adv-x="1527" d="M94 879h191v-72q35 25 55 37t71.5 27.5t108.5 15.5q72 0 121 -19.5t94 -62.5q18 -14 34.5 -17.5t25 -1.5t28 16.5t27.5 18.5q43 31 100 47q31 12 51.5 13.5t47.5 -0.5q178 0 267 -117t89 -307v-220v-95q0 -17 -1 -50t-1 -90l-195 -2v124q0 58 1 128t1 209q0 78 -27.5 134 t-68.5 81.5t-89 25.5t-89 -23.5t-68.5 -74.5t-27.5 -121q0 -12 -2 -483h-179v131q0 63 1.5 136t1.5 210q0 80 -29 136.5t-71 79.5q-40 23 -87 23h-4q-49 -1 -91 -24.5t-70.5 -74t-28.5 -115.5v-502h-185z" />
<glyph unicode="n" horiz-adv-x="872" d="M72 879h190v-68q10 6 94 49q39 18 152 19q176 0 247.5 -105.5t71.5 -302.5l-2 -471h-192v134q0 67 1 142.5t1 212.5q0 80 -28.5 135.5t-70.5 77.5q-37 20 -80 20h-12q-49 -3 -92 -28.5t-70.5 -77t-27.5 -116.5l4 -500h-184z" />
<glyph unicode="o" horiz-adv-x="1021" d="M97 659q50 98 159 164t254 66q147 0 253.5 -65.5t154.5 -164.5q46 -96 46 -209v-5q-1 -116 -50.5 -215t-158 -164.5t-253.5 -65.5q-147 0 -256 65.5t-156 164.5q-45 95 -45 206q0 121 52 223zM228 452q0 -71 28 -133q29 -63 93.5 -105t152.5 -42q135 0 215 88 q53 59 67 142q5 31 6 62q0 50 -15 96q-24 75 -94.5 128t-172.5 53q-88 0 -153.5 -43t-95.5 -105q-31 -64 -31 -141z" />
<glyph unicode="p" horiz-adv-x="1038" d="M80 874h190v-65q74 51 168 70q42 8 84 8q51 0 102 -13q91 -23 167.5 -76t122.5 -151q44 -94 45 -212q0 -5 -1 -11q-2 -121 -49 -214t-123.5 -143.5t-167.5 -70.5q-47 -11 -95 -11q-43 0 -88 9q-93 18 -167 69l-2 -475h-184zM271 436v-22q0 -62 5 -86q20 -76 78 -120 t126 -45h6q66 0 127 23q65 25 109 90.5t44 155.5q0 92 -43 162t-109 96q-63 26 -128 26h-5q-68 -1 -125 -47t-80 -126q-4 -27 -5 -107z" />
<glyph unicode="q" horiz-adv-x="1017" d="M70 424q0 7 -1 14q0 84 24 156q26 78 70 132t103.5 92t125.5 53q59 14 119 14h16q69 -2 132 -27q68 -23 99 -65v81h190l-2 -1286h-184l-2 475q-74 -51 -167 -69q-44 -9 -88 -9q-48 0 -95 11q-90 20 -167 70.5t-124 143.5t-49 214zM262 432q0 -90 44 -155.5t109 -90.5 q62 -24 127 -23h6q69 1 126 45t78 120q5 25 5 86v22q-1 80 -5 107q-23 80 -80.5 126t-124.5 47h-5q-65 0 -128 -26q-66 -27 -109 -96.5t-43 -161.5z" />
<glyph unicode="r" horiz-adv-x="702" d="M63 879h191l-2 -177l2 3q10 68 60.5 114.5t106.5 64t114 17.5q59 0 116 -27l-73 -167q-25 5 -52 5q-34 0 -70 -9q-67 -15 -110 -60q-37 -41 -65.5 -105.5t-28.5 -119.5l-2 -418h-184z" />
<glyph unicode="s" horiz-adv-x="851" d="M92 152l139 122q70 -88 191 -102q17 -2 32 -2q41 0 72 15q43 22 56 55q4 12 4 24q0 21 -14 42q-22 34 -76 50q-156 45 -191 58q-78 33 -111.5 96t-33.5 133q0 37 14 77t47 80t100.5 65.5t157.5 25.5q172 0 254 -84l-100 -131q-49 57 -125 67q-27 4 -58.5 -1t-61.5 -27.5 t-30 -63.5q0 -74 97 -104l96 -19q104 -33 159.5 -94t58.5 -128v-16q0 -58 -19 -110q-23 -59 -66 -100q-51 -49 -116.5 -66.5t-153.5 -19.5h-7q-68 0 -170 42q-108 44 -145 116z" />
<glyph unicode="t" horiz-adv-x="497" d="M57 696v168h95v189h190v-189h98v-172h-100v-696h-195v700h-88z" />
<glyph unicode="u" horiz-adv-x="966" d="M84 408q0 143 1 223t1 99v56v93h193v-490q0 -80 27.5 -130t69.5 -65q24 -9 50 -9q19 0 40 4q48 11 90 44t70.5 88.5t28.5 120.5l-2 437h187l2 -879h-191l-4 131q-16 -10 -51 -49t-55 -49q-66 -33 -135 -33q-178 0 -250 105.5t-72 302.5z" />
<glyph unicode="v" horiz-adv-x="956" d="M61 874l197 3l215 -506l238 510l186 -2l-426 -955z" />
<glyph unicode="w" horiz-adv-x="1198" d="M66 874l196 3l193 -521l184 344l172 -338l188 519l189 -2l-344 -942l-207 403l-223 -403z" />
<glyph unicode="x" horiz-adv-x="1007" d="M68 0l135 190l196 289l-139 207l-135 188l246 3l114 -191l27 -41l154 232h217l-164 -246l-98 -150l155 -235l164 -248l-217 2l-158 233l-55 82l-82 -125l-115 -190h-245z" />
<glyph unicode="y" horiz-adv-x="946" d="M39 874l197 3l241 -506l262 510l187 -2l-627 -1289h-219l295 564z" />
<glyph unicode="z" horiz-adv-x="913" d="M59 0l484 711l-424 -2v159h723l-111 -166l-344 -526h467v-176h-795z" />
<glyph unicode="{" horiz-adv-x="548" d="M-61 651q61 0 95 57.5t40 126t6 131t2 62.5q14 203 118.5 345.5t268.5 213.5v-211q-170 -121 -195 -342q0 -2 -1 -63.5t-7 -130t-39.5 -127t-95.5 -58.5q33 0 58.5 -15t40 -38.5t25.5 -56.5t15 -64.5t6.5 -65.5t2.5 -58v-42q-2 -18 -3 -20q16 -209 191 -344v-230 q-160 78 -263.5 225.5t-121.5 354.5q0 2 1 19.5t2 41t-1 56.5t-7 63.5t-15.5 62t-26 54.5t-39.5 38t-57 15zM276 295z" />
<glyph unicode="|" d="M115 0v1427h192l2 -940l-4 -487h-190z" />
<glyph unicode="}" horiz-adv-x="548" d="M-61 1376v211q164 -72 268 -214t119 -345q0 -2 2 -61q0 -63 6 -132t40 -126.5t95 -57.5q-33 0 -57.5 -15t-40 -38t-26.5 -54.5t-15 -62t-6 -63.5t-1 -56.5t2 -41t1 -19.5q-18 -207 -122 -354.5t-263 -225.5v230q174 135 190 344v20q-2 18 -2 42t2 58t6 65.5t14.5 64.5 t26 56.5t41 38.5t57.5 15q-61 0 -96 58.5t-40 127t-6 130t-1 63.5q-24 221 -194 342zM131 295z" />
<glyph unicode="~" horiz-adv-x="1015" d="M307 1118q10 43 47 66.5t79 32.5q13 3 26 2q29 0 57 -13q41 -18 62 -61l-82 -41q-14 29 -43 32t-47.5 -18.5t-4.5 -50.5v-2l2 -2l-86 -39v2q-14 33 -13 63q0 15 3 29zM496 1104l82 41q14 -29 42.5 -32t47 18.5t4.5 50.5v2l-2 2l86 39v-2q14 -33 13 -63q0 -15 -3 -30 q-10 -43 -47 -66.5t-79 -31.5q-13 -3 -26 -2q-29 0 -57 12q-41 19 -61 62z" />
<glyph unicode="&#xa1;" horiz-adv-x="487" d="M111 1298q0 57 36.5 90t81.5 33t82 -33.5t37 -93.5q0 -55 -37 -86q-36 -30 -79 -29h-3q-45 1 -81.5 32.5t-36.5 86.5zM139 905h187l10 -903h-184z" />
<glyph unicode="&#xa5;" horiz-adv-x="1236" d="M33 1417h217l373 -561l364 561h217l-479 -733v-678l-217 -6l14 676h2zM92 778h1026l4 -180h-1026zM94 229l4 181h1026l-4 -181h-1026z" />
<glyph unicode="&#xa6;" d="M129 0v645h172l6 -645h-178zM129 793l2 632h172l-2 -632h-172z" />
<glyph unicode="&#xa8;" horiz-adv-x="1460" d="M328 1649q0 55 36.5 87.5t82 32.5t82 -30.5t36.5 -85.5q0 -59 -36.5 -93t-82 -34t-82 33t-36.5 90zM836 1638q0 55 36.5 88t81.5 33t82 -30.5t37 -86.5q0 -59 -37 -92.5t-82 -33.5t-81.5 32.5t-36.5 89.5z" />
<glyph unicode="&#xaa;" horiz-adv-x="1042" d="M68 424q0 115 38.5 207t104 147.5t147.5 83.5q70 24 143 25q13 0 26 -1q87 -5 163 -40q47 -20 68 -53v81h190l-2 -874h-186v63q-76 -51 -169 -69q-44 -9 -88 -9q-48 0 -95 11q-90 20 -166 70.5t-124 143.5t-50 214zM244 430q0 -92 44 -160.5t111 -93.5q65 -24 133 -23h6 q71 1 130 47t80 122q7 25 6 82v31q-2 83 -6 110q-18 70 -63.5 113.5t-101.5 58.5q-32 8 -65 8q-26 0 -52 -5q-60 -11 -109.5 -47t-81 -99.5t-31.5 -143.5z" />
<glyph unicode="&#xab;" horiz-adv-x="1239" d="M68 598l417 283v-176l-159 -111l159 -119l2 -188zM494 592l415 285v-179l-159 -108l159 -121l2 -186z" />
<glyph unicode="&#xad;" horiz-adv-x="962" d="M100 444v185l797 2v-187h-797z" />
<glyph unicode="&#xb0;" horiz-adv-x="1146" d="M430 1640q0 66 45 102q40 32 88 32h10q53 -4 98.5 -41t45.5 -97q0 -63 -45 -101t-99 -40h-5q-50 0 -93 37q-45 38 -45 108zM524 1642q0 -33 25 -46q12 -7 24.5 -6.5t25.5 6.5q26 13 26 49q0 31 -26 44q-12 6 -24 6q-13 0 -26 -7q-25 -15 -25 -46z" />
<glyph unicode="&#xb1;" horiz-adv-x="1013" d="M111 260v184l794 2v-186h-794zM127 967v184l293 -2l-6 299h184v-295l281 2v-184l-279 -2l2 -318h-186v318z" />
<glyph unicode="&#xb2;" horiz-adv-x="823" d="M309 1075l312 406q45 69 44 124q0 11 -1 21q-10 63 -80 80q-11 3 -23 3q-26 0 -56 -13q-44 -18 -59 -62l-79 52q51 109 186 108h10q102 -2 154 -56q42 -44 42 -113q0 -15 -2 -32q-11 -90 -83 -190l-176 -236l280 2v-94h-366h-103z" />
<glyph unicode="&#xb3;" horiz-adv-x="782" d="M291 1116l59 70q37 -16 68 -24.5t51 -8.5h45q74 0 112 55q26 38 26 80q0 19 -6 39q-17 63 -85 86l-94 2l-2 78l86 2q47 8 70 60q11 26 11 50.5t-11 47.5q-20 41 -76 53q-17 4 -36 4q-23 0 -46 -6q-43 -10 -64 -47l-77 49q61 84 196 84h12q66 0 115 -32t69 -78 q13 -30 12 -65q0 -18 -3 -38q-10 -57 -55 -104q66 -68 81 -143q5 -26 5 -50q0 -45 -19 -82q-29 -57 -89 -96t-136 -39h-15q-103 -1 -204 53z" />
<glyph unicode="&#xb4;" horiz-adv-x="2048" d="M582 1716l286 301l127 -149l-311 -248z" />
<glyph unicode="&#xb9;" horiz-adv-x="581" d="M266 1638l137 129l52 56l2 -119v-539h2v-80h-101v80l-2 445l-26 -29z" />
<glyph unicode="&#xba;" horiz-adv-x="1021" d="M97 659q50 98 159 164t254 66q147 0 253.5 -65.5t154.5 -164.5q46 -96 46 -209v-5q-1 -116 -50.5 -215t-158 -164.5t-253.5 -65.5q-147 0 -256 65.5t-156 164.5q-45 95 -45 206q0 121 52 223zM228 452q0 -71 28 -133q29 -63 93.5 -105t152.5 -42q135 0 215 88 q53 59 67 142q5 31 6 62q0 50 -15 96q-24 75 -94.5 128t-172.5 53q-88 0 -153.5 -43t-95.5 -105q-31 -64 -31 -141z" />
<glyph unicode="&#xbb;" horiz-adv-x="1239" d="M68 283l2 186l159 121l-159 108v179l415 -285zM492 287l2 188l159 119l-159 111v176l417 -283z" />
<glyph unicode="&#xbf;" horiz-adv-x="1122" d="M190 373q0 84 37 156.5t121 158.5l86 90q76 82 89.5 124t13.5 149l4 34l198 11l-2 -68q0 -119 -32.5 -186.5t-110.5 -147.5l-88 -94q-16 -18 -34.5 -34.5t-35 -38t-30 -42t-21.5 -44t-6 -48.5q6 -236 235 -235q63 0 108.5 19.5t69 48t54.5 61.5l86 -142 q-66 -74 -148 -109.5t-196 -35.5q-182 0 -290 102.5t-108 270.5zM520 1409q0 59 37 93t82 34t82 -33t37 -90q0 -55 -37 -87t-82 -33h-3q-43 0 -79 30q-37 31 -37 86z" />
<glyph unicode="&#xc0;" horiz-adv-x="1423" d="M428 1819l127 149l287 -301l-103 -96zM43 2l569 1341l62 154l84 -188l579 -1307h-194l-176 373h-564l-165 -373h-195zM477 545h412l-213 508z" />
<glyph unicode="&#xc1;" horiz-adv-x="1423" d="M473 1667l286 301l127 -149l-311 -248zM43 2l569 1341l62 154l84 -188l579 -1307h-194l-176 373h-564l-165 -373h-195zM477 545h412l-213 508z" />
<glyph unicode="&#xc2;" horiz-adv-x="1380" d="M377 1620l311 420l285 -418h-179l-108 160l-121 -160zM43 2l569 1341l62 154l84 -188l579 -1307h-194l-176 373h-564l-165 -373h-195zM477 545h412l-213 508z" />
<glyph unicode="&#xc3;" horiz-adv-x="1380" d="M444 1716q10 43 47 66.5t79 32.5q13 3 26 2q29 0 57 -13q41 -18 62 -61l-82 -41q-14 29 -43 32t-47.5 -18.5t-4.5 -50.5v-2l2 -2l-86 -39v2q-14 33 -13 63q0 15 3 29zM633 1702l82 41q14 -29 42.5 -32t47 18.5t4.5 50.5v2l-2 2l86 39v-2q14 -33 13 -63q0 -15 -3 -30 q-10 -43 -47 -66.5t-79 -31.5q-13 -3 -26 -2q-29 0 -57 12q-41 19 -61 62zM43 2l569 1341l62 154l84 -188l579 -1307h-194l-176 373h-564l-165 -373h-195zM477 545h412l-213 508z" />
<glyph unicode="&#xc4;" horiz-adv-x="1423" d="M43 2l569 1341l62 154l84 -188l579 -1307h-194l-176 373h-564l-165 -373h-195zM477 545h412l-213 508zM328 1649q0 55 36.5 87.5t82 32.5t82 -30.5t36.5 -85.5q0 -59 -36.5 -93t-82 -34t-82 33t-36.5 90zM836 1638q0 55 36.5 88t81.5 33t82 -30.5t37 -86.5 q0 -59 -37 -92.5t-82 -33.5t-81.5 32.5t-36.5 89.5z" />
<glyph unicode="&#xc5;" horiz-adv-x="1423" d="M530 1640q0 66 45 102q40 32 88 32h10q53 -4 98.5 -41t45.5 -97q0 -63 -45 -101t-99 -40h-5q-50 0 -93 37q-45 38 -45 108zM624 1642q0 -33 25 -46q12 -7 24.5 -6.5t25.5 6.5q26 13 26 49q0 31 -26 44q-12 6 -24 6q-13 0 -26 -7q-25 -15 -25 -46zM43 2l569 1341l62 154 l84 -188l579 -1307h-194l-176 373h-564l-165 -373h-195zM477 545h412l-213 508z" />
<glyph unicode="&#xc8;" horiz-adv-x="1060" d="M276 1819l127 149l287 -301l-103 -96zM111 0v1419h749v-174h-561v-401h401v-170h-401v-506h580v-168h-768z" />
<glyph unicode="&#xc9;" horiz-adv-x="1060" d="M318 1667l286 301l127 -149l-311 -248zM111 0v1419h749v-174h-561v-401h401v-170h-401v-506h580v-168h-768z" />
<glyph unicode="&#xca;" horiz-adv-x="989" d="M189 1570l311 420l285 -418h-179l-108 160l-121 -160zM111 0v1419h749v-174h-561v-401h401v-170h-401v-506h580v-168h-768z" />
<glyph unicode="&#xcb;" horiz-adv-x="989" d="M113 1704q0 55 36.5 87.5t82 32.5t82 -30.5t36.5 -85.5q0 -59 -36.5 -93t-82 -34t-82 33t-36.5 90zM621 1693q0 55 36.5 88t81.5 33t82 -30.5t37 -86.5q0 -59 -37 -92.5t-82 -33.5t-81.5 32.5t-36.5 89.5zM111 0v1419h749v-174h-561v-401h401v-170h-401v-506h580v-168 h-768z" />
<glyph unicode="&#xcc;" d="M-90 1819l127 149l287 -301l-103 -96zM119 1425h184l2 -1423h-184z" />
<glyph unicode="&#xcd;" d="M103 1667l286 301l127 -149l-311 -248zM119 1425h184l2 -1423h-184z" />
<glyph unicode="&#xce;" d="M-88 1570l311 420l285 -418h-179l-108 160l-121 -160zM119 1425h184l2 -1423h-184z" />
<glyph unicode="&#xcf;" d="M119 1704q0 55 36.5 87.5t82 32.5t82 -30.5t36.5 -85.5q0 -59 -36.5 -93t-82 -34t-82 33t-36.5 90zM627 1693q0 55 36.5 88t81.5 33t82 -30.5t37 -86.5q0 -59 -37 -92.5t-82 -33.5t-81.5 32.5t-36.5 89.5zM400 1425h184l2 -1423h-184z" />
<glyph unicode="&#xd1;" horiz-adv-x="1323" d="M-111 1665q10 43 47 66.5t79 32.5q13 3 26 2q29 0 57 -13q41 -18 62 -61l-82 -41q-14 29 -43 32t-47.5 -18.5t-4.5 -50.5v-2l2 -2l-86 -39v2q-14 33 -13 63q0 15 3 29zM78 1651l82 41q14 -29 42.5 -32t47 18.5t4.5 50.5v2l-2 2l86 39v-2q14 -33 13 -63q0 -15 -3 -30 q-10 -43 -47 -66.5t-79 -31.5q-13 -3 -26 -2q-29 0 -57 12q-41 19 -61 62zM119 6v1428l911 -1016l-6 1007h180v-1482l-907 1013v-950h-178z" />
<glyph unicode="&#xd2;" horiz-adv-x="1540" d="M428 1819l127 149l287 -301l-103 -96zM51 721q0 137 44 267t127 232.5t217 165t300 62.5q182 0 328.5 -63.5t237 -166t138.5 -233.5q47 -128 47 -262q0 -139 -49 -271q-48 -130 -137.5 -231.5t-232.5 -164t-317 -62.5q-170 0 -307.5 62.5t-221.5 165t-129 232.5t-45 267z M242 725q2 -104 36.5 -205.5t96 -179.5t161 -126t222.5 -48q125 0 229.5 48t169 127t98.5 180q36 104 36 213q0 102 -36 200q-37 100 -103.5 179t-176.5 126q-106 45 -238 45h-12q-119 0 -214 -48t-152.5 -127t-88.5 -179q-29 -94 -28 -192v-13z" />
<glyph unicode="&#xd3;" horiz-adv-x="1540" d="M637 1667l286 301l127 -149l-311 -248zM51 721q0 137 44 267t127 232.5t217 165t300 62.5q182 0 328.5 -63.5t237 -166t138.5 -233.5q47 -128 47 -262q0 -139 -49 -271q-48 -130 -137.5 -231.5t-232.5 -164t-317 -62.5q-170 0 -307.5 62.5t-221.5 165t-129 232.5t-45 267 zM242 725q2 -104 36.5 -205.5t96 -179.5t161 -126t222.5 -48q125 0 229.5 48t169 127t98.5 180q36 104 36 213q0 102 -36 200q-37 100 -103.5 179t-176.5 126q-106 45 -238 45h-12q-119 0 -214 -48t-152.5 -127t-88.5 -179q-29 -94 -28 -192v-13z" />
<glyph unicode="&#xd4;" horiz-adv-x="1540" d="M443 1570l311 420l285 -418h-179l-108 160l-121 -160zM51 721q0 137 44 267t127 232.5t217 165t300 62.5q182 0 328.5 -63.5t237 -166t138.5 -233.5q47 -128 47 -262q0 -139 -49 -271q-48 -130 -137.5 -231.5t-232.5 -164t-317 -62.5q-170 0 -307.5 62.5t-221.5 165 t-129 232.5t-45 267zM242 725q2 -104 36.5 -205.5t96 -179.5t161 -126t222.5 -48q125 0 229.5 48t169 127t98.5 180q36 104 36 213q0 102 -36 200q-37 100 -103.5 179t-176.5 126q-106 45 -238 45h-12q-119 0 -214 -48t-152.5 -127t-88.5 -179q-29 -94 -28 -192v-13z" />
<glyph unicode="&#xd5;" horiz-adv-x="1540" d="M510 1667q10 43 47 66.5t79 32.5q13 3 26 2q29 0 57 -13q41 -18 62 -61l-82 -41q-14 29 -43 32t-47.5 -18.5t-4.5 -50.5v-2l2 -2l-86 -39v2q-14 33 -13 63q0 15 3 29zM699 1653l82 41q14 -29 42.5 -32t47 18.5t4.5 50.5v2l-2 2l86 39v-2q14 -33 13 -63q0 -15 -3 -30 q-10 -43 -47 -66.5t-79 -31.5q-13 -3 -26 -2q-29 0 -57 12q-41 19 -61 62zM51 721q0 137 44 267t127 232.5t217 165t300 62.5q182 0 328.5 -63.5t237 -166t138.5 -233.5q47 -128 47 -262q0 -139 -49 -271q-48 -130 -137.5 -231.5t-232.5 -164t-317 -62.5q-170 0 -307.5 62.5 t-221.5 165t-129 232.5t-45 267zM242 725q2 -104 36.5 -205.5t96 -179.5t161 -126t222.5 -48q125 0 229.5 48t169 127t98.5 180q36 104 36 213q0 102 -36 200q-37 100 -103.5 179t-176.5 126q-106 45 -238 45h-12q-119 0 -214 -48t-152.5 -127t-88.5 -179q-29 -94 -28 -192 v-13z" />
<glyph unicode="&#xd6;" horiz-adv-x="1662" d="M51 721q0 137 44 267t127 232.5t217 165t300 62.5q182 0 328.5 -63.5t237 -166t138.5 -233.5q47 -128 47 -262q0 -139 -49 -271q-48 -130 -137.5 -231.5t-232.5 -164t-317 -62.5q-170 0 -307.5 62.5t-221.5 165t-129 232.5t-45 267zM242 725q2 -104 36.5 -205.5 t96 -179.5t161 -126t222.5 -48q125 0 229.5 48t169 127t98.5 180q36 104 36 213q0 102 -36 200q-37 100 -103.5 179t-176.5 126q-106 45 -238 45h-12q-119 0 -214 -48t-152.5 -127t-88.5 -179q-29 -94 -28 -192v-13zM381 1649q0 55 37 87.5t82 32.5t81.5 -30.5t36.5 -85.5 q0 -59 -36.5 -93t-81.5 -34t-82 33t-37 90zM815 -6zM889 1638q0 55 37 88t82 33t81.5 -30.5t36.5 -86.5q0 -59 -36.5 -92.5t-81.5 -33.5t-82 32.5t-37 89.5z" />
<glyph unicode="&#xd7;" horiz-adv-x="1013" d="M162 944l131 131l209 -209l196 201l131 -131l-196 -199l225 -223l-131 -131l-225 223l-201 -205l-131 131l207 207z" />
<glyph unicode="&#xd9;" horiz-adv-x="1212" d="M106 1399l191 4l4 -858q0 -86 25.5 -158t67.5 -116t96.5 -67.5t110.5 -23.5t110.5 24.5t97.5 68.5t69.5 117t28.5 163l4 -4l-2 848h187l8 -854v-12q0 -126 -41 -227q-43 -105 -113.5 -169.5t-162.5 -98.5q-86 -32 -175 -32h-11q-95 2 -185 38t-160 100.5t-110 168.5 q-36 95 -36 207q0 11 1 23zM303 1819l127 149l287 -301l-103 -96z" />
<glyph unicode="&#xda;" horiz-adv-x="1212" d="M106 1399l191 4l4 -858q0 -86 25.5 -158t67.5 -116t96.5 -67.5t110.5 -23.5t110.5 24.5t97.5 68.5t69.5 117t28.5 163l4 -4l-2 848h187l8 -854v-12q0 -126 -41 -227q-43 -105 -113.5 -169.5t-162.5 -98.5q-86 -32 -175 -32h-11q-95 2 -185 38t-160 100.5t-110 168.5 q-36 95 -36 207q0 11 1 23zM523 1667l286 301l127 -149l-311 -248z" />
<glyph unicode="&#xdb;" horiz-adv-x="1212" d="M106 1399l191 4l4 -858q0 -86 25.5 -158t67.5 -116t96.5 -67.5t110.5 -23.5t110.5 24.5t97.5 68.5t69.5 117t28.5 163l4 -4l-2 848h187l8 -854v-12q0 -126 -41 -227q-43 -105 -113.5 -169.5t-162.5 -98.5q-86 -32 -175 -32h-11q-95 2 -185 38t-160 100.5t-110 168.5 q-36 95 -36 207q0 11 1 23zM312 1570l311 420l285 -418h-179l-108 160l-121 -160z" />
<glyph unicode="&#xdc;" horiz-adv-x="1212" d="M106 1399l191 4l4 -858q0 -86 25.5 -158t67.5 -116t96.5 -67.5t110.5 -23.5t110.5 24.5t97.5 68.5t69.5 117t28.5 163l4 -4l-2 848h187l8 -854v-12q0 -126 -41 -227q-43 -105 -113.5 -169.5t-162.5 -98.5q-86 -32 -175 -32h-11q-95 2 -185 38t-160 100.5t-110 168.5 q-36 95 -36 207q0 11 1 23zM246 1649q0 55 36.5 87.5t82 32.5t82 -30.5t36.5 -85.5q0 -59 -36.5 -93t-82 -34t-82 33t-36.5 90zM754 1638q0 55 36.5 88t81.5 33t82 -30.5t37 -86.5q0 -59 -37 -92.5t-82 -33.5t-81.5 32.5t-36.5 89.5z" />
<glyph unicode="&#xdd;" horiz-adv-x="1236" d="M516 1667l286 301l127 -149l-311 -248zM33 1417h217l373 -561l364 561h217l-479 -733v-678l-217 -6l14 676h2z" />
<glyph unicode="&#xdf;" horiz-adv-x="1058" d="M90 0v1409h410l6 -4h10q86 0 156 -34q74 -36 115.5 -93t59.5 -130q11 -44 10 -86q0 -27 -4 -54q-11 -68 -55 -127.5t-116 -89.5q-2 0 -2 -3.5t2 -3.5q94 -4 162.5 -64.5t98.5 -148.5q24 -71 24 -150q0 -19 -1 -39q-7 -101 -51.5 -187t-138.5 -142q-88 -51 -204 -51h-17 l-20 -2h-189v195h236q80 0 131 49t59 121q3 23 3 45q0 49 -12 97q-17 71 -72.5 122t-131.5 53v2h-213v143q29 0 87.5 3.5t64.5 3.5q74 10 121 56t55 106q3 20 3 41q0 40 -11 79q-16 59 -69.5 100t-129.5 44v2h-199l-2 -1262h-76v2z" />
<glyph unicode="&#xe0;" horiz-adv-x="1042" d="M291 1256l127 149l287 -301l-103 -96zM68 424q0 115 38.5 207t104 147.5t147.5 83.5q70 24 143 25q13 0 26 -1q87 -5 163 -40q47 -20 68 -53v81h190l-2 -874h-186v63q-76 -51 -169 -69q-44 -9 -88 -9q-48 0 -95 11q-90 20 -166 70.5t-124 143.5t-50 214zM244 430 q0 -92 44 -160.5t111 -93.5q65 -24 133 -23h6q71 1 130 47t80 122q7 25 6 82v31q-2 83 -6 110q-18 70 -63.5 113.5t-101.5 58.5q-32 8 -65 8q-26 0 -52 -5q-60 -11 -109.5 -47t-81 -99.5t-31.5 -143.5z" />
<glyph unicode="&#xe1;" horiz-adv-x="1042" d="M402 1108l286 301l127 -149l-311 -248zM68 424q0 115 38.5 207t104 147.5t147.5 83.5q70 24 143 25q13 0 26 -1q87 -5 163 -40q47 -20 68 -53v81h190l-2 -874h-186v63q-76 -51 -169 -69q-44 -9 -88 -9q-48 0 -95 11q-90 20 -166 70.5t-124 143.5t-50 214zM244 430 q0 -92 44 -160.5t111 -93.5q65 -24 133 -23h6q71 1 130 47t80 122q7 25 6 82v31q-2 83 -6 110q-18 70 -63.5 113.5t-101.5 58.5q-32 8 -65 8q-26 0 -52 -5q-60 -11 -109.5 -47t-81 -99.5t-31.5 -143.5z" />
<glyph unicode="&#xe2;" horiz-adv-x="1042" d="M207 1011l311 420l285 -418h-179l-108 160l-121 -160zM68 424q0 115 38.5 207t104 147.5t147.5 83.5q70 24 143 25q13 0 26 -1q87 -5 163 -40q47 -20 68 -53v81h190l-2 -874h-186v63q-76 -51 -169 -69q-44 -9 -88 -9q-48 0 -95 11q-90 20 -166 70.5t-124 143.5t-50 214z M244 430q0 -92 44 -160.5t111 -93.5q65 -24 133 -23h6q71 1 130 47t80 122q7 25 6 82v31q-2 83 -6 110q-18 70 -63.5 113.5t-101.5 58.5q-32 8 -65 8q-26 0 -52 -5q-60 -11 -109.5 -47t-81 -99.5t-31.5 -143.5z" />
<glyph unicode="&#xe3;" horiz-adv-x="1042" d="M274 1108q10 43 47 66.5t79 32.5q13 3 26 2q29 0 57 -13q41 -18 62 -61l-82 -41q-14 29 -43 32t-47.5 -18.5t-4.5 -50.5v-2l2 -2l-86 -39v2q-14 33 -13 63q0 15 3 29zM463 1094l82 41q14 -29 42.5 -32t47 18.5t4.5 50.5v2l-2 2l86 39v-2q14 -33 13 -63q0 -15 -3 -30 q-10 -43 -47 -66.5t-79 -31.5q-13 -3 -26 -2q-29 0 -57 12q-41 19 -61 62zM68 424q0 115 38.5 207t104 147.5t147.5 83.5q70 24 143 25q13 0 26 -1q87 -5 163 -40q47 -20 68 -53v81h190l-2 -874h-186v63q-76 -51 -169 -69q-44 -9 -88 -9q-48 0 -95 11q-90 20 -166 70.5 t-124 143.5t-50 214zM244 430q0 -92 44 -160.5t111 -93.5q65 -24 133 -23h6q71 1 130 47t80 122q7 25 6 82v31q-2 83 -6 110q-18 70 -63.5 113.5t-101.5 58.5q-32 8 -65 8q-26 0 -52 -5q-60 -11 -109.5 -47t-81 -99.5t-31.5 -143.5z" />
<glyph unicode="&#xe4;" horiz-adv-x="1015" d="M68 424q0 115 38.5 207t104 147.5t147.5 83.5q70 24 143 25q13 0 26 -1q87 -5 163 -40q47 -20 68 -53v81h190l-2 -874h-186v63q-76 -51 -169 -69q-44 -9 -88 -9q-48 0 -95 11q-90 20 -166 70.5t-124 143.5t-50 214zM244 430q0 -92 44 -160.5t111 -93.5q65 -24 133 -23h6 q71 1 130 47t80 122q7 25 6 82v31q-2 83 -6 110q-18 70 -63.5 113.5t-101.5 58.5q-32 8 -65 8q-26 0 -52 -5q-60 -11 -109.5 -47t-81 -99.5t-31.5 -143.5zM166 1174q0 55 36.5 87.5t82 32.5t82 -30.5t36.5 -85.5q0 -59 -36.5 -93t-82 -34t-82 33t-36.5 90zM674 1163 q0 55 36.5 88t81.5 33t82 -30.5t37 -86.5q0 -59 -37 -92.5t-82 -33.5t-81.5 32.5t-36.5 89.5z" />
<glyph unicode="&#xe5;" horiz-adv-x="1015" d="M381 1189q0 66 45 102q40 32 88 32h10q53 -4 98.5 -41t45.5 -97q0 -63 -45 -101t-99 -40h-5q-50 0 -93 37q-45 38 -45 108zM475 1191q0 -33 25 -46q12 -7 24.5 -6.5t25.5 6.5q26 13 26 49q0 31 -26 44q-12 6 -24 6q-13 0 -26 -7q-25 -15 -25 -46zM68 424q0 115 38.5 207 t104 147.5t147.5 83.5q70 24 143 25q13 0 26 -1q87 -5 163 -40q47 -20 68 -53v81h190l-2 -874h-186v63q-76 -51 -169 -69q-44 -9 -88 -9q-48 0 -95 11q-90 20 -166 70.5t-124 143.5t-50 214zM244 430q0 -92 44 -160.5t111 -93.5q65 -24 133 -23h6q71 1 130 47t80 122 q7 25 6 82v31q-2 83 -6 110q-18 70 -63.5 113.5t-101.5 58.5q-32 8 -65 8q-26 0 -52 -5q-60 -11 -109.5 -47t-81 -99.5t-31.5 -143.5z" />
<glyph unicode="&#xe8;" horiz-adv-x="962" d="M201 1260l127 149l287 -301l-103 -96zM112 628q38 89 120.5 157.5t193.5 91.5q55 10 115 10q55 0 102 -8q123 -25 197.5 -107t95.5 -185q10 -52 10 -106.5t-10 -111.5l-666 -2q25 -86 83.5 -131.5t183.5 -55.5q25 -4 56.5 -1t84.5 22.5t92 56.5l2 2l154 -92v-2 q-57 -74 -168 -125q-59 -29 -148 -39q-41 -4 -82 -4q-55 0 -104 8q-115 23 -197 89.5t-118 154.5q-36 86 -36 183q0 103 39 195zM274 514l490 2q-18 213 -225 213q-115 0 -185 -65.5t-80 -149.5z" />
<glyph unicode="&#xe9;" horiz-adv-x="962" d="M408 1108l286 301l127 -149l-311 -248zM112 628q38 89 120.5 157.5t193.5 91.5q55 10 115 10q55 0 102 -8q123 -25 197.5 -107t95.5 -185q10 -52 10 -106.5t-10 -111.5l-666 -2q25 -86 83.5 -131.5t183.5 -55.5q25 -4 56.5 -1t84.5 22.5t92 56.5l2 2l154 -92v-2 q-57 -74 -168 -125q-59 -29 -148 -39q-41 -4 -82 -4q-55 0 -104 8q-115 23 -197 89.5t-118 154.5q-36 86 -36 183q0 103 39 195zM274 514l490 2q-18 213 -225 213q-115 0 -185 -65.5t-80 -149.5z" />
<glyph unicode="&#xea;" horiz-adv-x="1024" d="M244 1011l311 420l285 -418h-179l-108 160l-121 -160zM112 628q38 89 120.5 157.5t193.5 91.5q55 10 115 10q55 0 102 -8q123 -25 197.5 -107t95.5 -185q10 -52 10 -106.5t-10 -111.5l-666 -2q25 -86 83.5 -131.5t183.5 -55.5q25 -4 56.5 -1t84.5 22.5t92 56.5l2 2 l154 -92v-2q-57 -74 -168 -125q-59 -29 -148 -39q-41 -4 -82 -4q-55 0 -104 8q-115 23 -197 89.5t-118 154.5q-36 86 -36 183q0 103 39 195zM274 514l490 2q-18 213 -225 213q-115 0 -185 -65.5t-80 -149.5z" />
<glyph unicode="&#xeb;" horiz-adv-x="1024" d="M170 1145q0 55 36.5 87.5t82 32.5t82 -30.5t36.5 -85.5q0 -59 -36.5 -93t-82 -34t-82 33t-36.5 90zM678 1134q0 55 36.5 88t81.5 33t82 -30.5t37 -86.5q0 -59 -37 -92.5t-82 -33.5t-81.5 32.5t-36.5 89.5zM112 628q38 89 120.5 157.5t193.5 91.5q55 10 115 10 q55 0 102 -8q123 -25 197.5 -107t95.5 -185q10 -52 10 -106.5t-10 -111.5l-666 -2q25 -86 83.5 -131.5t183.5 -55.5q25 -4 56.5 -1t84.5 22.5t92 56.5l2 2l154 -92v-2q-57 -74 -168 -125q-59 -29 -148 -39q-41 -4 -82 -4q-55 0 -104 8q-115 23 -197 89.5t-118 154.5 q-36 86 -36 183q0 103 39 195zM274 514l490 2q-18 213 -225 213q-115 0 -185 -65.5t-80 -149.5z" />
<glyph unicode="&#xec;" d="M-96 1260l127 149l287 -301l-103 -96zM121 887h188v-891h-184z" />
<glyph unicode="&#xed;" d="M113 1108l286 301l127 -149l-311 -248zM121 887h188v-891h-184z" />
<glyph unicode="&#xee;" d="M-84 1011l311 420l285 -418h-179l-108 160l-121 -160zM121 887h188v-891h-184z" />
<glyph unicode="&#xef;" d="M121 1145q0 55 36.5 87.5t82 32.5t82 -30.5t36.5 -85.5q0 -59 -36.5 -93t-82 -34t-82 33t-36.5 90zM629 1134q0 55 36.5 88t81.5 33t82 -30.5t37 -86.5q0 -59 -37 -92.5t-82 -33.5t-81.5 32.5t-36.5 89.5zM400 887h188v-891h-184z" />
<glyph unicode="&#xf1;" horiz-adv-x="872" d="M219 1106q10 43 47 66.5t79 32.5q13 3 26 2q29 0 57 -13q41 -18 62 -61l-82 -41q-14 29 -43 32t-47.5 -18.5t-4.5 -50.5v-2l2 -2l-86 -39v2q-14 33 -13 63q0 15 3 29zM408 1092l82 41q14 -29 42.5 -32t47 18.5t4.5 50.5v2l-2 2l86 39v-2q14 -33 13 -63q0 -15 -3 -30 q-10 -43 -47 -66.5t-79 -31.5q-13 -3 -26 -2q-29 0 -57 12q-41 19 -61 62zM72 879h190v-68q10 6 94 49q39 18 152 19q176 0 247.5 -105.5t71.5 -302.5l-2 -471h-192v134q0 67 1 142.5t1 212.5q0 80 -28.5 135.5t-70.5 77.5q-37 20 -80 20h-12q-49 -3 -92 -28.5t-70.5 -77 t-27.5 -116.5l4 -500h-184z" />
<glyph unicode="&#xf2;" horiz-adv-x="1021" d="M201 1260l127 149l287 -301l-103 -96zM97 659q50 98 159 164t254 66q147 0 253.5 -65.5t154.5 -164.5q46 -96 46 -209v-5q-1 -116 -50.5 -215t-158 -164.5t-253.5 -65.5q-147 0 -256 65.5t-156 164.5q-45 95 -45 206q0 121 52 223zM228 452q0 -71 28 -133 q29 -63 93.5 -105t152.5 -42q135 0 215 88q53 59 67 142q5 31 6 62q0 50 -15 96q-24 75 -94.5 128t-172.5 53q-88 0 -153.5 -43t-95.5 -105q-31 -64 -31 -141z" />
<glyph unicode="&#xf3;" horiz-adv-x="1021" d="M408 1108l286 301l127 -149l-311 -248zM97 659q50 98 159 164t254 66q147 0 253.5 -65.5t154.5 -164.5q46 -96 46 -209v-5q-1 -116 -50.5 -215t-158 -164.5t-253.5 -65.5q-147 0 -256 65.5t-156 164.5q-45 95 -45 206q0 121 52 223zM228 452q0 -71 28 -133 q29 -63 93.5 -105t152.5 -42q135 0 215 88q53 59 67 142q5 31 6 62q0 50 -15 96q-24 75 -94.5 128t-172.5 53q-88 0 -153.5 -43t-95.5 -105q-31 -64 -31 -141z" />
<glyph unicode="&#xf4;" horiz-adv-x="1021" d="M213 1011l311 420l285 -418h-179l-108 160l-121 -160zM97 659q50 98 159 164t254 66q147 0 253.5 -65.5t154.5 -164.5q46 -96 46 -209v-5q-1 -116 -50.5 -215t-158 -164.5t-253.5 -65.5q-147 0 -256 65.5t-156 164.5q-45 95 -45 206q0 121 52 223zM228 452q0 -71 28 -133 q29 -63 93.5 -105t152.5 -42q135 0 215 88q53 59 67 142q5 31 6 62q0 50 -15 96q-24 75 -94.5 128t-172.5 53q-88 0 -153.5 -43t-95.5 -105q-31 -64 -31 -141z" />
<glyph unicode="&#xf5;" horiz-adv-x="1021" d="M274 1108q10 43 47 66.5t79 32.5q13 3 26 2q29 0 57 -13q41 -18 62 -61l-82 -41q-14 29 -43 32t-47.5 -18.5t-4.5 -50.5v-2l2 -2l-86 -39v2q-14 33 -13 63q0 15 3 29zM463 1094l82 41q14 -29 42.5 -32t47 18.5t4.5 50.5v2l-2 2l86 39v-2q14 -33 13 -63q0 -15 -3 -30 q-10 -43 -47 -66.5t-79 -31.5q-13 -3 -26 -2q-29 0 -57 12q-41 19 -61 62zM97 659q50 98 159 164t254 66q147 0 253.5 -65.5t154.5 -164.5q46 -96 46 -209v-5q-1 -116 -50.5 -215t-158 -164.5t-253.5 -65.5q-147 0 -256 65.5t-156 164.5q-45 95 -45 206q0 121 52 223z M228 452q0 -71 28 -133q29 -63 93.5 -105t152.5 -42q135 0 215 88q53 59 67 142q5 31 6 62q0 50 -15 96q-24 75 -94.5 128t-172.5 53q-88 0 -153.5 -43t-95.5 -105q-31 -64 -31 -141z" />
<glyph unicode="&#xf6;" horiz-adv-x="1161" d="M97 659q50 98 159 164t254 66q147 0 253.5 -65.5t154.5 -164.5q46 -96 46 -209v-5q-1 -116 -50.5 -215t-158 -164.5t-253.5 -65.5q-147 0 -256 65.5t-156 164.5q-45 95 -45 206q0 121 52 223zM228 452q0 -71 28 -133q29 -63 93.5 -105t152.5 -42q135 0 215 88 q53 59 67 142q5 31 6 62q0 50 -15 96q-24 75 -94.5 128t-172.5 53q-88 0 -153.5 -43t-95.5 -105q-31 -64 -31 -141zM152 1176q0 55 36.5 87.5t82 32.5t82 -30.5t36.5 -85.5q0 -59 -36.5 -93t-82 -34t-82 33t-36.5 90zM660 1165q0 55 36.5 88t81.5 33t82 -30.5t37 -86.5 q0 -59 -37 -92.5t-82 -33.5t-81.5 32.5t-36.5 89.5z" />
<glyph unicode="&#xf9;" horiz-adv-x="966" d="M84 408q0 143 1 223t1 99v56v93h193v-490q0 -80 27.5 -130t69.5 -65q24 -9 50 -9q19 0 40 4q48 11 90 44t70.5 88.5t28.5 120.5l-2 437h187l2 -879h-191l-4 131q-16 -10 -51 -49t-55 -49q-66 -33 -135 -33q-178 0 -250 105.5t-72 302.5zM153 1260l127 149l287 -301 l-103 -96z" />
<glyph unicode="&#xfa;" horiz-adv-x="966" d="M84 408q0 143 1 223t1 99v56v93h193v-490q0 -80 27.5 -130t69.5 -65q24 -9 50 -9q19 0 40 4q48 11 90 44t70.5 88.5t28.5 120.5l-2 437h187l2 -879h-191l-4 131q-16 -10 -51 -49t-55 -49q-66 -33 -135 -33q-178 0 -250 105.5t-72 302.5zM369 1108l286 301l127 -149 l-311 -248z" />
<glyph unicode="&#xfb;" horiz-adv-x="966" d="M84 408q0 143 1 223t1 99v56v93h193v-490q0 -80 27.5 -130t69.5 -65q24 -9 50 -9q19 0 40 4q48 11 90 44t70.5 88.5t28.5 120.5l-2 437h187l2 -879h-191l-4 131q-16 -10 -51 -49t-55 -49q-66 -33 -135 -33q-178 0 -250 105.5t-72 302.5zM170 1011l311 420l285 -418h-179 l-108 160l-121 -160z" />
<glyph unicode="&#xfc;" horiz-adv-x="966" d="M88 1151q0 55 36.5 87.5t82 32.5t82 -30.5t36.5 -85.5q0 -59 -36.5 -93t-82 -34t-82 33t-36.5 90zM596 1140q0 55 36.5 88t81.5 33t82 -30.5t37 -86.5q0 -59 -37 -92.5t-82 -33.5t-81.5 32.5t-36.5 89.5zM84 408q0 143 1 223t1 99v56v93h193v-490q0 -80 27.5 -130 t69.5 -65q24 -9 50 -9q19 0 40 4q48 11 90 44t70.5 88.5t28.5 120.5l-2 437h187l2 -879h-191l-4 131q-16 -10 -51 -49t-55 -49q-66 -33 -135 -33q-178 0 -250 105.5t-72 302.5z" />
<glyph unicode="&#xfd;" horiz-adv-x="946" />
<glyph unicode="&#xff;" horiz-adv-x="946" d="M367 1145q0 55 36.5 87.5t82 32.5t82 -30.5t36.5 -85.5q0 -59 -36.5 -93t-82 -34t-82 33t-36.5 90zM875 1134q0 55 36.5 88t81.5 33t82 -30.5t37 -86.5q0 -59 -37 -92.5t-82 -33.5t-81.5 32.5t-36.5 89.5zM39 874l197 3l241 -506l262 510l187 -2l-627 -1289h-219l295 564 z" />
<glyph unicode="&#x131;" d="M121 887h188v-891h-184z" />
<glyph unicode="&#x152;" horiz-adv-x="2529" d="M1651 0v1419h749v-174h-561v-401h401v-170h-401v-506h580v-168h-768zM51 721q0 137 44 267t127 232.5t217 165t300 62.5q182 0 328.5 -63.5t237 -166t138.5 -233.5q47 -128 47 -262q0 -139 -49 -271q-48 -130 -137.5 -231.5t-232.5 -164t-317 -62.5q-170 0 -307.5 62.5 t-221.5 165t-129 232.5t-45 267zM242 725q2 -104 36.5 -205.5t96 -179.5t161 -126t222.5 -48q125 0 229.5 48t169 127t98.5 180q36 104 36 213q0 102 -36 200q-37 100 -103.5 179t-176.5 126q-106 45 -238 45h-12q-119 0 -214 -48t-152.5 -127t-88.5 -179q-29 -94 -28 -192 v-13z" />
<glyph unicode="&#x153;" horiz-adv-x="2045" d="M1134 628q38 89 120.5 157.5t193.5 91.5q55 10 115 10q55 0 102 -8q123 -25 197.5 -107t95.5 -185q10 -52 10 -106.5t-10 -111.5l-666 -2q25 -86 83.5 -131.5t183.5 -55.5q25 -4 56.5 -1t84.5 22.5t92 56.5l2 2l154 -92v-2q-57 -74 -168 -125q-59 -29 -148 -39 q-41 -4 -82 -4q-55 0 -104 8q-115 23 -197 89.5t-118 154.5q-36 86 -36 183q0 103 39 195zM1296 514l490 2q-18 213 -225 213q-115 0 -185 -65.5t-80 -149.5zM97 659q50 98 159 164t254 66q147 0 253.5 -65.5t154.5 -164.5q46 -96 46 -209v-5q-1 -116 -50.5 -215 t-158 -164.5t-253.5 -65.5q-147 0 -256 65.5t-156 164.5q-45 95 -45 206q0 121 52 223zM228 452q0 -71 28 -133q29 -63 93.5 -105t152.5 -42q135 0 215 88q53 59 67 142q5 31 6 62q0 50 -15 96q-24 75 -94.5 128t-172.5 53q-88 0 -153.5 -43t-95.5 -105q-31 -64 -31 -141z " />
<glyph unicode="&#x178;" horiz-adv-x="1236" d="M246 1704q0 55 36.5 87.5t82 32.5t82 -30.5t36.5 -85.5q0 -59 -36.5 -93t-82 -34t-82 33t-36.5 90zM754 1693q0 55 36.5 88t81.5 33t82 -30.5t37 -86.5q0 -59 -37 -92.5t-82 -33.5t-81.5 32.5t-36.5 89.5zM33 1417h217l373 -561l364 561h217l-479 -733v-678l-217 -6 l14 676h2z" />
<glyph unicode="&#x2c6;" horiz-adv-x="1239" d="M322 1083l311 420l285 -418h-179l-108 160l-121 -160z" />
<glyph unicode="&#x2dc;" horiz-adv-x="718" d="M-230 217q10 43 47 66.5t79 32.5q13 3 26 2q29 0 57 -13q41 -18 62 -61l-82 -41q-14 29 -43 32t-47.5 -18.5t-4.5 -50.5v-2l2 -2l-86 -39v2q-14 33 -13 63q0 15 3 29zM-41 203l82 41q14 -29 42.5 -32t47 18.5t4.5 50.5v2l-2 2l86 39v-2q14 -33 13 -63q0 -15 -3 -30 q-10 -43 -47 -66.5t-79 -31.5q-13 -3 -26 -2q-29 0 -57 12q-41 19 -61 62z" />
<glyph unicode="&#x2013;" horiz-adv-x="1024" d="M100 444v187h858v-187h-858z" />
<glyph unicode="&#x2014;" horiz-adv-x="2048" d="M100 444v187h1882v-187h-1882z" />
<glyph unicode="&#x2018;" horiz-adv-x="382" d="M82 1262q-1 10 -1 20q0 81 45 150q50 78 105 96q-23 -33 -24 -107v-11q0 -65 22 -89q31 -23 31 -51q1 -8 1 -15q0 -30 -20 -54q-26 -30 -59 -39q-9 -3 -17 -2q-23 0 -46 18q-31 25 -37 84z" />
<glyph unicode="&#x2019;" horiz-adv-x="382" d="M115 1397q-2 10 -2 20q0 27 16 50q23 32 54 43q11 4 22 4q21 0 43 -15q33 -23 43 -80q3 -20 2 -39q0 -69 -34 -133q-44 -82 -95 -104q15 27 15 82q0 12 -1 26q-4 76 -31 97q-30 20 -32 49z" />
<glyph unicode="&#x201c;" horiz-adv-x="598" d="M82 1262q-1 10 -1 20q0 81 45 150q50 78 105 96q-23 -33 -24 -107v-11q0 -65 22 -89q31 -23 31 -51q1 -8 1 -15q0 -30 -20 -54q-26 -30 -59 -39q-9 -3 -17 -2q-23 0 -46 18q-31 25 -37 84zM332 1266q0 7 -1 14q0 84 46 156q49 78 104 96q-24 -32 -23 -112q0 -69 21 -93 q31 -23 33 -53q1 -5 1 -11q0 -31 -21 -57q-25 -31 -59 -39q-8 -2 -17 -2q-25 0 -47 19q-31 25 -37 82z" />
<glyph unicode="&#x201d;" horiz-adv-x="733" d="M115 1397q-2 10 -2 20q0 27 16 50q23 32 54 43q11 4 22 4q21 0 43 -15q33 -23 43 -80q3 -20 2 -39q0 -69 -34 -133q-44 -82 -95 -104q15 27 15 82q0 12 -1 26q-4 76 -31 97q-30 20 -32 49zM391 1403q-2 10 -2 19q0 26 17 51q23 33 54 43q10 3 20 3q22 0 44 -15 q33 -22 43 -79q3 -20 3 -39q0 -70 -34 -134q-44 -81 -96 -105q15 27 15 82v26q-4 76 -31 99q-31 20 -33 49z" />
<glyph unicode="&#x2026;" horiz-adv-x="1167" d="M809 123q0 55 36.5 87t82.5 33h2q43 0 79 -30q37 -31 37 -86q0 -59 -36.5 -93t-82 -34t-82 33t-36.5 90zM420 123q0 55 36.5 87t82.5 33h2q43 0 79 -30q37 -31 37 -86q0 -59 -36.5 -93t-82 -34t-82 33t-36.5 90zM31 123q0 55 36.5 87t82.5 33h2q43 0 79 -30 q37 -31 37 -86q0 -59 -36.5 -93t-82 -34t-82 33t-36.5 90z" />
<glyph unicode="&#x2039;" horiz-adv-x="1265" d="M170 766l121 57l805 398v-205l-514 -256l503 -271l-2 -210l-757 399z" />
<glyph unicode="&#x203a;" horiz-adv-x="1265" d="M170 1016v205l805 -398l121 -57l-156 -88l-758 -399l-2 210l504 271z" />
<glyph unicode="&#x20ac;" horiz-adv-x="1464" d="M51 432l62 168h1052l-61 -168h-1053zM63 768l54 164h1155l-66 -164h-1143zM246 437q-39 108 -39 221q0 161 80 331q100 215 299 335q183 110 392 110h36q119 -4 260 -62q78 -33 117 -59l-58 -172q-23 43 -119 82q-74 31 -202 34q-10 0 -20 1q-156 0 -303 -92 q-157 -97 -230 -255q-55 -118 -55 -234q0 -91 33 -179q77 -203 290 -301q104 -49 219 -52h12q108 0 204 35q101 37 196 107v-203q-90 -82 -153.5 -95.5t-182.5 -20.5q-38 -2 -74 -2q-78 0 -150 10q-105 15 -173 51q-285 147 -379 410z" />
<glyph unicode="&#x2122;" horiz-adv-x="2506" d="M1096 -2l72 1483l592 -805l583 797l72 -1481h-176l-64 944l-415 -547l-424 553l-64 -944h-176zM33 1241v164h938v-164l-373 -2l-8 -1239h-189v2l7 1237z" />
<glyph unicode="&#xe000;" horiz-adv-x="875" d="M0 875h875v-875h-875v875z" />
<glyph unicode="&#xfb01;" horiz-adv-x="1159" d="M839 1116q0 47 34 75t74 29h3q38 0 71 -26q34 -27 33 -76q0 -51 -33.5 -80.5t-73.5 -29.5t-74 28.5t-34 79.5zM856 887h188v-891h-184zM63 709v155h111q0 125 31 218.5t81 141.5t102 69.5t106 21.5q35 0 61.5 -7.5t53 -18.5t42.5 -15l-98 -154l-35 19q-82 0 -116.5 -59.5 t-34.5 -215.5h211v-159h-218l2 -705h-196v709h-103z" />
<glyph unicode="&#xfb02;" horiz-adv-x="1165" d="M854 0v1602h192l-2 -1115v-487h-190zM63 709v155h111q0 125 31 218.5t81 141.5t102 69.5t106 21.5q35 0 61.5 -7.5t53 -18.5t42.5 -15l-98 -154l-35 19q-82 0 -116.5 -59.5t-34.5 -215.5h211v-159h-218l2 -705h-196v709h-103z" />
<glyph unicode="&#xfb03;" horiz-adv-x="1894" d="M1574 1116q0 47 34 75t74 29h3q38 0 71 -26q34 -27 33 -76q0 -51 -33.5 -80.5t-73.5 -29.5t-74 28.5t-34 79.5zM1591 887h188v-891h-184zM798 709v155h111q0 125 31 218.5t81 141.5t102 69.5t106 21.5q35 0 61.5 -7.5t53 -18.5t42.5 -15l-98 -154l-35 19 q-82 0 -116.5 -59.5t-34.5 -215.5h211v-159h-218l2 -705h-196v709h-103zM63 709v155h111q0 125 31 218.5t81 141.5t102 69.5t106 21.5q35 0 61.5 -7.5t53 -18.5t42.5 -15l-98 -154l-35 19q-82 0 -116.5 -59.5t-34.5 -215.5h211v-159h-218l2 -705h-196v709h-103z" />
<glyph unicode="&#xfb04;" horiz-adv-x="1900" d="M1589 0v1602h192l-2 -1115v-487h-190zM798 709v155h111q0 125 31 218.5t81 141.5t102 69.5t106 21.5q35 0 61.5 -7.5t53 -18.5t42.5 -15l-98 -154l-35 19q-82 0 -116.5 -59.5t-34.5 -215.5h211v-159h-218l2 -705h-196v709h-103zM63 709v155h111q0 125 31 218.5t81 141.5 t102 69.5t106 21.5q35 0 61.5 -7.5t53 -18.5t42.5 -15l-98 -154l-35 19q-82 0 -116.5 -59.5t-34.5 -215.5h211v-159h-218l2 -705h-196v709h-103z" />
</font>
</defs>
</svg>
