<?xml version="1.0" standalone="no"?>
<!DOCTYPE svg PUBLIC "-//W3C//DTD SVG 1.1//EN" "http://www.w3.org/Graphics/SVG/1.1/DTD/svg11.dtd" >
<svg xmlns="http://www.w3.org/2000/svg">
<metadata>
This is a custom SVG webfont generated by Font Squirrel.
Copyright   : Copyright c 2005 by Lanston Type Co P22 type foundry All rights reserved
</metadata>
<defs>
<font id="LTCTwentiethCenturyMedium" horiz-adv-x="999" >
<font-face units-per-em="2048" ascent="1638" descent="-410" />
<missing-glyph horiz-adv-x="438" />
<glyph unicode=" "  horiz-adv-x="438" />
<glyph unicode="&#x09;" horiz-adv-x="438" />
<glyph unicode="&#xa0;" horiz-adv-x="438" />
<glyph unicode="!" horiz-adv-x="454" d="M123 96q0 45 31.5 79t76.5 34q41 0 72 -29.5t31 -68.5q0 -47 -30 -80t-73 -33q-45 0 -76.5 28.5t-31.5 69.5zM160 324v960h157v-960h-157z" />
<glyph unicode="&#x22;" horiz-adv-x="909" d="M131 1169v166h182v-166l-69 -217h-47zM588 1169v166h182v-166l-70 -217h-47z" />
<glyph unicode="#" horiz-adv-x="1411" d="M117 399v107h301l71 303h-360v115h375l92 379h121l-90 -379h266l100 379h121l-90 -379h254v-115h-277l-69 -303h334v-107h-367l-86 -395h-121l92 395h-280l-88 -395h-125l94 395h-268zM541 506h276l68 303h-277z" />
<glyph unicode="$" horiz-adv-x="1138" d="M150 330l147 30q76 -250 248 -256v521q-141 39 -223 127t-82 209q0 119 84 214t221 115v162h84v-168q98 -6 180 -63.5t135 -139.5l-129 -65q-2 2 -23.5 28.5t-32.5 36.5l-34 31q-23 20 -46.5 29.5t-49.5 11.5v-403q346 -102 346 -388q0 -160 -101.5 -264t-244.5 -129 v-174h-84v174q-164 8 -271 115q-45 45 -80.5 115t-43.5 131zM397 979q0 -150 148 -193v363q-66 -12 -107 -56t-41 -114zM629 102q92 25 141 94.5t49 157.5q0 68 -46 139.5t-144 94.5v-486z" />
<glyph unicode="%" horiz-adv-x="1779" d="M31 942q0 156 107.5 263.5t271.5 107.5q160 0 260 -112q98 -109 98 -251q0 -151 -97 -259q-95 -105 -247 -118h-23q-162 0 -266 111t-104 258zM178 948q0 -94 64.5 -159.5t160.5 -65.5q82 0 152 63.5t70 157.5q0 86 -64.5 152.5t-152.5 66.5q-98 0 -164 -66.5t-66 -148.5 zM524 4l561 1335l146 -49l-561 -1351zM1010 334q0 156 107.5 263.5t271.5 107.5q160 0 260 -112q98 -109 98 -251q0 -151 -97 -259q-95 -105 -247 -118h-23q-162 0 -266 111t-104 258zM1157 340q0 -94 64.5 -159.5t160.5 -65.5q82 0 152 63.5t70 157.5q0 86 -64.5 152.5 t-153.5 66.5q-98 0 -163.5 -66.5t-65.5 -148.5z" />
<glyph unicode="&#x26;" horiz-adv-x="1366" d="M126 411q54 181 277 304q-4 6 -35.5 42t-52 63.5t-41 74.5t-20.5 88q0 125 95 213t229 88q127 0 217 -82t90 -196q0 -61 -65.5 -146.5t-164.5 -150.5l265 -297l57 55q74 74 113 106l124 -124l-188 -175q61 -59 266 -274h-237l-148 152q-133 -166 -340 -185q-24 -2 -46 -2 q-177 0 -308 127q-102 99 -102 221q0 48 15 98zM302 411q-22 -47 -22 -91q0 -64 48 -121q75 -85 184 -86q22 0 45 4q139 20 246 151l-289 330q-158 -71 -212 -187zM410 1008q0 -45 50 -113t93 -102l127 106q53 45 53 119q0 57 -45 98t-110 41q-70 0 -119 -44t-49 -105z" />
<glyph unicode="'" horiz-adv-x="454" d="M133 1155v180h182v-207h-88q0 -90 62 -92v-84q-66 0 -111 57.5t-45 145.5z" />
<glyph unicode="(" horiz-adv-x="569" d="M121 623q0 231 47 415.5t168 425.5l98 -61q-96 -248 -133 -416t-37 -379t33 -380t129 -421l-107 -55q-198 379 -198 871z" />
<glyph unicode=")" horiz-adv-x="569" d="M123 1403l98 61q121 -242 168 -426t47 -415q0 -492 -198 -871l-107 55q96 252 129 421t33 380t-37 379t-133 416z" />
<glyph unicode="*" horiz-adv-x="811" d="M152 1253l45 64l188 -131v231h78v-227l186 127l47 -64l-204 -141l198 -135l-41 -66l-186 127v-225h-78v227l-188 -129l-43 66l200 135z" />
<glyph unicode="+" horiz-adv-x="1261" d="M211 571v119h358v359h119v-359h356v-119h-356v-356h-119v356h-358z" />
<glyph unicode="," horiz-adv-x="454" d="M59 -266l160 497l176 -61l-205 -483z" />
<glyph unicode="-" horiz-adv-x="681" d="M102 297v184h469v-184h-469z" />
<glyph unicode="." horiz-adv-x="454" d="M98 98q0 53 40 90t98 37q51 0 85.5 -35.5t34.5 -85.5q0 -55 -42 -95t-99 -40q-49 4 -83 41t-34 88z" />
<glyph unicode="/" horiz-adv-x="1185" d="M117 -303l864 1767l133 -57l-870 -1763z" />
<glyph unicode="0" horiz-adv-x="1073" d="M72 614q0 299 137 501t340 202q197 0 324.5 -178t127.5 -451q0 -315 -132 -517t-339 -202q-205 0 -331.5 178t-126.5 467zM231 610q0 -219 81 -356t212 -137q4 0 13.5 1t13.5 1q125 18 206 179t81 388q0 215 -80 348t-211 133q-137 0 -226.5 -157.5t-89.5 -399.5z" />
<glyph unicode="1" horiz-adv-x="575" d="M12 1137l72 166h313v-1303h-166v1137h-219z" />
<glyph unicode="2" horiz-adv-x="1001" d="M59 0l574 666q129 152 129 266q0 96 -76 166.5t-174 70.5q-213 0 -246 -233h-184q84 379 450 379q174 0 284 -112.5t110 -262.5q0 -59 -10.5 -105.5t-64.5 -136.5t-157 -204l-299 -336h525v-158h-861z" />
<glyph unicode="3" horiz-adv-x="972" d="M57 317h172q18 -98 90 -153t175 -55q104 0 175.5 72.5t71.5 187t-88 182t-209 72.5v112h16q111 0 169 57q61 60 61 160q0 88 -55 151.5t-154 63.5q-78 0 -137 -48t-65 -148h-168q0 158 113.5 249t250.5 91q156 0 275.5 -99.5t119.5 -240.5q0 -92 -41 -162t-135 -137 q96 -27 153.5 -115t57.5 -192q0 -160 -125 -283t-299 -123q-166 0 -289 101t-135 257z" />
<glyph unicode="4" horiz-adv-x="1021" d="M49 190v50l727 1067h23v-961h168v-156h-168v-190h-160v190h-590zM299 346h338v488z" />
<glyph unicode="5" d="M47 217l109 90q47 -76 133 -129t162 -53q135 0 230 96t95 232q0 129 -94 228t-219 99q-147 0 -287 -123l193 648h534v-148h-420l-71 -254h57q201 0 332 -125t131 -301q0 -209 -136.5 -352t-351.5 -143q-117 0 -233.5 69.5t-163.5 165.5z" />
<glyph unicode="6" horiz-adv-x="1028" d="M53 428q0 180 158 422l299 453h195l-297 -463q68 23 122 22q205 0 326 -128t121 -300q0 -195 -133 -327t-334 -132q-195 0 -326 135.5t-131 317.5zM221 426q0 -123 84 -210t205 -87q123 0 215 84t92 209t-94 210t-217 85q-117 0 -201 -83t-84 -208z" />
<glyph unicode="7" horiz-adv-x="1058" d="M66 25l714 1128h-714v152h987l-860 -1375z" />
<glyph unicode="8" horiz-adv-x="960" d="M74 340q0 96 46 187t140 139q-158 104 -158 286q0 139 114 252t267 113q156 0 265.5 -104.5t109.5 -251.5q0 -193 -153 -295q182 -102 182 -314q0 -170 -115 -278.5t-285 -108.5q-182 0 -297.5 106.5t-115.5 268.5zM250 346q0 -88 67.5 -157.5t159.5 -69.5 q106 0 175 66.5t69 172.5q0 96 -63.5 162t-161.5 72h-17q-98 0 -163.5 -74t-65.5 -172zM256 952q0 -84 67.5 -152.5t155.5 -68.5h19q94 8 153.5 75.5t59.5 151.5q0 86 -72 149.5t-160 63.5t-155.5 -65.5t-67.5 -153.5z" />
<glyph unicode="9" horiz-adv-x="978" d="M57 870q0 186 127 313.5t320 127.5q188 0 313 -129t125 -305q0 -158 -156 -365l-444 -592l-131 105l354 444q-27 -8 -80 -8q-197 0 -312.5 122.5t-115.5 286.5zM211 882.5q0 -118.5 90 -200.5t207 -82q113 0 192.5 80t79.5 199q0 117 -79.5 200.5t-196.5 83.5t-205 -81 t-88 -199.5z" />
<glyph unicode=":" horiz-adv-x="454" d="M111 98q0 51 36.5 86t90.5 35q45 0 74.5 -33.5t29.5 -83t-34 -83t-81 -33.5q-49 0 -82.5 32.5t-33.5 79.5zM111 541q0 51 33.5 87t80.5 36t81 -34t34 -81q0 -49 -35 -85t-84 -36q-45 0 -77.5 33t-32.5 80z" />
<glyph unicode=";" horiz-adv-x="569" d="M135 -236l201 498l172 -84l-234 -477zM274 551q0 49 39 84t93 35q43 0 74.5 -34t31.5 -81q0 -49 -35 -83t-86 -34q-47 0 -82 34t-35 79z" />
<glyph unicode="&#x3c;" horiz-adv-x="1042" d="M90 461v166l834 364v-145l-668 -299v-6l668 -230v-141z" />
<glyph unicode="=" horiz-adv-x="1261" d="M211 416v119h833v-119h-833zM211 702v119h833v-119h-833z" />
<glyph unicode="&#x3e;" horiz-adv-x="1015" d="M92 170v141l668 230v6l-668 299v145l834 -364v-166z" />
<glyph unicode="?" horiz-adv-x="796" d="M72 1024q2 86 28 150q25 74 117 123t191 49q147 0 235 -80t88 -217q0 -96 -59.5 -176t-171.5 -117q-125 -41 -174.5 -77t-49.5 -89q0 -49 36 -83q34 -32 80 -32h5q72 2 112 43t44 94h166q-12 -127 -103.5 -205.5t-220.5 -78.5q-121 0 -208 82t-87 188q0 86 63.5 156.5 t196.5 113.5q215 70 215 187q0 74 -52 118t-117 44q-164 0 -173 -191q-16 0 -43.5 -1t-39.5 -1h-78zM291 86q0 45 31.5 79t76.5 34q41 0 72 -30t31 -69q0 -47 -30 -79.5t-73 -32.5q-45 0 -76.5 28.5t-31.5 69.5z" />
<glyph unicode="@" horiz-adv-x="1533" d="M53 465q0 307 209 518t510 211q272 0 474 -195.5t202 -468.5q0 -186 -109.5 -318t-263.5 -132q-51 0 -82.5 30.5t-31.5 71.5v62q-63 -68 -120 -98.5t-128 -30.5q-139 0 -236.5 106.5t-97.5 255.5q0 160 96 273.5t234 113.5q150 0 252 -141v129h129v-565q0 -47 18 -65.5 t43 -11.5t49 28q47 39 81 123.5t34 162.5q0 215 -162 372t-381 157q-236 0 -398.5 -167t-162.5 -413q0 -221 165 -385t396 -164q168 0 297 76l74 -102q-61 -47 -168 -78t-203 -31q-297 0 -508 201t-211 475zM520 489q0 -106 61.5 -182t149.5 -76q96 0 165 72t69 172 q0 125 -73 191.5t-167 66.5q-88 0 -146.5 -74t-58.5 -170z" />
<glyph unicode="A" horiz-adv-x="1286" d="M41 0l600 1290h16l588 -1290h-168l-139 322h-586l-143 -322h-168zM414 453h467l-232 512z" />
<glyph unicode="B" horiz-adv-x="931" d="M123 0v1282h274q162 0 262.5 -94t100.5 -225q0 -197 -144 -263q244 -55 244 -335q0 -63 -22.5 -124t-69.5 -117t-132 -90t-196 -34h-317zM274 133h197q96 0 163.5 67.5t67.5 151.5t-22.5 130t-81.5 77q-49 25 -195 25h-129v-451zM274 725h111q98 0 164.5 59.5t66.5 153.5 q0 84 -60 154.5t-183 70.5h-99v-438z" />
<glyph unicode="C" horiz-adv-x="1236" d="M96 649q0 272 190.5 461.5t471.5 189.5q203 0 348 -83v-205q-31 31 -137 90q-96 43 -211 43q-203 0 -352.5 -148.5t-149.5 -355.5q0 -199 148.5 -347.5t345.5 -148.5q188 0 315 97q2 2 6 4t6 4q16 16 19 16q8 0 8 -6v-182q-166 -88 -377 -88q-256 0 -443.5 194.5 t-187.5 464.5z" />
<glyph unicode="D" horiz-adv-x="1191" d="M102 0v1282h334q289 0 469 -183.5t180 -465.5q0 -268 -180 -450.5t-463 -182.5h-340zM266 139h127q254 0 391.5 142.5t137.5 363.5q0 213 -145.5 356.5t-375.5 143.5h-135v-1006z" />
<glyph unicode="E" horiz-adv-x="868" d="M123 0v1282h678v-156h-512v-352h512v-156h-512v-462h512v-156h-678z" />
<glyph unicode="F" horiz-adv-x="868" d="M123 0v1282h678v-156h-512v-352h512v-156h-512v-618h-166z" />
<glyph unicode="G" horiz-adv-x="1456" d="M98 645q0 270 193.5 464t468.5 194q295 0 516 -234l-111 -117q-90 82 -114 99q-125 88 -285 88q-215 0 -356.5 -139.5t-141.5 -352.5q0 -209 141.5 -354.5t354.5 -145.5q166 0 278.5 95.5t126.5 253.5l-311 -4v153h492v-37q0 -262 -157 -441t-437 -179 q-285 0 -471.5 193.5t-186.5 463.5z" />
<glyph unicode="H" horiz-adv-x="1179" d="M123 0v1282h170v-516h608v516h166v-1282h-166v621h-608v-621h-170z" />
<glyph unicode="I" horiz-adv-x="475" d="M156 0v1282h163v-1282h-163z" />
<glyph unicode="J" horiz-adv-x="714" d="M10 55l86 138q104 -72 176 -72q164 0 164 237v924h166v-930q0 -172 -89 -280.5t-271 -108.5q-132 0 -232 92z" />
<glyph unicode="K" horiz-adv-x="1150" d="M94 0v1282h168v-545l559 545h211l-583 -565l630 -717h-219l-592 666l-6 -666h-168z" />
<glyph unicode="L" horiz-adv-x="743" d="M123 0v1282h164v-1126h405v-156h-569z" />
<glyph unicode="M" horiz-adv-x="1628" d="M147 0l273 1311l436 -1020l444 1020l250 -1311h-176l-131 819l-395 -899l-375 899l-151 -819h-175z" />
<glyph unicode="N" horiz-adv-x="1374" d="M123 0v1360l964 -1028v950h164v-1354l-964 1002v-930h-164z" />
<glyph unicode="O" horiz-adv-x="1560" d="M113 643q0 272 193.5 468t463.5 196q274 0 471 -193.5t197 -466.5q0 -264 -189.5 -462.5t-447.5 -198.5h-31q-281 0 -469 188t-188 469zM276 627q0 -195 143.5 -337.5t356.5 -142.5q195 0 344.5 141.5t149.5 352.5q0 205 -141.5 351.5t-354.5 146.5q-219 0 -358.5 -146.5 t-139.5 -365.5z" />
<glyph unicode="P" horiz-adv-x="856" d="M123 0v1282h280q209 0 322 -100.5t113 -278.5q0 -174 -126 -270q-121 -92 -305 -92h-16h-106v-541h-162zM285 674h102q143 0 226 58.5t83 174.5q0 100 -67.5 170t-216.5 70h-127v-473z" />
<glyph unicode="Q" horiz-adv-x="1601" d="M121 647q0 266 190.5 459.5t454.5 193.5q268 0 463.5 -191t195.5 -458q0 -240 -170 -436l224 -215h-222l-118 113q-162 -113 -340 -113h-33q-274 0 -459.5 186.5t-185.5 460.5zM283 631q0 -193 140 -332t351 -139q129 0 248 67l-301 289h227l191 -190q121 137 121 319 q0 203 -139.5 346.5t-350.5 143.5q-215 0 -351 -143.5t-136 -360.5z" />
<glyph unicode="R" d="M123 0v1282h344q166 0 263 -101.5t97 -260.5q0 -135 -95 -236.5t-222 -114.5l408 -569h-199l-387 557h-49v-557h-160zM283 674h100q147 0 215 67.5t68 178.5q0 135 -78 182t-207 47h-98v-475z" />
<glyph unicode="S" horiz-adv-x="989" d="M98 330l162 24q18 -102 85 -159.5t163 -57.5q102 0 172 64q72 65 72 169q0 144 -164 218l-162 69q-135 57 -192.5 127t-57.5 181q0 141 101.5 234t257.5 93q207 0 317 -184l-125 -76q-49 72 -93 94.5t-116 24.5h-6q-82 0 -134 -49q-54 -51 -54 -125q0 -68 24 -100 q12 -14 23.5 -24.5t32.5 -21.5l38 -17q16 -7 62 -24l80 -32q168 -70 243.5 -163t75.5 -235q0 -152 -124 -262t-296 -110q-156 0 -261.5 107.5t-123.5 234.5z" />
<glyph unicode="T" horiz-adv-x="843" d="M41 1141v141h766v-141h-313v-1141h-164v1141h-289z" />
<glyph unicode="U" horiz-adv-x="1185" d="M111 532v750h170v-778q0 -172 84 -269.5t225 -97.5q139 0 233.5 99.5t94.5 259.5v786h161v-774q0 -240 -141 -383t-362.5 -143t-343 145t-121.5 405z" />
<glyph unicode="V" horiz-adv-x="1222" d="M39 1278h201l376 -942l385 942h183l-568 -1341z" />
<glyph unicode="W" horiz-adv-x="1894" d="M70 1280h200l351 -907l333 915h23l323 -901l336 891h193l-529 -1309h-24l-311 897l-338 -897h-23z" />
<glyph unicode="X" horiz-adv-x="1214" d="M106 0l408 666l-364 614h192l276 -467l275 467h192l-368 -614l403 -666h-200l-302 530l-325 -530h-187z" />
<glyph unicode="Y" horiz-adv-x="1052" d="M41 1282h184l295 -577l309 577h185l-408 -719v-563h-168v551z" />
<glyph unicode="Z" horiz-adv-x="1124" d="M78 0l678 1137h-590v145h854l-658 -1137h685v-145h-969z" />
<glyph unicode="[" horiz-adv-x="569" d="M117 -328v1772h336v-137h-201v-1497h201v-138h-336z" />
<glyph unicode="\" horiz-adv-x="1185" d="M117 1407l133 57l864 -1767l-127 -53z" />
<glyph unicode="]" horiz-adv-x="569" d="M117 -190h200v1497h-200v137h336v-1772h-336v138z" />
<glyph unicode="^" horiz-adv-x="944" d="M98 1149l269 301h235l254 -301h-178l-197 221l-202 -221h-181z" />
<glyph unicode="_" horiz-adv-x="1024" d="M0 -115h1024v-98h-1024v98z" />
<glyph unicode="`" horiz-adv-x="778" d="M182 1212l103 158l360 -280l-61 -91z" />
<glyph unicode="a" d="M88 385q0 197 113.5 315.5t255.5 118.5q170 0 282 -157v143h146v-807h-146v125q-72 -76 -134 -111t-142 -35q-164 0 -269.5 114t-105.5 294zM246 399q0 -121 69.5 -205.5t167.5 -84.5q104 0 183 87t79 187q0 141 -81.5 215t-188.5 74q-98 0 -163.5 -83.5t-65.5 -189.5z " />
<glyph unicode="b" horiz-adv-x="935" d="M123 4v1430h153v-785q55 94 123 132t170 38q154 0 250 -117.5t96 -289.5q0 -199 -113.5 -311.5t-273.5 -112.5q-150 0 -252 127v-111h-153zM285 369q8 -111 73.5 -175.5t166 -64.5t168 73.5t67.5 190.5t-64.5 198t-167.5 81q-104 0 -173.5 -78t-69.5 -186v-39z" />
<glyph unicode="c" horiz-adv-x="817" d="M78 412q0 182 124 296.5t310 114.5q135 0 201 -49l6 -180q-111 86 -223 86q-115 0 -191 -76t-76 -190.5t82 -196.5t199 -82q55 0 98 16.5t113 63.5l4 -162q-129 -66 -236 -65q-180 0 -295.5 118t-115.5 306z" />
<glyph unicode="d" horiz-adv-x="987" d="M72 385q0 182 107.5 306t266.5 124q166 0 279 -156v775h147v-1436h-147v131q-109 -154 -276 -154q-158 0 -267.5 120t-109.5 290zM227 387q0 -109 73 -192.5t169 -83.5q106 0 179 78.5t73 199.5v33q-12 109 -77.5 179.5t-174.5 70.5q-104 0 -173 -85t-69 -200z" />
<glyph unicode="e" horiz-adv-x="907" d="M51 408q0 182 105.5 298.5t283.5 116.5q184 0 286 -125q96 -118 96 -304q0 -11 -1 -23h-604v-11q0 -88 63 -157q67 -74 187 -74q74 0 138.5 51t82.5 111l119 -66q-49 -104 -144.5 -168.5t-224.5 -64.5q-172 0 -279.5 120t-107.5 296zM221 502h426q0 59 -61.5 122.5 t-147.5 63.5q-90 0 -151.5 -57t-65.5 -129z" />
<glyph unicode="f" horiz-adv-x="561" d="M92 676v135h74v330q0 170 87 240q80 65 197 65h21q55 0 74 -23v-137q-53 27 -107 27q-49 0 -86 -36t-37 -103v-363h224v-135h-224v-676h-149v676h-74z" />
<glyph unicode="g" horiz-adv-x="1048" d="M86 379q0 176 118 309q116 131 265 131h4q88 -2 156.5 -33.5t150.5 -117.5v141h156v-811q0 -199 -117 -300q-114 -99 -292 -99h-7q-174 2 -275.5 77.5t-129.5 204.5h170q23 -59 88 -103t139 -44q117 0 192.5 56t75.5 177v109q-121 -139 -297 -139q-213 0 -305 123.5 t-92 318.5zM250 383q0 -137 70.5 -223t203.5 -86q115 0 185.5 98t70.5 219q0 119 -74.5 198t-187.5 79q-104 0 -186 -86t-82 -199z" />
<glyph unicode="h" horiz-adv-x="913" d="M123 0v1434h162v-713q59 51 111.5 72.5t133.5 21.5q131 0 208 -68.5t77 -214.5v-532h-158v504q0 86 -48 131t-121.5 45t-125.5 -29q-78 -45 -77 -143v-508h-162z" />
<glyph unicode="i" horiz-adv-x="356" d="M94 1161q0 45 31 77t76 32q39 0 66.5 -29t27.5 -70t-28.5 -70.5t-71.5 -31.5q-43 0 -72 26.5t-29 65.5zM106 0v811h158v-811h-158z" />
<glyph unicode="j" horiz-adv-x="323" d="M72 1161q0 45 30.5 77t75.5 32q39 0 66.5 -29t27.5 -70t-28.5 -70.5t-71.5 -31.5q-43 0 -71.5 26.5t-28.5 65.5zM86 -395v1206h158v-1206h-158z" />
<glyph unicode="k" horiz-adv-x="888" d="M123 0v1434h160v-961l338 338h194l-272 -272l325 -539h-176l-262 434l-147 -143v-291h-160z" />
<glyph unicode="l" horiz-adv-x="372" d="M113 0v1434h157v-1434h-157z" />
<glyph unicode="m" horiz-adv-x="1370" d="M123 0v803h153v-96q94 117 226 116q152 0 227 -123q90 123 246 123q139 0 207.5 -72.5t68.5 -201.5v-549h-166v528q0 66 -39.5 104t-105.5 38q-80 0 -129 -52.5t-49 -136.5v-481h-160v510q0 70 -40 115t-103 45q-86 0 -134.5 -50.5t-48.5 -132.5v-487h-153z" />
<glyph unicode="n" horiz-adv-x="909" d="M123 0v811h160v-111q82 121 243 121q113 0 199 -65.5t86 -214.5v-541h-158v502q0 88 -45 135t-121 47q-88 0 -146 -62.5t-58 -156.5v-465h-160z" />
<glyph unicode="o" horiz-adv-x="1003" d="M84 397q0 176 123 299t309 123q180 0 295 -127q113 -125 113 -287q0 -171 -111 -293q-109 -120 -283 -135h-24q-184 0 -303 126t-119 294zM236 403q0 -115 77.5 -193.5t194.5 -78.5q98 0 183 77t85 191q0 104 -77.5 185.5t-184.5 81.5q-119 0 -198.5 -81.5t-79.5 -181.5z " />
<glyph unicode="p" horiz-adv-x="960" d="M113 -395v1206h155v-129q106 139 269 139q160 0 266 -112.5t106 -294.5q0 -190 -103.5 -309t-277.5 -119q-143 0 -264 139v-520h-151zM258 403q0 -123 65.5 -200.5t178 -77.5t180.5 90t68 213q0 111 -70 186.5t-176 75.5q-109 0 -177.5 -85t-68.5 -202z" />
<glyph unicode="q" horiz-adv-x="985" d="M72 414q0 182 106.5 294.5t265.5 112.5q162 0 269 -139v129h155v-1206h-151v520q-121 -139 -264 -139q-174 0 -277.5 119t-103.5 309zM231 428q0 -123 68 -213t180.5 -90t178 78t65.5 200q0 117 -68.5 202t-177.5 85q-106 0 -176 -75.5t-70 -186.5z" />
<glyph unicode="r" horiz-adv-x="655" d="M123 0v811h166v-102q31 53 91 85q57 30 103 29h6q86 -2 116 -25q23 -18 23 -44q0 -7 -1 -15l-70 -131q-16 18 -51 33.5t-55 15.5q-80 0 -121 -57t-41 -164v-436h-166z" />
<glyph unicode="s" horiz-adv-x="702" d="M68 174l145 59q61 -104 147 -104q37 0 63 24.5t26 57.5q0 43 -29 72.5t-117 70.5q-106 49 -149 99.5t-43 124.5q0 102 71.5 170.5t184.5 68.5q70 0 134 -41t99 -108l-156 -80q-16 29 -23 40t-20.5 26.5t-29 21.5t-35.5 6q-31 0 -49.5 -23.5t-18.5 -50.5q0 -39 35 -65.5 t154 -85.5q168 -86 168 -240q0 -92 -75 -158.5t-196 -66.5q-196 0 -286 182z" />
<glyph unicode="t" horiz-adv-x="475" d="M51 662v149h80v274h164v-274h160v-149h-160v-662h-164v662h-80z" />
<glyph unicode="u" horiz-adv-x="884" d="M109 340v471h161v-471q0 -84 48.5 -143.5t138.5 -59.5q70 0 120 47t50 140v487h159v-477q0 -139 -85 -243.5t-263 -104.5q-164 0 -246.5 99t-82.5 255z" />
<glyph unicode="v" horiz-adv-x="925" d="M35 813h172l272 -545l252 545h154l-404 -856z" />
<glyph unicode="w" horiz-adv-x="1378" d="M25 807h172l231 -512l248 530l242 -516l229 496h162l-394 -836l-241 547l-250 -547z" />
<glyph unicode="x" horiz-adv-x="1093" d="M96 0l357 442l-306 365h201l197 -248l198 248h195l-299 -365l358 -442h-192l-258 322l-260 -322h-191z" />
<glyph unicode="y" horiz-adv-x="972" d="M27 807h184l297 -522l256 522h180l-594 -1202q-31 0 -90 -1t-88 -1l256 508z" />
<glyph unicode="z" horiz-adv-x="1036" d="M104 0v45l514 617h-458v149h762v-29l-531 -626h549v-156h-836z" />
<glyph unicode="{" horiz-adv-x="589" d="M35 573v119q66 4 102 68q31 53 31 225v340q0 100 55.5 176t165.5 76h129v-133h-82q-123 0 -123 -155v-6.5v-6.5v-279q0 -16 1 -62t1 -65.5t-5 -59.5t-14 -65.5t-27.5 -60.5t-47.5 -66q18 -25 33.5 -54t25 -54t16.5 -56.5t10 -52t5 -50t2 -42.5v-37v-24v-277v-6.5v-6.5 q0 -159 123 -159h82v-133h-129q-111 0 -166 77t-55 177v342q0 154 -39 232q-16 35 -42.5 57t-51.5 22z" />
<glyph unicode="|" horiz-adv-x="534" d="M219 -322v1805h125v-1805h-125z" />
<glyph unicode="}" horiz-adv-x="589" d="M35 -201h82q123 0 123 159v6.5v6.5v277v24v37q0 12 2 42t5 50.5t10 52t16.5 56.5t24.5 54.5t34 53.5q-33 37 -53.5 73t-28.5 84t-10 67q-1 12 -2 45q0 16 1 38q1 65 1 72v279q0 104 -39 139q-31 29 -84 29h-82v133h129q111 0 166 -76t55 -176v-340q0 -172 31 -225 q37 -63 102 -68v-119q-25 0 -51.5 -22.5t-42.5 -56.5q-39 -78 -39 -232v-342q0 -100 -55.5 -177t-165.5 -77h-129v133z" />
<glyph unicode="~" horiz-adv-x="907" d="M111 555q88 229 249 229q55 0 125 -34q76 -43 117 -43q59 0 103 79h88q-37 -111 -96.5 -170t-133.5 -59q-78 0 -213 76q-35 18 -47 18q-45 0 -102 -96h-90z" />
<glyph unicode="&#xa1;" horiz-adv-x="454" d="M129 1061q0 47 29.5 80t72.5 33q45 0 77 -29t32 -70q0 -45 -32 -78.5t-77 -33.5q-41 0 -71.5 29.5t-30.5 68.5zM145 -113v961h158v-961h-158z" />
<glyph unicode="&#xa2;" horiz-adv-x="796" d="M78 412q0 182 124 296.5t310 114.5q18 0 29 -2l123 373h84l-123 -383q53 -12 88 -37l6 -180q-80 59 -141 76l-166 -518q49 -16 98 -17q55 0 98 16.5t113 63.5l4 -162q-129 -66 -236 -65q-63 0 -124 16l-127 -393h-97l142 426q-96 53 -150.5 150.5t-54.5 224.5zM229 414 q0 -133 105 -217l160 483q-113 -2 -189 -77.5t-76 -188.5z" />
<glyph unicode="&#xa3;" horiz-adv-x="1251" d="M174 659v146h162l2 184q0 160 113.5 262.5t289.5 102.5q117 0 192 -30t138 -103l-100 -105q-111 104 -226 105q-94 0 -162.5 -56.5t-68.5 -136.5l-2 -223h170v-146h-170l2 -507h524v-152h-827v152h127l2 507h-166z" />
<glyph unicode="&#xa5;" horiz-adv-x="1138" d="M39 1286h229l312 -514l292 514h228l-307 -493h260v-80h-305l-78 -119v-158h383v-80h-383v-356h-191v356h-362v80h362v146l-82 131h-280v80h225z" />
<glyph unicode="&#xa7;" horiz-adv-x="876" d="M133 1038q0 115 88 197t213 82q117 0 200 -69.5t85 -170.5h-141q-8 45 -54.5 79t-103.5 34q-66 0 -111 -39t-45 -94q0 -51 29 -94t69 -54q41 10 84 11q113 0 194 -80t81 -193q0 -98 -62 -178q102 -90 103 -223q0 -117 -86 -200t-207 -83q-131 0 -223 86t-90 207l147 2 q6 -72 54.5 -121t111.5 -49q59 0 106 44q51 48 52 115q0 41 -22 80q-24 42 -60 56q-39 -16 -86 -21h-19q-117 0 -199.5 83t-82.5 200q0 53 21.5 109.5t49.5 81.5q-41 27 -68.5 86t-27.5 116zM289 649q0 -66 44 -109.5t111 -43.5q61 0 105.5 44t44.5 107q0 61 -43 104.5 t-102 43.5q-66 0 -113 -43.5t-47 -102.5z" />
<glyph unicode="&#xa8;" horiz-adv-x="954" d="M170 1161q0 45 30.5 77t75.5 32q39 0 67 -29t28 -70t-29 -70.5t-72 -31.5q-43 0 -71.5 26.5t-28.5 65.5zM565 1161q0 45 31 77t76 32q39 0 66.5 -29t27.5 -70t-28.5 -70.5t-71.5 -31.5q-43 0 -72 26.5t-29 65.5z" />
<glyph unicode="&#xa9;" horiz-adv-x="1777" d="M111 786.5q0 327.5 233.5 561t561 233.5t561 -233.5t233.5 -561t-233.5 -561t-561 -233.5t-561 233.5t-233.5 561zM229 786q0 -283 198 -479t478 -196q283 0 479.5 196.5t196.5 478.5q0 281 -196.5 478.5t-479.5 197.5q-281 0 -478.5 -197.5t-197.5 -478.5zM371 766 q0 240 155.5 400.5t399.5 160.5q178 0 303 -72l2 -163q-27 25 -121 77q-84 37 -182 37q-176 0 -299 -132t-123 -314q0 -172 122 -290t296 -118q158 0 272 82q2 2 6 5t6 5q12 12 15 13q8 0 8 -4v-146q-150 -76 -328 -76q-227 0 -379.5 151t-152.5 384z" />
<glyph unicode="&#xaa;" horiz-adv-x="765" d="M35 1077q0 139 85 220t187 81q115 0 185 -86v80h122v-571h-122v84q-86 -90 -185 -90q-117 0 -194.5 78.5t-77.5 203.5zM66 598v131h565v-131h-565zM168 1087q0 -80 43 -130t108 -50q72 0 119 46t47 122q0 92 -49 136t-119 44q-66 0 -107.5 -49t-41.5 -119z" />
<glyph unicode="&#xab;" horiz-adv-x="944" d="M47 541l322 442l84 -68l-250 -362l268 -338l-82 -82zM420 541l319 442l84 -68l-248 -360l271 -338l-84 -84z" />
<glyph unicode="&#xac;" horiz-adv-x="1536" d="M51 397q0 174 127 297t305 123q160 0 289 -115v732h158v-961l358 338h174l-272 -272l326 -539h-177l-262 434l-147 -143v-291h-158v104q-145 -119 -276 -118h-25q-184 0 -302 121.5t-118 289.5zM207 403q0 -115 79 -195.5t195 -80.5q131 0 201 88l90 -59v475l-86 -68 q-90 113 -207 113q-121 0 -196.5 -81t-75.5 -192z" />
<glyph unicode="&#xad;" horiz-adv-x="681" d="M102 297v184h469v-184h-469z" />
<glyph unicode="&#xae;" horiz-adv-x="1314" d="M72 987q0 246 174 420t419.5 174t420 -174t174.5 -420t-174.5 -420t-420 -174t-419.5 174t-174 420zM190 987.5q0 -196.5 139.5 -336t336 -139.5t336 139.5t139.5 336t-139.5 335.5t-336 139t-336 -139t-139.5 -335.5zM444 633v731h220q96 0 160.5 -64.5t64.5 -142.5 q0 -90 -50.5 -153.5t-129.5 -71.5l241 -281h-127l-235 275h-29v-293h-115zM559 1006q10 0 28.5 -1t26.5 -1q172 2 172 147q0 57 -52 95t-118 38h-57v-278z" />
<glyph unicode="&#xaf;" horiz-adv-x="856" d="M121 1057v98h602v-98h-602z" />
<glyph unicode="&#xb0;" horiz-adv-x="542" d="M74 1118q0 88 60.5 150.5t144.5 62.5q82 0 139 -60.5t57 -144.5t-58.5 -143t-140.5 -59q-84 0 -143 57t-59 137zM147 1126q0 -55 36 -93t87 -38q53 0 91 38t38 91.5t-36.5 90t-88.5 36.5h-10q-51 -4 -84 -40t-33 -85z" />
<glyph unicode="&#xb1;" horiz-adv-x="1024" d="M72 676v135h73v330q0 170 108.5 256t252.5 88q156 0 257 -80t101 -211v-383h164v-133h-164v-678h-157v676h-412v-676h-150v676h-73zM295 811h412v365q0 178 -211 178q-66 0 -133.5 -55.5t-67.5 -178.5v-309z" />
<glyph unicode="&#xb2;" horiz-adv-x="1001" d="M59 0l574 666q129 152 129 266q0 96 -76 166.5t-174 70.5q-213 0 -246 -233h-184q84 379 450 379q174 0 284 -112.5t110 -262.5q0 -59 -10.5 -105.5t-64.5 -136.5t-157 -204l-299 -336h525v-158h-861z" />
<glyph unicode="&#xb3;" horiz-adv-x="1499" d="M72 676v135h73v330q0 168 97.5 236.5t238.5 68.5q164 0 279 -105q104 104 280 109q147 0 246.5 -87t99.5 -208v-1155h-153l-4 1071v57q0 80 -55.5 135.5t-143.5 55.5q-86 0 -144.5 -55.5t-58.5 -149.5v-303h224v-135h-224v-676h-155v676h-377v-676h-150v676h-73zM295 811 h377l2 324q0 37 10 77q-82 109 -209 109q-180 0 -180 -164v-346z" />
<glyph unicode="&#xb4;" horiz-adv-x="729" d="M176 1083l354 275l103 -158l-395 -207z" />
<glyph unicode="&#xb5;" horiz-adv-x="1097" d="M72 676v135h73v330q0 125 102.5 215t248.5 90q66 0 144.5 -31t123.5 -74q31 45 98 77q60 28 118 28h15q90 0 111 -27v-147q-49 41 -125 41q-51 0 -87 -35t-36 -86v-379h223v-135h-223v-676l-156 -2v676h-407v-676h-150v676h-73zM295 811h407v381q-27 53 -89 91t-124 38 q-80 0 -137 -48t-57 -116v-346z" />
<glyph unicode="&#xb6;" horiz-adv-x="1308" d="M125 971q0 233 142.5 354t355.5 121h168v-2009h-136v1048h-57q-203 0 -338 141.5t-135 344.5zM924 -563v2003h118v-2003h-118z" />
<glyph unicode="&#xb8;" horiz-adv-x="976" d="M272 -354l45 94q43 -47 103 -47q27 0 49.5 21.5t22.5 52.5q0 61 -74 77l-90 2l61 174l90 -20l-22 -76q66 -8 99.5 -50t33.5 -101q0 -82 -57.5 -128t-118.5 -46q-107 0 -142 47z" />
<glyph unicode="&#xb9;" horiz-adv-x="1077" d="M70 678v133h73v266q0 152 99.5 258.5t249.5 108.5h5q142 0 243 -102q103 -103 104 -250q0 -98 -47 -197.5t-115 -142.5q80 -43 152.5 -149.5t72.5 -221.5q0 -98 -39 -208t-112 -173h-207l-4 23q106 45 162.5 133t56.5 188q0 55 -19.5 116.5t-85 126t-165.5 77.5l2 131 q82 12 142 105t60 202q0 84 -57 144q-55 58 -149 59h-7q-92 -2 -141 -62.5t-49 -159.5v-1083h-152v678h-73z" />
<glyph unicode="&#xba;" horiz-adv-x="684" d="M41 1079q0 123 88 211t219 88q125 0 205 -91q78 -89 78 -200q0 -118 -82 -204q-80 -84 -201 -95h-16q-127 0 -209 87t-82 204zM66 598v131h565v-131h-565zM170 1083q0 -74 49 -123t127 -49q59 0 111.5 52.5t52.5 119.5q0 66 -50 116t-120 50q-76 0 -123 -50t-47 -116z " />
<glyph unicode="&#xbb;" horiz-adv-x="1036" d="M170 217l270 338l-247 360l83 68l320 -442l-342 -408zM545 215l268 338l-250 362l84 68l322 -442l-342 -408z" />
<glyph unicode="&#xbc;" horiz-adv-x="1024" d="M92 676v135h74l2 324q2 137 107.5 225t259.5 90q147 0 246.5 -87t99.5 -208v-1155h-154l-4 1071v57q0 80 -55.5 135.5t-143.5 55.5q-86 0 -144 -55.5t-58 -149.5v-303h223v-135h-223v-676h-156v676h-74z" />
<glyph unicode="&#xbd;" horiz-adv-x="1024" d="M72 676v135h73v330q0 139 104.5 226t258.5 89q154 0 258 -72.5t104 -189.5v-84h-157v57q0 74 -60.5 116t-154.5 42q-86 0 -144.5 -55.5t-58.5 -149.5v-309h223v-135h-223v-676h-150v676h-73zM713 0v811h157v-811h-157z" />
<glyph unicode="&#xbe;" horiz-adv-x="1404" d="M72 676v135h73v330q0 168 97.5 236.5t238.5 68.5q158 0 273 -100q92 106 266 110q150 0 236.5 -70.5t86.5 -191.5v-84h-157v57q0 158 -176 158q-84 0 -132.5 -54t-48.5 -151v-309h224v-135h-224v-676h-149v676h-385v-676h-150v676h-73zM295 811h385v330q0 35 6 69 q-82 111 -211 111q-180 0 -180 -164v-346zM1186 0v811h157v-811h-157z" />
<glyph unicode="&#xbf;" horiz-adv-x="796" d="M72 115q0 96 59 176t172 117q125 41 174 76.5t49 88.5q0 49 -36 83q-34 32 -79 32h-5q-72 -2 -112 -43t-44 -94h-166q12 127 103.5 206t220.5 79q121 0 207.5 -82t86.5 -189q0 -86 -63.5 -156.5t-196.5 -113.5q-215 -70 -215 -186q0 -74 52.5 -118t117.5 -44 q164 0 172 190q16 0 44 1t40 1h78q-2 -86 -29 -149q-25 -74 -116.5 -123t-190.5 -49q-147 0 -235 80t-88 217zM301 1063q0 47 29.5 80t72.5 33q45 0 77 -29t32 -70q0 -45 -31.5 -78.5t-77.5 -33.5q-41 0 -71.5 29.5t-30.5 68.5z" />
<glyph unicode="&#xc0;" horiz-adv-x="1286" d="M41 0l600 1290h16l588 -1290h-168l-139 322h-586l-143 -322h-168zM336 1585l102 158l361 -281l-62 -90zM414 453h467l-232 512z" />
<glyph unicode="&#xc1;" horiz-adv-x="1286" d="M41 0l600 1290h16l588 -1290h-168l-139 322h-586l-143 -322h-168zM414 453h467l-232 512zM422 1462l354 275l103 -158l-396 -207z" />
<glyph unicode="&#xc2;" horiz-adv-x="1286" d="M41 0l600 1290h16l588 -1290h-168l-139 322h-586l-143 -322h-168zM373 1446l276 303l277 -295l-103 -82l-178 176l-170 -186zM414 453h467l-232 512z" />
<glyph unicode="&#xc3;" horiz-adv-x="1286" d="M41 0l600 1290h16l588 -1290h-168l-139 322h-586l-143 -322h-168zM336 1511q35 61 90 103.5t115 42.5q53 0 112.5 -34t87.5 -34q51 0 76 17.5t43 56.5l103 -55q-33 -68 -88.5 -114t-120.5 -46q-61 0 -121 35t-92.5 35t-53 -18.5t-24.5 -37.5l-6 -18zM414 453h467 l-232 512z" />
<glyph unicode="&#xc4;" horiz-adv-x="1286" d="M41 0l600 1290h16l588 -1290h-168l-139 322h-586l-143 -322h-168zM201 1161q0 45 30.5 77t75.5 32q39 0 66.5 -29t27.5 -70t-28.5 -70.5t-71.5 -31.5q-43 0 -71.5 26.5t-28.5 65.5zM414 453h467l-232 512zM883 1161q0 45 30.5 77t75.5 32q39 0 66.5 -29t27.5 -70 t-28.5 -70.5t-71.5 -31.5q-43 0 -71.5 26.5t-28.5 65.5z" />
<glyph unicode="&#xc5;" horiz-adv-x="1286" d="M41 0l600 1290h16l588 -1290h-168l-139 322h-586l-143 -322h-168zM414 453h467l-232 512zM438 1532q0 92 63.5 156.5t160.5 64.5q92 0 151 -67q57 -65 57 -146q0 -89 -60 -152q-58 -60 -148 -69h-13q-94 0 -152.5 63.5t-58.5 149.5zM559 1536q0 -43 27.5 -70.5 t72.5 -27.5q37 0 66 29.5t29 68.5t-29 66.5t-70 27.5q-43 0 -69.5 -28.5t-26.5 -65.5z" />
<glyph unicode="&#xc6;" horiz-adv-x="1789" d="M86 0l901 1290h746v-155h-510v-357h510v-155h-510v-467h510v-156h-680v311h-555l-211 -311h-201zM592 451h463v682z" />
<glyph unicode="&#xc7;" horiz-adv-x="1236" d="M96 649q0 272 190.5 461.5t471.5 189.5q203 0 348 -83v-205q-31 31 -137 90q-96 43 -211 43q-203 0 -352.5 -148.5t-149.5 -355.5q0 -199 148.5 -347.5t345.5 -148.5q188 0 315 97q2 2 6 4t6 4q16 16 19 16q8 0 8 -6v-182q-166 -88 -377 -88q-256 0 -443.5 194.5 t-187.5 464.5zM604 -358l43 90q43 -45 96 -45q27 0 48.5 19.5t21.5 49.5q0 57 -72 74l-84 2l50 158l84 -21l-21 -61q63 -8 99 -50t36 -96q0 -78 -55 -121.5t-115 -43.5q-70 0 -131 45z" />
<glyph unicode="&#xc8;" horiz-adv-x="868" d="M123 0v1282h678v-156h-512v-352h512v-156h-512v-462h512v-156h-678zM219 1585l103 158l360 -281l-61 -90z" />
<glyph unicode="&#xc9;" horiz-adv-x="868" d="M123 0v1282h678v-156h-512v-352h512v-156h-512v-462h512v-156h-678zM297 1462l354 275l103 -158l-396 -207z" />
<glyph unicode="&#xca;" horiz-adv-x="868" d="M123 0v1282h678v-156h-512v-352h512v-156h-512v-462h512v-156h-678zM205 1450l276 303l277 -295l-103 -82l-178 176l-170 -186z" />
<glyph unicode="&#xcb;" horiz-adv-x="903" d="M123 0v1282h678v-156h-512v-352h512v-156h-512v-462h512v-156h-678zM199 1540q0 45 30.5 77t75.5 32q39 0 66.5 -29t27.5 -70t-28.5 -70.5t-71.5 -31.5q-43 0 -71.5 26.5t-28.5 65.5zM594 1540q0 45 30.5 77t75.5 32q39 0 67 -29t28 -70t-29 -70.5t-72 -31.5 q-43 0 -71.5 26.5t-28.5 65.5z" />
<glyph unicode="&#xcc;" horiz-adv-x="475" d="M76 1614l157 108l146 -297l-96 -55zM156 0v1282h163v-1282h-163z" />
<glyph unicode="&#xcd;" horiz-adv-x="475" d="M156 0v1282h163v-1282h-163zM227 1425l146 297l157 -108l-206 -244z" />
<glyph unicode="&#xce;" horiz-adv-x="475" d="M16 1442l246 295l244 -285l-103 -82l-151 158l-133 -170zM156 0v1282h163v-1282h-163z" />
<glyph unicode="&#xcf;" horiz-adv-x="475" d="M2 1540q0 45 30.5 77t76.5 32q39 0 66.5 -29t27.5 -70t-29 -70.5t-72 -31.5q-43 0 -71.5 26.5t-28.5 65.5zM156 0v1282h163v-1282h-163zM317 1540q0 45 31 77t76 32q39 0 66.5 -29t27.5 -70t-28.5 -70.5t-71.5 -31.5q-43 0 -72 26.5t-29 65.5z" />
<glyph unicode="&#xd0;" horiz-adv-x="1251" d="M37 571v140h117v571h333q289 0 469.5 -183.5t180.5 -465.5q0 -268 -180.5 -450.5t-462.5 -182.5h-340v571h-117zM317 139h127q254 0 391.5 142.5t137.5 363.5q0 213 -145.5 356.5t-374.5 143.5h-136v-434h170v-140h-170v-432z" />
<glyph unicode="&#xd1;" horiz-adv-x="1374" d="M123 0v1360l964 -1028v950h164v-1354l-964 1002v-930h-164zM395 1511q35 61 90.5 103.5t114.5 42.5q53 0 112.5 -34t88.5 -34q51 0 75.5 17.5t43.5 56.5l102 -55q-33 -68 -88 -114t-121 -46q-63 0 -122.5 35t-90.5 35q-33 0 -53.5 -18.5t-26.5 -37.5l-4 -18z" />
<glyph unicode="&#xd2;" horiz-adv-x="1560" d="M113 643q0 272 193.5 468t463.5 196q274 0 471 -193.5t197 -466.5q0 -264 -189.5 -462.5t-447.5 -198.5h-31q-281 0 -469 188t-188 469zM276 627q0 -195 143.5 -337.5t356.5 -142.5q195 0 344.5 141.5t149.5 352.5q0 205 -141.5 351.5t-354.5 146.5q-219 0 -358.5 -146.5 t-139.5 -365.5zM492 1581l102 158l360 -281l-61 -90z" />
<glyph unicode="&#xd3;" horiz-adv-x="1560" d="M113 643q0 272 193.5 468t463.5 196q274 0 471 -193.5t197 -466.5q0 -264 -189.5 -462.5t-447.5 -198.5h-31q-281 0 -469 188t-188 469zM276 627q0 -195 143.5 -337.5t356.5 -142.5q195 0 344.5 141.5t149.5 352.5q0 205 -141.5 351.5t-354.5 146.5q-219 0 -358.5 -146.5 t-139.5 -365.5zM610 1462l355 275l102 -158l-395 -207z" />
<glyph unicode="&#xd4;" horiz-adv-x="1560" d="M113 643q0 272 193.5 468t463.5 196q274 0 471 -193.5t197 -466.5q0 -264 -189.5 -462.5t-447.5 -198.5h-31q-281 0 -469 188t-188 469zM276 627q0 -195 143.5 -337.5t356.5 -142.5q195 0 344.5 141.5t149.5 352.5q0 205 -141.5 351.5t-354.5 146.5q-219 0 -358.5 -146.5 t-139.5 -365.5zM520 1456l277 303l276 -295l-102 -82l-178 177l-170 -187z" />
<glyph unicode="&#xd5;" horiz-adv-x="1560" d="M113 643q0 272 193.5 468t463.5 196q274 0 471 -193.5t197 -466.5q0 -264 -189.5 -462.5t-447.5 -198.5h-31q-281 0 -469 188t-188 469zM276 627q0 -195 143.5 -337.5t356.5 -142.5q195 0 344.5 141.5t149.5 352.5q0 205 -141.5 351.5t-354.5 146.5q-219 0 -358.5 -146.5 t-139.5 -365.5zM483 1505q35 61 90.5 103.5t114.5 42.5q53 0 112.5 -34t88.5 -34q51 0 75.5 17.5t43.5 56.5l102 -55q-33 -68 -88 -114t-121 -46q-61 0 -120.5 34.5t-92.5 34.5t-53.5 -18t-24.5 -37l-6 -18z" />
<glyph unicode="&#xd6;" horiz-adv-x="1560" d="M12 1161q0 45 31 77t76 32q39 0 66.5 -29t27.5 -70t-28.5 -70.5t-71.5 -31.5q-43 0 -72 26.5t-29 65.5zM113 643q0 272 193.5 468t463.5 196q274 0 471 -193.5t197 -466.5q0 -264 -189.5 -462.5t-447.5 -198.5h-31q-281 0 -469 188t-188 469zM276 627 q0 -195 143.5 -337.5t356.5 -142.5q195 0 344.5 141.5t149.5 352.5q0 205 -141.5 351.5t-354.5 146.5q-219 0 -358.5 -146.5t-139.5 -365.5zM1382 1161q0 45 31 77t76 32q39 0 66.5 -29t27.5 -70t-28.5 -70.5t-71.5 -31.5q-43 0 -72 26.5t-29 65.5z" />
<glyph unicode="&#xd8;" horiz-adv-x="1593" d="M109 -389l297 479q-137 88 -215 232.5t-78 320.5q0 272 193.5 468t463.5 196q180 0 334 -90l266 430h96l-295 -473q123 -92 195 -230.5t72 -296.5q0 -264 -189.5 -462.5t-447.5 -198.5h-31q-160 0 -295 65l-272 -440h-94zM276 627q0 -119 57.5 -224.5t158.5 -171.5 l524 846q-111 61 -242 62q-219 0 -358.5 -146.5t-139.5 -365.5zM563 193q100 -45 213 -46q195 0 344.5 141.5t149.5 352.5q0 244 -187 391z" />
<glyph unicode="&#xd9;" horiz-adv-x="1185" d="M111 532v750h170v-778q0 -172 84 -269.5t225 -97.5q139 0 233.5 99.5t94.5 259.5v786h161v-774q0 -240 -141 -383t-362.5 -143t-343 145t-121.5 405zM256 1581l102 158l361 -281l-62 -90z" />
<glyph unicode="&#xda;" horiz-adv-x="1185" d="M111 532v750h170v-778q0 -172 84 -269.5t225 -97.5q139 0 233.5 99.5t94.5 259.5v786h161v-774q0 -240 -141 -383t-362.5 -143t-343 145t-121.5 405zM455 1462l354 275l102 -158l-395 -207z" />
<glyph unicode="&#xdb;" horiz-adv-x="1185" d="M111 532v750h170v-778q0 -172 84 -269.5t225 -97.5q139 0 233.5 99.5t94.5 259.5v786h161v-774q0 -240 -141 -383t-362.5 -143t-343 145t-121.5 405zM326 1446l276 303l277 -295l-103 -82l-178 176l-170 -186z" />
<glyph unicode="&#xdc;" horiz-adv-x="1185" d="M111 532v750h170v-778q0 -172 84 -269.5t225 -97.5q139 0 233.5 99.5t94.5 259.5v786h161v-774q0 -240 -141 -383t-362.5 -143t-343 145t-121.5 405zM346 1163q0 45 31 77t76 32q39 0 66.5 -29t27.5 -69.5t-29 -70.5t-72 -32q-43 0 -71.5 26.5t-28.5 65.5zM653 1163 q0 45 31 77t76 32q39 0 66.5 -29t27.5 -69.5t-28.5 -70.5t-71.5 -32q-43 0 -72 26.5t-29 65.5z" />
<glyph unicode="&#xdd;" horiz-adv-x="1052" d="M41 1282h184l295 -577l309 577h185l-408 -719v-563h-168v551zM395 1493l355 274l102 -157l-395 -207z" />
<glyph unicode="&#xde;" horiz-adv-x="956" d="M197 0v1292h153v-288h121q209 0 322.5 -100.5t113.5 -278.5q0 -176 -128 -277q-123 -96 -305 -96h-15h-107v-252h-155zM352 391h103q303 0 303 242q0 104 -64.5 169.5t-214.5 65.5h-127v-477z" />
<glyph unicode="&#xdf;" horiz-adv-x="1077" d="M49 676v133h76v192q0 152 95 260.5t243 110.5h5q140 0 249 -106q111 -109 110 -252q0 -78 -49 -162q-41 -70 -112 -141q-16 -16 -34 -49t-18 -54q0 -39 35 -65.5t154 -85.5q168 -86 168 -240q0 -92 -75 -158.5t-196 -66.5q-86 0 -143 14l39 150q33 -25 106 -25 q39 0 66 23.5t27 56.5q0 43 -29 72.5t-117 70.5q-106 49 -149 99.5t-43 124.5q0 59 21.5 104t51.5 77l63 64q32 33 53.5 84t21.5 119q0 74 -59.5 135.5t-145.5 61.5q-90 0 -141.5 -61.5t-51.5 -139.5v-1022h-145v676h-76z" />
<glyph unicode="&#xe0;" d="M88 385q0 197 113.5 315.5t255.5 118.5q170 0 282 -157v143h146v-807h-146v125q-72 -76 -134 -111t-142 -35q-164 0 -269.5 114t-105.5 294zM246 399q0 -121 69.5 -205.5t167.5 -84.5q104 0 183 87t79 187q0 141 -81.5 215t-188.5 74q-98 0 -163.5 -83.5t-65.5 -189.5z M289 1212l102 158l361 -280l-62 -91z" />
<glyph unicode="&#xe1;" d="M88 385q0 197 113.5 315.5t255.5 118.5q170 0 282 -157v143h146v-807h-146v125q-72 -76 -134 -111t-142 -35q-164 0 -269.5 114t-105.5 294zM246 399q0 -121 69.5 -205.5t167.5 -84.5q104 0 183 87t79 187q0 141 -81.5 215t-188.5 74q-98 0 -163.5 -83.5t-65.5 -189.5z M432 1083l354 275l103 -158l-395 -207z" />
<glyph unicode="&#xe2;" d="M90 385q0 197 113.5 315.5t255.5 118.5q170 0 282 -157v143h146v-807h-146v125q-72 -76 -134 -111t-142 -35q-164 0 -269.5 114t-105.5 294zM236 1083l276 303l276 -294l-102 -82l-178 176l-170 -187zM248 399q0 -121 69.5 -205.5t167.5 -84.5q104 0 183.5 87t79.5 187 q0 141 -82 215t-189 74q-98 0 -163.5 -83.5t-65.5 -189.5z" />
<glyph unicode="&#xe3;" d="M88 385q0 197 113.5 315.5t255.5 118.5q170 0 282 -157v143h146v-807h-146v125q-72 -76 -134 -111t-142 -35q-164 0 -269.5 114t-105.5 294zM215 1133q35 61 90 103t115 42q53 0 112.5 -34t88.5 -34q51 0 75.5 17.5t42.5 56.5l103 -55q-33 -68 -88.5 -114t-120.5 -46 q-63 0 -122.5 35t-90.5 35q-33 0 -53.5 -18.5t-26.5 -37.5l-4 -18zM246 399q0 -121 69.5 -205.5t167.5 -84.5q104 0 183 87t79 187q0 141 -81.5 215t-188.5 74q-98 0 -163.5 -83.5t-65.5 -189.5z" />
<glyph unicode="&#xe4;" d="M88 385q0 197 113.5 315.5t255.5 118.5q170 0 282 -157v143h146v-807h-146v125q-72 -76 -134 -111t-142 -35q-164 0 -269.5 114t-105.5 294zM195 1161q0 45 30.5 77t75.5 32q39 0 66.5 -29t27.5 -70t-28.5 -70.5t-71.5 -31.5q-43 0 -71.5 26.5t-28.5 65.5zM246 399 q0 -121 69.5 -205.5t167.5 -84.5q104 0 183 87t79 187q0 141 -81.5 215t-188.5 74q-98 0 -163.5 -83.5t-65.5 -189.5zM590 1161q0 45 30.5 77t75.5 32q39 0 67 -29t28 -70t-29 -70.5t-72 -31.5q-43 0 -71.5 26.5t-28.5 65.5z" />
<glyph unicode="&#xe5;" d="M88 385q0 197 113.5 315.5t255.5 118.5q170 0 282 -157v143h146v-807h-146v125q-72 -76 -134 -111t-142 -35q-164 0 -269.5 114t-105.5 294zM246 399q0 -121 69.5 -205.5t167.5 -84.5q104 0 183 87t79 187q0 141 -81.5 215t-188.5 74q-98 0 -163.5 -83.5t-65.5 -189.5z M346 1188q0 92 63.5 156.5t159.5 64.5q92 0 152 -68q57 -65 57 -146q0 -89 -60 -152q-58 -60 -149 -68h-12q-94 0 -152.5 63.5t-58.5 149.5zM467 1192q0 -43 27.5 -70.5t72.5 -27.5q37 0 66 29.5t29 68.5t-29 66.5t-70 27.5q-43 0 -69.5 -28.5t-26.5 -65.5z" />
<glyph unicode="&#xe6;" horiz-adv-x="1519" d="M43 385q0 197 113.5 315.5t255.5 118.5q170 0 282 -157v143h146v-125q115 143 282 143q184 0 286 -125q96 -118 96 -304q0 -11 -1 -23h-604v-11q0 -88 63 -157q67 -74 187 -74q74 0 138.5 51t82.5 111l119 -66q-49 -104 -144.5 -168.5t-224.5 -64.5q-166 0 -280 143v-137 h-146v125q-72 -76 -134 -111t-142 -35q-164 0 -269.5 114t-105.5 294zM201 399q0 -121 69.5 -205.5t167.5 -84.5q104 0 183 87t79 187q0 141 -81.5 215t-188.5 74q-98 0 -163.5 -83.5t-65.5 -189.5zM903 502h426q0 59 -61.5 122.5t-147.5 63.5q-90 0 -151.5 -57t-65.5 -129z " />
<glyph unicode="&#xe7;" horiz-adv-x="817" d="M78 424q0 182 124 297t310 115q135 0 201 -50l6 -180q-111 86 -223 86q-115 0 -191 -75.5t-76 -190.5t82 -197t199 -82q55 0 98 16.5t113 63.5l4 -161q-129 -66 -236 -66h-8l-22 -76q66 -8 99.5 -50t33.5 -101q0 -82 -57.5 -128t-118.5 -46q-106 0 -142 47l45 94 q43 -47 103 -47q27 0 49.5 21.5t22.5 52.5q0 61 -74 77l-90 2l57 164q-139 31 -224 142.5t-85 271.5z" />
<glyph unicode="&#xe8;" horiz-adv-x="907" d="M51 408q0 182 105.5 298.5t283.5 116.5q184 0 286 -125q96 -118 96 -304q0 -11 -1 -23h-604v-11q0 -88 63 -157q67 -74 187 -74q74 0 138.5 51t82.5 111l119 -66q-49 -104 -144.5 -168.5t-224.5 -64.5q-172 0 -279.5 120t-107.5 296zM145 1212l103 158l360 -280l-61 -91z M221 502h426q0 59 -61.5 122.5t-147.5 63.5q-90 0 -151.5 -57t-65.5 -129z" />
<glyph unicode="&#xe9;" horiz-adv-x="907" d="M51 408q0 182 105.5 298.5t283.5 116.5q184 0 286 -125q96 -118 96 -304q0 -11 -1 -23h-604v-11q0 -88 63 -157q67 -74 187 -74q74 0 138.5 51t82.5 111l119 -66q-49 -104 -144.5 -168.5t-224.5 -64.5q-172 0 -279.5 120t-107.5 296zM221 502h426q0 59 -61.5 122.5 t-147.5 63.5q-90 0 -151.5 -57t-65.5 -129zM350 1083l355 275l102 -158l-395 -207z" />
<glyph unicode="&#xea;" horiz-adv-x="907" d="M51 408q0 182 105.5 298.5t283.5 116.5q184 0 286 -125q96 -118 96 -304q0 -11 -1 -23h-604v-11q0 -88 63 -157q67 -74 187 -74q74 0 138.5 51t82.5 111l119 -66q-49 -104 -144.5 -168.5t-224.5 -64.5q-172 0 -279.5 120t-107.5 296zM172 1083l277 303l276 -294l-102 -82 l-179 176l-170 -187zM221 502h426q0 59 -61.5 122.5t-147.5 63.5q-90 0 -151.5 -57t-65.5 -129z" />
<glyph unicode="&#xeb;" horiz-adv-x="907" d="M51 408q0 182 105.5 298.5t283.5 116.5q184 0 286 -125q96 -118 96 -304q0 -11 -1 -23h-604v-11q0 -88 63 -157q67 -74 187 -74q74 0 138.5 51t82.5 111l119 -66q-49 -104 -144.5 -168.5t-224.5 -64.5q-172 0 -279.5 120t-107.5 296zM152 1161q0 45 30.5 77t75.5 32 q39 0 66.5 -29t27.5 -70t-28.5 -70.5t-71.5 -31.5q-43 0 -71.5 26.5t-28.5 65.5zM221 502h426q0 59 -61.5 122.5t-147.5 63.5q-90 0 -151.5 -57t-65.5 -129zM547 1161q0 45 30.5 77t75.5 32q39 0 67 -29t28 -70t-29 -70.5t-72 -31.5q-43 0 -71.5 26.5t-28.5 65.5z" />
<glyph unicode="&#xec;" horiz-adv-x="356" d="M-82 1243l158 109l145 -297l-96 -56zM106 0v811h158v-811h-158z" />
<glyph unicode="&#xed;" horiz-adv-x="454" d="M106 0v811h158v-811h-158zM133 1055l146 297l157 -109l-207 -244z" />
<glyph unicode="&#xee;" horiz-adv-x="356" d="M-100 1083l276 303l277 -294l-103 -82l-178 176l-170 -187zM106 0v811h158v-811h-158z" />
<glyph unicode="&#xef;" horiz-adv-x="356" d="M-76 1161q0 45 31 77t76 32q39 0 66.5 -29t27.5 -70t-28.5 -70.5t-71.5 -31.5q-43 0 -72 26.5t-29 65.5zM106 0v811h158v-811h-158zM240 1161q0 45 30.5 77t75.5 32q39 0 66.5 -29t27.5 -70t-28.5 -70.5t-71.5 -31.5q-43 0 -71.5 26.5t-28.5 65.5z" />
<glyph unicode="&#xf0;" horiz-adv-x="1021" d="M66 397q0 176 122.5 299t309.5 123q150 0 260 -94v149h-162v150h162v121q0 68 -35 106.5t-84 38.5q-72 0 -98 -12v125q55 18 92 18q125 0 198.5 -71.5t73.5 -225.5v-100h66v-150h-66v-475q0 -168 -109.5 -287.5t-283.5 -134.5h-25q-184 0 -302.5 126t-118.5 294zM217 403 q0 -115 78 -193.5t194 -78.5q98 0 183.5 77t85.5 191v11q-4 102 -82 179t-180 77q-119 0 -199 -81.5t-80 -181.5z" />
<glyph unicode="&#xf1;" horiz-adv-x="909" d="M123 0v811h160v-111q82 121 243 121q113 0 199 -65.5t86 -214.5v-541h-158v502q0 88 -45 135t-121 47q-88 0 -146 -62.5t-58 -156.5v-465h-160zM184 1133q35 61 90.5 103t114.5 42q53 0 112.5 -34t88.5 -34q51 0 75.5 17.5t43.5 56.5l102 -55q-33 -68 -88 -114t-121 -46 q-61 0 -120.5 35t-92.5 35t-53.5 -18.5t-24.5 -37.5l-6 -18z" />
<glyph unicode="&#xf2;" horiz-adv-x="1003" d="M84 397q0 176 123 299t309 123q180 0 295 -127q113 -125 113 -287q0 -171 -111 -293q-109 -120 -283 -135h-24q-184 0 -303 126t-119 294zM236 403q0 -115 77.5 -193.5t194.5 -78.5q98 0 183 77t85 191q0 104 -77.5 185.5t-184.5 81.5q-119 0 -198.5 -81.5t-79.5 -181.5z M285 1212l102 158l361 -280l-62 -91z" />
<glyph unicode="&#xf3;" horiz-adv-x="1003" d="M84 397q0 176 123 299t309 123q180 0 295 -127q113 -125 113 -287q0 -171 -111 -293q-109 -120 -283 -135h-24q-184 0 -303 126t-119 294zM236 403q0 -115 77.5 -193.5t194.5 -78.5q98 0 183 77t85 191q0 104 -77.5 185.5t-184.5 81.5q-119 0 -198.5 -81.5t-79.5 -181.5z M389 1083l354 275l103 -158l-395 -207z" />
<glyph unicode="&#xf4;" horiz-adv-x="1003" d="M84 397q0 176 123 299t309 123q180 0 295 -127q113 -125 113 -287q0 -171 -111 -293q-109 -120 -283 -135h-24q-184 0 -303 126t-119 294zM236 403q0 -115 77.5 -193.5t194.5 -78.5q98 0 183 77t85 191q0 104 -77.5 185.5t-184.5 81.5q-119 0 -198.5 -81.5t-79.5 -181.5z M240 1083l276 303l277 -294l-103 -82l-178 176l-170 -187z" />
<glyph unicode="&#xf5;" horiz-adv-x="1003" d="M84 397q0 176 123 299t309 123q180 0 295 -127q113 -125 113 -287q0 -171 -111 -293q-109 -120 -283 -135h-24q-184 0 -303 126t-119 294zM195 1133q35 61 90 103t114 42q53 0 112.5 -34t88.5 -34q51 0 75.5 17.5t43.5 56.5l102 -55q-33 -68 -88 -114t-121 -46 q-63 0 -122.5 35t-90.5 35q-33 0 -53 -18.5t-27 -37.5l-4 -18zM236 403q0 -115 77.5 -193.5t194.5 -78.5q98 0 183 77t85 191q0 104 -77.5 185.5t-184.5 81.5q-119 0 -198.5 -81.5t-79.5 -181.5z" />
<glyph unicode="&#xf6;" horiz-adv-x="1003" d="M84 397q0 176 123 299t309 123q180 0 295 -127q113 -125 113 -287q0 -171 -111 -293q-109 -120 -283 -135h-24q-184 0 -303 126t-119 294zM236 403q0 -115 77.5 -193.5t194.5 -78.5q98 0 183 77t85 191q0 104 -77.5 185.5t-184.5 81.5q-119 0 -198.5 -81.5t-79.5 -181.5z M260 1161q0 45 31 77t76 32q39 0 66.5 -29t27.5 -70t-29 -70.5t-72 -31.5q-43 0 -71.5 26.5t-28.5 65.5zM602 1163q0 45 31 77t76 32q39 0 66.5 -29t27.5 -69.5t-29 -70.5t-72 -32q-43 0 -71.5 26.5t-28.5 65.5z" />
<glyph unicode="&#xf7;" horiz-adv-x="1261" d="M211 571v119h833v-119h-833zM535 322q0 41 31.5 69.5t76.5 28.5q39 0 66.5 -29t27.5 -67q0 -41 -30.5 -71t-73.5 -30q-39 0 -68.5 30t-29.5 69zM535 950q0 41 31.5 70t76.5 29q39 0 66.5 -29t27.5 -68q0 -41 -30.5 -70.5t-73.5 -29.5q-39 0 -68.5 28.5t-29.5 69.5z" />
<glyph unicode="&#xf8;" horiz-adv-x="1024" d="M84 397q0 176 123 299t309 123q74 0 143 -26l224 469l75 2l-237 -500q94 -55 148.5 -154.5t54.5 -210.5q-2 -168 -110.5 -287.5t-283.5 -134.5h-24q-78 0 -146 23l-186 -393h-82l203 424q-98 55 -154.5 154t-56.5 212zM236 403q0 -154 124 -233l232 481q-43 14 -78 15 q-119 0 -198.5 -81.5t-79.5 -181.5zM426 141q45 -10 82 -10q98 0 183 77t85 191q0 139 -123 222z" />
<glyph unicode="&#xf9;" horiz-adv-x="884" d="M109 340v471h161v-471q0 -84 48.5 -143.5t138.5 -59.5q70 0 120 47t50 140v487h159v-477q0 -139 -85 -243.5t-263 -104.5q-164 0 -246.5 99t-82.5 255zM147 1212l103 158l360 -280l-61 -91z" />
<glyph unicode="&#xfa;" horiz-adv-x="884" d="M109 340v471h161v-471q0 -84 48.5 -143.5t138.5 -59.5q70 0 120 47t50 140v487h159v-477q0 -139 -85 -243.5t-263 -104.5q-164 0 -246.5 99t-82.5 255zM315 1083l355 275l102 -158l-395 -207z" />
<glyph unicode="&#xfb;" horiz-adv-x="884" d="M109 340v471h161v-471q0 -84 48.5 -143.5t138.5 -59.5q70 0 120 47t50 140v487h159v-477q0 -139 -85 -243.5t-263 -104.5q-164 0 -246.5 99t-82.5 255zM184 1083l277 303l276 -294l-102 -82l-178 176l-170 -187z" />
<glyph unicode="&#xfc;" horiz-adv-x="884" d="M109 340v471h161v-471q0 -84 48.5 -143.5t138.5 -59.5q70 0 120 47t50 140v487h159v-477q0 -139 -85 -243.5t-263 -104.5q-164 0 -246.5 99t-82.5 255zM164 1161q0 45 30.5 77t75.5 32q39 0 67 -29t28 -70t-29 -70.5t-72 -31.5q-43 0 -71.5 26.5t-28.5 65.5zM559 1161 q0 45 31 77t76 32q39 0 66.5 -29t27.5 -70t-29 -70.5t-72 -31.5q-43 0 -71.5 26.5t-28.5 65.5z" />
<glyph unicode="&#xfd;" horiz-adv-x="972" d="M27 807h184l297 -522l256 522h180l-594 -1202q-31 0 -90 -1t-88 -1l256 508zM240 1083l354 275l102 -158l-395 -207z" />
<glyph unicode="&#xfe;" horiz-adv-x="976" d="M141 -395v1829h154l2 -752q106 139 268 139q160 0 266.5 -112.5t106.5 -294.5q0 -190 -103.5 -309t-277.5 -119q-145 0 -264 139v-520h-152zM287 403q0 -123 65.5 -200.5t178 -77.5t180 90t67.5 213q0 111 -69.5 186.5t-176.5 75.5q-109 0 -177 -85t-68 -202z" />
<glyph unicode="&#xff;" horiz-adv-x="972" d="M27 807h184l297 -522l256 522h180l-594 -1202q-31 0 -90 -1t-88 -1l256 508zM170 1161q0 45 30.5 77t75.5 32q39 0 67 -29t28 -70t-29 -70.5t-72 -31.5q-43 0 -71.5 26.5t-28.5 65.5zM565 1161q0 45 31 77t76 32q39 0 66.5 -29t27.5 -70t-28.5 -70.5t-71.5 -31.5 q-43 0 -72 26.5t-29 65.5z" />
<glyph unicode="&#x152;" horiz-adv-x="2021" d="M66 639q0 283 201.5 486.5t480.5 203.5q156 0 294 -65.5t236 -182.5v209h678v-155h-512v-357h512v-155h-512v-467h512v-156h-678v201q-94 -113 -224 -178.5t-274 -65.5h-32q-291 0 -486.5 196.5t-195.5 485.5zM236 623q0 -203 148 -350.5t372 -147.5q203 0 357.5 146.5 t154.5 365.5q0 213 -146.5 365.5t-369.5 152.5q-229 0 -372.5 -152.5t-143.5 -379.5z" />
<glyph unicode="&#x153;" horiz-adv-x="1562" d="M41 397q0 176 123 299t303 123q113 0 207 -53t147 -141q104 168 320 168q184 0 285 -125q96 -118 96 -305v-23h-609v-10q0 -86 65 -154q69 -72 189 -72q74 0 138.5 48.5t83.5 107.5l118 -65q-49 -102 -143 -165t-225 -63q-227 0 -330 189q-111 -160 -322 -179h-24 q-184 0 -303 126t-119 294zM193 403q0 -115 77.5 -193.5t194.5 -78.5q98 0 183 77t85 191q0 104 -79 187.5t-185 83.5q-119 0 -197.5 -83.5t-78.5 -183.5zM920 471h428q0 59 -60.5 122.5t-146.5 63.5q-90 0 -153.5 -57t-67.5 -129z" />
<glyph unicode="&#x178;" horiz-adv-x="1052" d="M41 1282h184l295 -577l309 577h185l-408 -719v-563h-168v551zM236 1540q0 45 30.5 77t75.5 32q39 0 66.5 -29t27.5 -70t-28.5 -70.5t-71.5 -31.5q-43 0 -71.5 26.5t-28.5 65.5zM631 1540q0 45 30.5 77t75.5 32q39 0 66.5 -29t27.5 -70t-28.5 -70.5t-71.5 -31.5 q-43 0 -71.5 26.5t-28.5 65.5z" />
<glyph unicode="&#x2c6;" horiz-adv-x="808" d="M125 1083l276 303l277 -294l-103 -82l-178 176l-170 -187z" />
<glyph unicode="&#x2dc;" horiz-adv-x="864" d="M152 1133q35 61 90 103t114 42q53 0 112.5 -34t88.5 -34q51 0 75.5 17.5t43.5 56.5l102 -55q-33 -68 -88 -114t-121 -46q-61 0 -120.5 35t-92 35t-53 -18.5t-24.5 -37.5l-7 -18z" />
<glyph unicode="&#x3bc;" horiz-adv-x="1097" d="M72 676v135h73v330q0 125 102.5 215t248.5 90q66 0 144.5 -31t123.5 -74q31 45 98 77q60 28 118 28h15q90 0 111 -27v-147q-49 41 -125 41q-51 0 -87 -35t-36 -86v-379h223v-135h-223v-676l-156 -2v676h-407v-676h-150v676h-73zM295 811h407v381q-27 53 -89 91t-124 38 q-80 0 -137 -48t-57 -116v-346z" />
<glyph unicode="&#x2013;" horiz-adv-x="1189" d="M82 387v80h1024v-80h-1024z" />
<glyph unicode="&#x2014;" horiz-adv-x="2048" d="M82 387v80h1884v-80h-1884z" />
<glyph unicode="&#x2018;" horiz-adv-x="454" d="M133 868v181q0 88 45 145t111 57v-84q-61 -2 -62 -92h88v-207h-182z" />
<glyph unicode="&#x2019;" horiz-adv-x="454" d="M135 1128v207h182v-180q0 -88 -45 -145.5t-110 -57.5v84q61 2 61 92h-88z" />
<glyph unicode="&#x201a;" horiz-adv-x="446" d="M131 -4v207h182v-180q0 -88 -45 -145.5t-110 -57.5v84q61 2 61 92h-88z" />
<glyph unicode="&#x201c;" horiz-adv-x="909" d="M135 860v180q0 84 46 143.5t110 59.5v-84q-61 -2 -62 -92h88v-207h-182zM594 860v180q0 88 45 145.5t111 57.5v-84q-61 -2 -62 -92h88v-207h-182z" />
<glyph unicode="&#x201d;" horiz-adv-x="909" d="M131 1128v207h182v-180q0 -88 -45 -145.5t-110 -57.5v84q61 2 61 92h-88zM590 1128v207h182v-180q0 -84 -46 -143.5t-110 -59.5v84q61 2 62 92h-88z" />
<glyph unicode="&#x201e;" horiz-adv-x="894" d="M131 -4v207h182v-180q0 -88 -45 -145.5t-110 -57.5v84q61 2 61 92h-88zM590 -4v207h182v-180q0 -84 -46 -143.5t-110 -59.5v84q61 2 62 92h-88z" />
<glyph unicode="&#x2022;" horiz-adv-x="790" d="M121 467q0 109 73.5 187.5t182.5 82.5q125 0 213 -82t88 -196.5t-81 -196.5t-196 -82q-117 0 -198.5 84t-81.5 203z" />
<glyph unicode="&#x2026;" horiz-adv-x="1363" d="M98 98.5q0 51.5 35 89t82 37.5q57 0 96 -36.5t39 -90t-39 -91.5t-96 -38q-47 4 -82 41t-35 88.5zM559 98.5q0 51.5 35 89t82 37.5q57 0 96 -36.5t39 -90t-39 -91.5t-96 -38q-47 4 -82 41t-35 88.5zM1018 98.5q0 51.5 34.5 89t82.5 37.5q57 0 96 -36.5t39 -90t-39 -91.5 t-96 -38q-47 4 -82 41t-35 88.5z" />
<glyph unicode="&#x2039;" horiz-adv-x="534" d="M47 541l322 442l84 -68l-250 -362l268 -338l-82 -82z" />
<glyph unicode="&#x203a;" horiz-adv-x="577" d="M86 215l268 338l-250 362l84 68l322 -442l-342 -408z" />
<glyph unicode="&#x20ac;" horiz-adv-x="1251" d="M18 733l80 141h88q68 197 238 318t395 121q242 0 395 -121q29 -25 54 -49l-99 -127q-147 139 -354 139q-141 0 -259 -78t-183 -203h751l-80 -141h-718q-6 -49 -6 -88q0 -31 4 -55h667l-82 -139h-544q61 -133 183 -216t263 -83q139 0 240 45q27 12 116 69l88 -116 q-131 -154 -464 -154q-209 0 -375 127t-232 328h-159l79 139h54q-4 42 -4 77.5t4 65.5h-140z" />
<glyph unicode="&#x2122;" horiz-adv-x="1570" d="M14 1288v111h514v-111h-192v-680h-125v680h-197zM590 608l180 869l283 -631l290 633l168 -867h-141l-78 482l-237 -527l-240 527l-50 -268l-42 -218h-133z" />
<glyph unicode="&#xe000;" horiz-adv-x="805" d="M0 805h805v-805h-805v805z" />
<glyph unicode="&#xfb01;" horiz-adv-x="1024" d="M72 676v135h73v330q0 139 104.5 226t258.5 89q154 0 258 -72.5t104 -189.5v-84h-157v57q0 74 -60.5 116t-154.5 42q-86 0 -144.5 -55.5t-58.5 -149.5v-309h223v-135h-223v-676h-150v676h-73zM713 0v811h157v-811h-157z" />
<glyph unicode="&#xfb02;" horiz-adv-x="1024" d="M92 676v135h74l2 324q2 137 107.5 225t259.5 90q147 0 246.5 -87t99.5 -208v-1155h-154l-4 1071v57q0 80 -55.5 135.5t-143.5 55.5q-86 0 -144 -55.5t-58 -149.5v-303h223v-135h-223v-676h-156v676h-74z" />
<glyph unicode="&#xfb03;" horiz-adv-x="1478" d="M1216 1161q0 45 31 77t76 32q39 0 66.5 -29t27.5 -70t-28.5 -70.5t-71.5 -31.5q-43 0 -72 26.5t-29 65.5zM1228 0v811h158v-811h-158zM653 676v135h74v330q0 170 87 240q80 65 197 65h21q55 0 74 -23v-137q-53 27 -107 27q-49 0 -86 -36t-37 -103v-363h224v-135h-224 v-676h-149v676h-74zM92 676v135h74v330q0 170 87 240q80 65 197 65h21q55 0 74 -23v-137q-53 27 -107 27q-49 0 -86 -36t-37 -103v-363h224v-135h-224v-676h-149v676h-74z" />
<glyph unicode="&#xfb04;" horiz-adv-x="1495" d="M1235 0v1434h157v-1434h-157zM653 676v135h74v330q0 170 87 240q80 65 197 65h21q55 0 74 -23v-137q-53 27 -107 27q-49 0 -86 -36t-37 -103v-363h224v-135h-224v-676h-149v676h-74zM92 676v135h74v330q0 170 87 240q80 65 197 65h21q55 0 74 -23v-137q-53 27 -107 27 q-49 0 -86 -36t-37 -103v-363h224v-135h-224v-676h-149v676h-74z" />
<glyph horiz-adv-x="438" />
</font>
</defs>
</svg>
