<?xml version="1.0" standalone="no"?>
<!DOCTYPE svg PUBLIC "-//W3C//DTD SVG 1.1//EN" "http://www.w3.org/Graphics/SVG/1.1/DTD/svg11.dtd" >
<svg xmlns="http://www.w3.org/2000/svg">
<metadata>
This is a custom SVG webfont generated by Font Squirrel.
Copyright   : URW America Inc Copyright 1998 by URW
</metadata>
<defs>
<font id="SeriesF2000Normal" horiz-adv-x="661" >
<font-face units-per-em="2048" ascent="1884" descent="-164" />
<missing-glyph horiz-adv-x="409" />
<glyph unicode=" "  horiz-adv-x="409" />
<glyph unicode="&#x09;" horiz-adv-x="409" />
<glyph unicode="&#xa0;" horiz-adv-x="409" />
<glyph unicode="!" horiz-adv-x="274" d="M82 45q0 23 16.5 39t40.5 16q23 0 39.5 -16t16.5 -39q0 -25 -16.5 -41t-39.5 -16q-25 0 -41 16t-16 41zM82 444v140h111v-140l-17 -290h-76z" />
<glyph unicode="&#x22;" horiz-adv-x="458" d="M82 584h108l-16 -236h-74zM266 584h111l-19 -236h-73z" />
<glyph unicode="#" horiz-adv-x="532" d="M12 166l13 88h92l12 86h-90l14 90h90l25 154h100l-26 -154h88l26 154h101l-25 -154h90l-14 -90h-90l-12 -86h90l-13 -88h-92l-26 -166h-105l29 166h-86l-27 -166h-100l26 166h-90zM217 254h86l14 86h-88z" />
<glyph unicode="$" d="M57 78l64 90q96 -66 223 -66q152 0 152 68q0 41 -56 61q-39 14 -139 33q-121 25 -162 66q-45 45 -45 102q0 92 99 133q39 18 90 25v2v2v2v2v2v2v2v2v2v4v2v2v2v3v4v2v4v2v2v4v2v4v4v2v4v2v5v4v18h112l-2 -49q0 -47 2 -45q84 -12 172 -66l-59 -92q-80 49 -182 49 q-121 0 -121 -47q0 -23 28.5 -38t60.5 -19t54 -8q106 -18 170 -52q86 -47 86 -151q0 -76 -55 -120t-156 -54v-96h-108v98q-122 8 -228 84z" />
<glyph unicode="&#x26;" horiz-adv-x="749" d="M57 160q0 55 36 96t120 80q-55 49 -55 123q0 61 45 98t121 37q80 0 127 -38t47 -101q0 -74 -103 -138l131 -124q23 20 31 40l8 21l111 2l-17 -43q-16 -41 -57 -90l125 -123h-166l-43 43l-16 -8q-16 -8 -41 -18.5t-67 -18.5t-87 -8q-117 0 -183.5 45t-66.5 125zM168 164 q0 -35 36 -54.5t95 -19.5q55 2 96 14.5t41 16.5l-157 147q-111 -57 -111 -104zM270 455q0 -25 33 -52l27 -22l35 29q23 16 22 39q0 43 -57 43q-60 0 -60 -37z" />
<glyph unicode="(" horiz-adv-x="272" d="M57 295q0 137 84 289h113q-86 -164 -86 -289q0 -137 86 -295h-109q-88 162 -88 295z" />
<glyph unicode=")" horiz-adv-x="272" d="M18 0q86 158 86 295q0 125 -86 289h113q84 -152 84 -289q0 -133 -88 -295h-109z" />
<glyph unicode="*" horiz-adv-x="403" d="M41 434l27 90q78 -20 88 -26q-6 23 -6 86h106q0 -59 -6 -88q10 8 84 26l28 -90q-59 -16 -83 -20q10 -6 57 -62l-80 -57q0 -2 -22.5 26.5t-28.5 42.5q-6 -14 -29.5 -41.5t-25.5 -27.5l-80 55l53 64q-19 2 -82 22z" />
<glyph unicode="+" horiz-adv-x="423" d="M23 244v110h133v127h110v-127h135v-110h-135v-131h-110v131h-133z" />
<glyph unicode="," horiz-adv-x="159" d="M23 45q0 23 15 38t38 15q27 0 44 -17.5t17 -41.5q0 -57 -49 -102l-35 16l29 39q-59 0 -59 53z" />
<glyph unicode="-" horiz-adv-x="251" d="M23 154v108h206v-108h-206z" />
<glyph unicode="." horiz-adv-x="194" d="M41 43q0 25 16.5 41t38.5 16q25 0 41.5 -16t16.5 -39q0 -25 -16.5 -41t-39.5 -16q-25 0 -41 16t-16 39z" />
<glyph unicode="/" horiz-adv-x="622" d="M0 0l506 877h117l-506 -877h-117z" />
<glyph unicode="0" horiz-adv-x="679" d="M57 293q0 131 79 216t204 85q127 0 205 -85t78 -214q0 -133 -79 -220t-204 -87t-204 87t-79 218zM168 293q0 -86 48 -140.5t124 -54.5t124 54.5t48 140.5t-47 137t-125 51t-125 -52t-47 -136z" />
<glyph unicode="1" horiz-adv-x="356" d="M82 428v82q82 4 108 74h84v-584h-110v428h-82z" />
<glyph unicode="2" d="M68 0q0 9 -1 17q0 87 38 150q42 69 104.5 101.5t126 55t108.5 46.5q43 23 44 51q0 63 -118 64q-9 0 -19 -1q-134 -5 -199 -72l-76 84q115 80 238 94q30 3 58 3q86 0 146 -34q82 -46 82 -132q0 -39 -15 -72q-17 -36 -56.5 -61.5t-70 -38.5t-85.5 -34l-45 -16 q-23 -8 -44.5 -18.5t-39 -20.5t-29.5 -24.5t-18 -30.5h407v-111h-536z" />
<glyph unicode="3" d="M57 102l76 78q82 -80 211 -80q152 0 152 84q0 47 -41 68q-18 10 -58 10h-63v111h63q63 0 64 47q0 31 -39 49q-31 12 -84 12q-100 0 -178 -57l-66 86q109 84 244 84q100 0 165.5 -48t65.5 -122q0 -57 -45 -105q80 -49 80 -139t-80 -147q-66 -43 -174 -43q-150 0 -244 69 q-18 12 -49 43z" />
<glyph unicode="4" horiz-adv-x="698" d="M23 111v106l413 367h109v-367h71v-106h-71v-111h-109v111h-413zM178 217h258v225z" />
<glyph unicode="5" d="M57 39l43 102q106 -39 236 -39q94 0 135 37q25 29 25 62q0 47 -50 75q-45 23 -106 23q-70 0 -158 -25l-106 19l16 291h459v-111h-356l-5 -86q59 23 146 23q131 0 209 -72q59 -53 59 -137q0 -111 -94 -170q-68 -41 -174 -41q-152 0 -279 49z" />
<glyph unicode="6" horiz-adv-x="663" d="M57 244q0 145 103.5 247.5t249.5 102.5q45 0 96 -16l-31 -107q-37 10 -65 10q-66 0 -125.5 -31.5t-87.5 -84.5l-17 -35q66 25 164 24q119 0 190.5 -49t71.5 -129q0 -98 -84 -142t-192 -44q-273 0 -273 254zM170 172q0 -31 47 -50.5t117 -19.5q162 0 162 70q0 35 -43 55.5 t-117 20.5q-72 0 -119 -21.5t-47 -54.5z" />
<glyph unicode="7" horiz-adv-x="593" d="M23 473v111h548v-111q-72 -63 -108 -121q-106 -160 -107 -352h-108q0 266 168 473h-393z" />
<glyph unicode="8" horiz-adv-x="663" d="M57 180q0 74 72 139q-45 51 -45 109q0 76 66.5 121t179.5 45q111 0 180.5 -46t69.5 -122q0 -59 -45 -107q72 -61 71 -135q0 -51 -29.5 -97t-78.5 -71q-53 -27 -168 -26q-141 0 -203 47q-70 53 -70 143zM166 180q0 -35 46 -56.5t120 -21.5q166 0 166 82q0 37 -46 58.5 t-120 21.5q-166 0 -166 -84zM193 428q0 -53 137 -53q141 0 141 53t-139 53t-139 -53z" />
<glyph unicode="9" horiz-adv-x="663" d="M57 403q0 98 84 142.5t193 44.5q272 0 272 -254q0 -145 -104.5 -246.5t-247.5 -101.5q-51 0 -98 14l32 107q47 -14 66 -15q63 0 122.5 34t88.5 89q10 12 16 33q-72 -25 -164 -25q-117 0 -188.5 49t-71.5 129zM168 407.5q0 -71.5 160 -71.5q158 0 157 74q0 31 -45 50 t-112 19q-160 0 -160 -71.5z" />
<glyph unicode=":" horiz-adv-x="159" d="M23 43q0 25 16 41t41 16q23 0 39 -16t16 -41v2q0 -25 -16.5 -41t-38.5 -16q-25 0 -41 16t-16 39zM23 317.5q0 22.5 16 40t41 17.5q23 0 39 -17.5t16 -40t-16.5 -40t-38.5 -17.5q-25 0 -41 17.5t-16 40z" />
<glyph unicode="=" horiz-adv-x="423" d="M23 158v110h378v-110h-378zM23 328v110h378v-110h-378z" />
<glyph unicode="?" horiz-adv-x="606" d="M57 371q2 102 49 153q63 70 203 70q109 0 174.5 -47t65.5 -127q0 -68 -55 -115q-6 -6 -18.5 -14t-18.5 -15l-39 -26q-33 -23 -42 -39t-9 -53h-105q2 63 18.5 88.5t86.5 75.5q72 47 71 90q0 33 -35.5 52t-95.5 19q-137 0 -139 -112h-111zM260 47.5q0 22.5 16.5 37.5 t38.5 15q20 0 37 -15t17 -37.5t-15.5 -39t-38 -16.5t-39 16.5t-16.5 39z" />
<glyph unicode="@" horiz-adv-x="702" d="M57 293q0 133 85 217t218 84q123 0 203 -74t80 -188q0 -82 -45 -145.5t-109 -63.5q-43 0 -65 35q-41 -41 -98.5 -41t-95 43t-37.5 106q0 74 48 129.5t115 55.5q47 0 78 -31l4 20h86l-35 -188q-6 -31 -6 -35q0 -18 11 -18q23 0 46 40t23 91q0 82 -54 133t-144 51 q-98 0 -160 -62.5t-62 -160.5q0 -94 62 -160q57 -61 164 -61q90 0 178 39l22 -80q-96 -41 -200 -41q-133 0 -222 84q-90 86 -90 221zM287 268q0 -63 51 -63q29 0 50.5 27.5t21.5 70.5q0 57 -50 57q-29 0 -51 -27.5t-22 -64.5z" />
<glyph unicode="A" horiz-adv-x="708" d="M23 0l276 584h111l276 -584h-123l-59 127h-297l-62 -127h-122zM258 240h193l-97 202z" />
<glyph unicode="B" horiz-adv-x="688" d="M82 0v584h358q70 0 116 -44t46 -112q0 -90 -55 -119q84 -35 84 -131q0 -84 -49.5 -131t-126.5 -47h-373zM193 111h233q96 0 92 67q0 76 -90 76h-235v-143zM193 365h233q66 0 66 63q0 45 -66 45h-233v-108z" />
<glyph unicode="C" horiz-adv-x="647" d="M57 291q0 127 89.5 215t215.5 88q141 0 244 -129l-90 -64q-66 80 -158 80q-80 0 -135 -55t-55 -133q0 -80 55.5 -135.5t134.5 -55.5q68 0 123 43q18 18 35 37l90 -61q-39 -53 -76 -76q-78 -55 -172 -55q-125 0 -213 88t-88 213z" />
<glyph unicode="D" horiz-adv-x="688" d="M82 0v584h256q121 0 207 -85t86 -206t-86 -207t-207 -86h-256zM193 111h145q76 0 128 53t52 129q0 74 -52 127t-128 53h-145v-362z" />
<glyph unicode="E" horiz-adv-x="612" d="M82 0v584h465v-111h-354v-106h204v-113h-204v-143h362v-111h-473z" />
<glyph unicode="F" horiz-adv-x="612" d="M82 0v584h473v-111h-362v-106h217v-113h-217v-254h-111z" />
<glyph unicode="G" d="M57 291q0 135 82 219t215 84q90 0 156 -45q39 -27 84 -84l-92 -64q-57 80 -150 80q-84 0 -134 -52t-50 -140q0 -84 47 -135.5t123 -51.5q78 0 121 54q16 20 28 51h-131v112h248v-65q0 -111 -76.5 -187.5t-189.5 -76.5q-127 0 -207 90q-74 80 -74 211z" />
<glyph unicode="H" horiz-adv-x="710" d="M82 0v584h111v-217h327v217h109v-584h-109v254h-327v-254h-111z" />
<glyph unicode="I" horiz-adv-x="274" d="M82 0v584h111v-584h-3h-2h-2h-2h-2h-2h-2h-2h-2h-2h-4h-2h-2h-2h-2h-4h-2h-2h-5h-2h-2h-4h-2h-4h-2h-4h-4h-2h-4h-2h-4h-5h-2h-4h-18z" />
<glyph unicode="J" horiz-adv-x="587" d="M23 182l106 23q10 -47 46 -75t85 -28q59 0 97 41t38 107v334h111v-332q0 -82 -33 -139q-33 -55 -91 -89t-124 -34q-84 0 -148 52t-87 140z" />
<glyph unicode="K" horiz-adv-x="651" d="M82 0v584h111v-258l243 258h150l-185 -201l228 -383h-127l-178 299l-131 -135v-164h-111z" />
<glyph unicode="L" horiz-adv-x="606" d="M82 0v584h111v-473h391v-111h-502z" />
<glyph unicode="M" horiz-adv-x="794" d="M82 0v584h102l207 -367l217 367h105v-584h-111v346l-211 -346l-201 346v-346h-108z" />
<glyph unicode="N" horiz-adv-x="712" d="M82 0v584h108l328 -408v408h113v-584h-111l-327 403v-403h-111z" />
<glyph unicode="O" horiz-adv-x="724" d="M57 293q0 127 88 214t217 87q123 0 214.5 -89t91.5 -210q0 -125 -90.5 -215t-215 -90t-215 89t-90.5 214zM168 295q0 -80 57.5 -136.5t137 -56.5t137 56.5t57.5 136.5v-2q0 78 -57.5 133t-137 55t-137 -54t-57.5 -132z" />
<glyph unicode="P" horiz-adv-x="688" d="M82 0v584h367q76 0 129 -53.5t53 -129t-53.5 -129t-128.5 -53.5h-256v-219h-111zM193 330h256q29 0 49 21.5t20 50t-20.5 50t-48.5 21.5h-256v-143z" />
<glyph unicode="Q" horiz-adv-x="727" d="M57 293q0 125 89.5 213t216 88t217 -88t90.5 -213q0 -137 -97 -221l33 -52l-94 -61l-33 53q-47 -23 -117 -22q-125 0 -215 89t-90 214zM168 293q0 -80 57.5 -135.5t136.5 -55.5q41 0 56 4l-51 82l94 60l51 -80q47 47 47 125t-57.5 133t-139.5 55q-80 0 -137 -55t-57 -133 z" />
<glyph unicode="R" horiz-adv-x="688" d="M82 0v584h356q76 0 130.5 -53.5t54.5 -129.5q0 -57 -34 -104t-91 -68l133 -229h-129l-129 219h-180v-219h-111zM193 330h245q31 0 52.5 21.5t21.5 50t-21.5 50t-52.5 21.5h-245v-143z" />
<glyph unicode="S" d="M57 78l64 90q96 -66 223 -66q152 0 152 68q0 41 -56 61q-39 14 -139 33q-121 25 -162 66q-45 45 -45 102q0 92 99 133q63 29 141 29q119 0 233 -70l-59 -92q-80 49 -182 49q-121 0 -121 -47q0 -23 28.5 -38t60.5 -19t54 -8q106 -18 170 -52q86 -47 86 -151 q0 -84 -67.5 -130t-188.5 -46q-168 0 -291 88z" />
<glyph unicode="T" horiz-adv-x="546" d="M23 473v111h501v-111h-190v-473h-111v473h-200z" />
<glyph unicode="U" horiz-adv-x="710" d="M82 276v308h111v-308q0 -53 22 -94q47 -80 141 -80q96 0 140 80q23 37 22 94v308h111v-308q0 -90 -35 -151q-37 -61 -101.5 -98t-136 -37t-137 36.5t-100.5 98.5q-37 67 -37 151z" />
<glyph unicode="V" horiz-adv-x="655" d="M23 584h118l187 -449l182 449h123l-238 -584h-135z" />
<glyph unicode="W" horiz-adv-x="727" d="M23 584h112l76 -357l98 357h109l98 -357l76 357h113l-123 -584h-119l-101 365l-100 -365h-117z" />
<glyph unicode="X" horiz-adv-x="638" d="M23 0l227 303l-209 281h137l141 -187l142 187h137l-209 -281l227 -303h-137l-160 211l-159 -211h-137z" />
<glyph unicode="Y" horiz-adv-x="708" d="M23 584h141l190 -240l191 240h141l-276 -348v-236h-111v236z" />
<glyph unicode="Z" horiz-adv-x="628" d="M41 0v111l385 362h-367v111h529v-111l-385 -362h385v-111h-547z" />
<glyph unicode="a" horiz-adv-x="559" d="M47 133q0 63 58.5 106.5t146.5 43.5q61 0 127 -17q-2 41 -24.5 56.5t-73.5 15.5q-59 0 -148 -37l-47 92q102 43 195 43q209 0 208 -178v-258h-122v18q-2 0 -27 -8q-55 -18 -104 -18q-82 0 -135.5 40t-53.5 101zM158 141q0 -54 75 -54q54 0 146 28v59q-33 20 -127 20 t-94 -53z" />
<glyph unicode="b" horiz-adv-x="579" d="M70 0v555l112 39v-191q49 29 119 29q98 0 164.5 -63.5t66.5 -155.5q0 -94 -66.5 -157.5t-162.5 -63.5q-82 0 -121 31v-23h-112zM182 139q43 -43 103 -43q22 0 47 6q90 23 90 111q0 92 -90 111q-23 5 -43 4q-62 0 -107 -41v-148z" />
<glyph unicode="c" horiz-adv-x="485" d="M47 213q0 92 67.5 155.5t164.5 63.5q111 0 176 -76v2l-68 -90q-41 59 -108 60q-47 0 -83 -33t-36 -82q0 -51 35.5 -83t83.5 -32q70 0 102 49l76 -77q-68 -78 -178 -78q-96 0 -164 64.5t-68 156.5z" />
<glyph unicode="d" horiz-adv-x="579" d="M47 213q0 92 67.5 155.5t166.5 63.5q68 0 116 -29v148l113 43v-594h-111q0 23 -2 23q-43 -31 -118 -31q-98 0 -165 63.5t-67 157.5zM158 213q0 -57 44 -89q38 -27 85 -27h15q56 5 95 42v148q-45 41 -106 41q-21 0 -43 -4q-90 -19 -90 -111z" />
<glyph unicode="e" horiz-adv-x="559" d="M47 213q0 92 67.5 155.5t164.5 63.5q102 0 165.5 -64.5t67.5 -187.5h-350q10 -37 44 -61.5t70 -24.5q53 0 93 31l84 -76q-78 -59 -174.5 -59t-164 65.5t-67.5 157.5zM162 264h223v-2q-8 31 -39 48.5t-67 17.5q-47 0 -78 -20.5t-39 -43.5z" />
<glyph unicode="f" horiz-adv-x="288" d="M18 324v100h64v63q0 106 127 107q20 0 61 -4v-92q-20 2 -37 2q-39 0 -38 -39v-37h75v-100h-75v-324h-113v324h-64z" />
<glyph unicode="g" horiz-adv-x="552" d="M47 211q0 96 53.5 159.5t149.5 63.5q78 0 123 -35v27h110v-422q0 -98 -53 -149.5t-158 -83.5l-49 94q45 8 97.5 43t52.5 78v43q-39 -37 -125 -37h-6q-90 0 -142 61q-53 64 -53 158zM158 211q0 -61 38 -90q31 -24 70 -24q8 0 17 1q49 6 90 37v152q-35 35 -85 42 q-10 1 -19 1q-39 0 -71 -24q-40 -29 -40 -95z" />
<glyph unicode="h" horiz-adv-x="573" d="M70 0v555l110 39v-203q47 43 135 43q86 0 137.5 -40t51.5 -118v-276h-111v236q0 100 -106.5 100t-106.5 -105v-231h-110z" />
<glyph unicode="i" horiz-adv-x="253" d="M70 539q0 23 17 39t40 16t40 -16.5t17 -39t-17 -40t-40 -17.5q-25 0 -41 16.5t-16 41.5zM72 0v424h112v-424h-112z" />
<glyph unicode="j" horiz-adv-x="260" d="M6 -90q45 2 57.5 23.5t12.5 80.5v412h112v-412q0 -113 -51 -157q-45 -39 -131 -45v98zM76 539q0 23 16.5 39t40.5 16q23 0 40 -16.5t17 -39t-17 -40t-40 -17.5q-25 0 -41 16.5t-16 41.5z" />
<glyph unicode="k" horiz-adv-x="493" d="M70 0v555l110 39v-315l137 145h154l-133 -135l139 -289h-123l-100 203l-74 -78v-125h-110z" />
<glyph unicode="l" horiz-adv-x="249" d="M70 0v551l110 43v-594h-110z" />
<glyph unicode="m" horiz-adv-x="825" d="M70 0v426h110v-27q41 35 127 35q82 0 127 -43q49 43 144 43q82 0 130 -39t48 -102v-293h-111v254q0 35 -23.5 56.5t-62.5 21.5t-65.5 -22.5t-26.5 -51.5v-258h-109v254q0 33 -26.5 55.5t-65.5 22.5t-62.5 -21.5t-23.5 -54.5v-256h-110z" />
<glyph unicode="n" horiz-adv-x="573" d="M70 0v426h110v-27q35 33 135 33q86 0 137.5 -39t51.5 -117v-276h-111v233q0 98 -106 99q-31 0 -51.5 -6.5t-38 -30t-17.5 -66.5v-229h-110z" />
<glyph unicode="o" horiz-adv-x="559" d="M47 213q0 92 67.5 155.5t164.5 63.5q98 0 165.5 -63.5t67.5 -155.5q0 -94 -67.5 -157.5t-165.5 -63.5q-96 0 -164 64.5t-68 156.5zM160 213q0 -51 35.5 -83t83 -32t84 33t36.5 82t-36.5 82t-84 33t-83 -33t-35.5 -82z" />
<glyph unicode="p" horiz-adv-x="579" d="M70 -174v598h112v-23q41 31 115 31h7q104 0 165 -60q63 -62 63 -159q0 -94 -66.5 -157.5t-164.5 -63.5q-66 0 -119 28v-155zM182 137q41 -33 98 -39q10 -1 18 -1q45 0 81 25q43 30 43 89q0 90 -89 112q-24 6 -47 5q-59 0 -104 -41v-150z" />
<glyph unicode="q" horiz-adv-x="579" d="M47 213q0 96 64 159q61 60 165 60h7q74 0 114 -31v23h113v-557l-113 -41v194q-53 -29 -116 -28q-98 0 -166 63.5t-68 157.5zM158 211q0 -88 89 -109q24 -6 46 -5q60 0 104 40v154q-55 37 -111 37q-24 0 -47 -6q-81 -23 -81 -111z" />
<glyph unicode="r" horiz-adv-x="376" d="M70 0v426h112v-31q33 37 97 37q47 0 79 -24l-32 -107q-23 25 -56 25q-45 0 -66.5 -34t-21.5 -79v-213h-112z" />
<glyph unicode="s" horiz-adv-x="509" d="M41 31l47 92l64 -17q66 -14 102 -14q106 0 106 31q0 8 -3 14t-21.5 12.5t-26.5 8.5l-51 12q-109 23 -149 51q-55 35 -56 94q0 55 53.5 87t145.5 32q100 0 199 -43l-48 -92l-6 4q-8 2 -23.5 7l-33.5 10.5t-42 9.5t-44 6q-14 1 -25 1q-62 0 -65 -28q0 -14 21.5 -22 t78.5 -21q106 -20 155.5 -55t49.5 -92q0 -59 -55.5 -93t-153.5 -34q-127 0 -219 39z" />
<glyph unicode="t" horiz-adv-x="317" d="M18 326v98h70v131l111 39v-170h90v-98h-90v-160q0 -63 49 -64q23 0 47 23l-19 -113q-39 -23 -75 -22q-51 0 -82 35.5t-31 95.5v205h-70z" />
<glyph unicode="u" horiz-adv-x="573" d="M70 150v276h110v-236q0 -59 28 -79.5t79 -20.5q31 0 51 6t36.5 30t16.5 67v233h113v-426h-113v23q-33 -31 -133 -31q-86 0 -137 40t-51 118z" />
<glyph unicode="v" horiz-adv-x="512" d="M12 426h121l123 -289l129 289h117l-183 -426h-126z" />
<glyph unicode="w" horiz-adv-x="692" d="M12 426h115l86 -246l68 246h133l67 -248l82 248h119l-143 -426h-121l-72 258l-70 -258h-120z" />
<glyph unicode="x" horiz-adv-x="534" d="M12 0l185 240l-144 186h142l73 -94l72 94h141l-143 -186l184 -240h-139l-115 147l-114 -147h-142z" />
<glyph unicode="y" horiz-adv-x="561" d="M12 426h127l152 -293l133 293h125l-264 -588h-129l73 162z" />
<glyph unicode="z" horiz-adv-x="501" d="M29 0v92l260 232h-246v102h430v-84l-270 -242h270v-100h-444z" />
<glyph unicode="&#xa2;" horiz-adv-x="514" d="M47 309.5q0 98.5 49 166t123 73.5v84h109v-82q96 -10 157 -102l-90 -48q-20 29 -43.5 42.5t-75.5 13.5q-61 0 -92 -42q-29 -39 -28 -98q0 -159 127 -159q35 0 54 6t29.5 18.5t28.5 30.5l90 -45q-55 -92 -157 -105v-100h-109v103q-72 8 -122 76.5t-50 167z" />
<glyph unicode="&#xaa;" horiz-adv-x="559" d="M47 133q0 63 58.5 106.5t146.5 43.5q61 0 127 -17q-2 41 -24.5 56.5t-73.5 15.5q-59 0 -148 -37l-47 92q102 43 195 43q209 0 208 -178v-258h-122v18q-2 0 -27 -8q-55 -18 -104 -18q-82 0 -135.5 40t-53.5 101zM158 141q0 -54 75 -54q54 0 146 28v59q-33 20 -127 20 t-94 -53z" />
<glyph unicode="&#xad;" horiz-adv-x="251" d="M23 154v108h206v-108h-206z" />
<glyph unicode="&#xb2;" d="M68 0q0 9 -1 17q0 87 38 150q42 69 104.5 101.5t126 55t108.5 46.5q43 23 44 51q0 63 -118 64q-9 0 -19 -1q-134 -5 -199 -72l-76 84q115 80 238 94q30 3 58 3q86 0 146 -34q82 -46 82 -132q0 -39 -15 -72q-17 -36 -56.5 -61.5t-70 -38.5t-85.5 -34l-45 -16 q-23 -8 -44.5 -18.5t-39 -20.5t-29.5 -24.5t-18 -30.5h407v-111h-536z" />
<glyph unicode="&#xb3;" d="M57 102l76 78q82 -80 211 -80q152 0 152 84q0 47 -41 68q-18 10 -58 10h-63v111h63q63 0 64 47q0 31 -39 49q-31 12 -84 12q-100 0 -178 -57l-66 86q109 84 244 84q100 0 165.5 -48t65.5 -122q0 -57 -45 -105q80 -49 80 -139t-80 -147q-66 -43 -174 -43q-150 0 -244 69 q-18 12 -49 43z" />
<glyph unicode="&#xb9;" horiz-adv-x="356" d="M82 428v82q82 4 108 74h84v-584h-110v428h-82z" />
<glyph unicode="&#xba;" horiz-adv-x="559" d="M47 213q0 92 67.5 155.5t164.5 63.5q98 0 165.5 -63.5t67.5 -155.5q0 -94 -67.5 -157.5t-165.5 -63.5q-96 0 -164 64.5t-68 156.5zM160 213q0 -51 35.5 -83t83 -32t84 33t36.5 82t-36.5 82t-84 33t-83 -33t-35.5 -82z" />
<glyph unicode="&#x152;" horiz-adv-x="1337" d="M807 0v584h465v-111h-354v-106h204v-113h-204v-143h362v-111h-473zM57 293q0 127 88 214t217 87q123 0 214.5 -89t91.5 -210q0 -125 -90.5 -215t-215 -90t-215 89t-90.5 214zM168 295q0 -80 57.5 -136.5t137 -56.5t137 56.5t57.5 136.5v-2q0 78 -57.5 133t-137 55 t-137 -54t-57.5 -132z" />
<glyph unicode="&#x153;" horiz-adv-x="1118" d="M606 213q0 92 67.5 155.5t164.5 63.5q102 0 165.5 -64.5t67.5 -187.5h-350q10 -37 44 -61.5t70 -24.5q53 0 93 31l84 -76q-78 -59 -174.5 -59t-164 65.5t-67.5 157.5zM721 264h223v-2q-8 31 -39 48.5t-67 17.5q-47 0 -78 -20.5t-39 -43.5zM47 213q0 92 67.5 155.5 t164.5 63.5q98 0 165.5 -63.5t67.5 -155.5q0 -94 -67.5 -157.5t-165.5 -63.5q-96 0 -164 64.5t-68 156.5zM160 213q0 -51 35.5 -83t83 -32t84 33t36.5 82t-36.5 82t-84 33t-83 -33t-35.5 -82z" />
<glyph unicode="&#x2013;" horiz-adv-x="1024" d="M23 154v108h978v-108h-978z" />
<glyph unicode="&#x2014;" horiz-adv-x="2048" d="M23 154v108h2002v-108h-2002z" />
<glyph unicode="&#x201c;" horiz-adv-x="458" d="M82 584h108l-16 -236h-74zM266 584h111l-19 -236h-73z" />
<glyph unicode="&#x201d;" horiz-adv-x="458" d="M82 584h108l-16 -236h-74zM266 584h111l-19 -236h-73z" />
<glyph unicode="&#x2026;" horiz-adv-x="583" d="M430 43q0 25 16.5 41t38.5 16q25 0 41.5 -16t16.5 -39q0 -25 -16.5 -41t-39.5 -16q-25 0 -41 16t-16 39zM236 43q0 25 16.5 41t38.5 16q25 0 41.5 -16t16.5 -39q0 -25 -16.5 -41t-39.5 -16q-25 0 -41 16t-16 39zM41 43q0 25 16.5 41t38.5 16q25 0 41.5 -16t16.5 -39 q0 -25 -16.5 -41t-39.5 -16q-25 0 -41 16t-16 39z" />
<glyph unicode="&#x2122;" horiz-adv-x="1341" d="M629 0v584h102l207 -367l217 367h105v-584h-111v346l-211 -346l-201 346v-346h-108zM23 473v111h501v-111h-190v-473h-111v473h-200z" />
<glyph unicode="&#xe000;" horiz-adv-x="425" d="M0 425h425v-425h-425v425z" />
<glyph unicode="&#xfb01;" horiz-adv-x="542" d="M359 539q0 23 17 39t40 16t40 -16.5t17 -39t-17 -40t-40 -17.5q-25 0 -41 16.5t-16 41.5zM361 0v424h112v-424h-112zM18 324v100h64v63q0 106 127 107q20 0 61 -4v-92q-20 2 -37 2q-39 0 -38 -39v-37h75v-100h-75v-324h-113v324h-64z" />
<glyph unicode="&#xfb02;" horiz-adv-x="538" d="M359 0v551l110 43v-594h-110zM18 324v100h64v63q0 106 127 107q20 0 61 -4v-92q-20 2 -37 2q-39 0 -38 -39v-37h75v-100h-75v-324h-113v324h-64z" />
<glyph unicode="&#xfb03;" horiz-adv-x="831" d="M648 539q0 23 17 39t40 16t40 -16.5t17 -39t-17 -40t-40 -17.5q-25 0 -41 16.5t-16 41.5zM650 0v424h112v-424h-112zM307 324v100h64v63q0 106 127 107q20 0 61 -4v-92q-20 2 -37 2q-39 0 -38 -39v-37h75v-100h-75v-324h-113v324h-64zM18 324v100h64v63q0 106 127 107 q20 0 61 -4v-92q-20 2 -37 2q-39 0 -38 -39v-37h75v-100h-75v-324h-113v324h-64z" />
<glyph unicode="&#xfb04;" horiz-adv-x="827" d="M648 0v551l110 43v-594h-110zM307 324v100h64v63q0 106 127 107q20 0 61 -4v-92q-20 2 -37 2q-39 0 -38 -39v-37h75v-100h-75v-324h-113v324h-64zM18 324v100h64v63q0 106 127 107q20 0 61 -4v-92q-20 2 -37 2q-39 0 -38 -39v-37h75v-100h-75v-324h-113v324h-64z" />
</font>
</defs>
</svg>
